<svg width="82" height="83" viewBox="0 0 82 83" fill="none" xmlns="http://www.w3.org/2000/svg">
<g clip-path="url(#clip0)">
<path d="M40.7265 81.1887C37.87 81.1887 35.015 80.6129 32.3711 79.463L19.7286 73.9672C15.1549 71.9777 10.3189 70.7177 5.35517 70.2214L1.20346 69.8063C0.519919 69.7382 0 69.1633 0 68.4767V55.4535C0 55.1644 0.0940443 54.8831 0.267606 54.6522C0.578028 54.237 8.01899 44.516 19.3853 47.0453C25.7781 48.4659 30.9253 51.1244 34.1174 53.1046C36.4349 54.5421 39.1515 55.3013 41.9735 55.3013H54.616C56.7951 55.3013 58.7104 56.4543 59.7815 58.1838L70.67 45.6392C72.7811 42.8202 76.2347 41.0938 79.8504 41.0938H80.664C81.1158 41.0938 81.5363 41.3216 81.7825 41.6993C82.0295 42.077 82.0685 42.5549 81.8873 42.9678L72.0394 65.3487C69.8863 70.2436 65.5022 73.9412 60.3129 75.2387L58.5804 75.6714L48.5016 79.7031C46.0213 80.6948 43.3735 81.1887 40.7265 81.1887ZM2.673 67.2671L5.62125 67.5622C10.861 68.086 15.9661 69.4171 20.7952 71.5167L33.4369 77.0125C37.8822 78.9454 43.0088 79.0211 47.5099 77.2205L57.6713 73.1559C57.7279 73.1338 57.7852 73.1154 57.8441 73.1009L59.6646 72.6452C64.0586 71.5465 67.7707 68.4163 69.5927 64.2722L78.5751 43.8585C76.2752 44.1972 74.1588 45.4366 72.7489 47.316L60.6868 61.2177C60.6884 61.2697 60.6891 61.3209 60.6891 61.3736C60.6891 64.7218 57.9649 67.446 54.6168 67.446H36.9777C34.6847 67.446 32.4185 67.8138 30.2432 68.5386L29.7524 67.2923L29.3372 66.0223L29.4053 66.0002C31.8466 65.1866 34.3965 64.773 36.9777 64.773H54.6168C56.4908 64.773 58.0169 63.2477 58.0169 61.3729C58.0169 59.4981 56.4915 57.9728 54.6168 57.9728H41.9743C38.6537 57.9728 35.4501 57.0744 32.7098 55.3747C29.6943 53.5038 24.833 50.9936 18.8073 49.6533C10.1996 47.7441 4.00567 54.3502 2.67376 55.926V67.2671H2.673Z" fill="white"/>
<path d="M52.6274 40.7912C50.5722 40.7912 48.2677 40.1566 45.7308 38.8881C45.4234 38.7337 45.1864 38.4661 45.0702 38.1427C44.967 37.8529 42.5792 30.9846 46.3738 25.9054C49.1317 22.2132 54.3171 20.5503 61.7948 20.967C62.4768 21.0044 63.0204 21.5511 63.054 22.2347C63.0808 22.7653 63.6321 35.29 57.2455 39.46C55.8876 40.3477 54.3446 40.7912 52.6274 40.7912ZM47.4351 36.7435C50.9453 38.3896 53.7513 38.5509 55.7851 37.2229C59.5721 34.7494 60.391 27.4071 60.4109 23.5857C54.5518 23.4427 50.563 24.7631 48.5147 27.5042C46.0771 30.7682 47.0245 35.2579 47.4351 36.7435Z" fill="white"/>
<path d="M32.1892 23.2829C29.8197 23.2829 27.0863 22.7752 24.7008 21.0281C20.6546 18.063 18.7952 12.4181 19.1729 4.25076C19.205 3.56798 19.7463 3.01901 20.4291 2.97848C21.0071 2.94561 34.6886 2.21543 39.2922 9.12576C41.4361 12.3424 41.2603 16.5553 38.7715 21.6497C38.6201 21.9594 38.3556 22.1987 38.0322 22.3172C37.8525 22.3837 35.3439 23.2829 32.1892 23.2829ZM37.5711 21.0633H37.5841H37.5711ZM21.803 5.6079C21.6876 12.1497 23.1915 16.6088 26.2797 18.872C29.9772 21.5809 35.0258 20.4294 36.6131 19.9668C38.429 16.0262 38.5827 12.8799 37.0688 10.6075C34.2551 6.38395 26.0037 5.5582 21.803 5.6079Z" fill="white"/>
<path d="M42.6254 57.5024C42.5833 57.5024 42.5413 57.5001 42.4984 57.4963C41.7866 57.429 41.2537 56.8135 41.2896 56.0986C41.3684 54.5266 41.503 53.0357 41.6857 51.6227C42.2415 42.1663 41.9548 20.1447 28.0317 14.0524C27.3558 13.7565 27.0469 12.969 27.3428 12.2923C27.6379 11.6172 28.4278 11.3091 29.1029 11.6042C37.3077 15.1939 42.4694 24.1312 44.0269 37.4496C44.1668 38.6431 44.2715 39.8198 44.3495 40.9659C48.0165 31.6999 53.6262 28.4259 53.9604 28.2386C54.6026 27.8754 55.4177 28.1063 55.7801 28.7478C56.1402 29.39 55.9139 30.2028 55.2739 30.5652C55.1325 30.6478 46.5301 35.8103 44.3709 51.7305C44.2065 54.454 43.9695 56.1904 43.9473 56.3494C43.8548 57.0161 43.2852 57.5024 42.6254 57.5024Z" fill="white"/>
</g>
<defs>
<clipPath id="clip0">
<rect width="82" height="82" fill="white" transform="translate(0 0.996094)"/>
</clipPath>
</defs>
</svg>
