<svg width="82" height="83" viewBox="0 0 82 83" fill="none" xmlns="http://www.w3.org/2000/svg">
<g clip-path="url(#clip0)">
<path d="M74.5566 13.4334L41.8308 1.14668C41.2949 0.945792 40.705 0.945952 40.1691 1.14684L7.44364 13.4332C6.52655 13.7775 5.91016 14.667 5.91016 15.6466V35.5069C5.91016 46.9702 9.91305 58.1697 17.1816 67.0425C17.4182 67.3315 17.7622 67.4811 18.1087 67.4811C18.3757 67.4811 18.6443 67.3923 18.8671 67.21C19.3787 66.7908 19.4538 66.0363 19.0346 65.5245C12.1159 57.0786 8.30547 46.4182 8.30547 35.5067V15.6682L41 3.39333L73.6944 15.6682V35.5069C73.6944 43.7929 71.5089 51.9654 67.3746 59.1411C67.0444 59.7142 67.2413 60.4466 67.8144 60.7768C68.3872 61.1067 69.1199 60.91 69.4499 60.337C73.7938 52.7983 76.0897 44.2121 76.0897 35.507V15.6466C76.0899 14.667 75.4737 13.7775 74.5566 13.4334Z" fill="white"/>
<path d="M66.3408 63.0526C65.8055 62.6642 65.0564 62.7831 64.6681 63.3186C58.7493 71.4765 50.5715 77.4251 41.0017 80.54C34.04 78.2715 27.6194 74.3658 22.4137 69.2292C21.9431 68.7646 21.1849 68.7694 20.7201 69.2403C20.2556 69.7113 20.2607 70.4695 20.7314 70.934C26.2954 76.4244 33.1796 80.5758 40.6399 82.9396C40.7576 82.9768 40.8796 82.9955 41.0017 82.9955C41.1237 82.9955 41.2457 82.9768 41.3636 82.9396C51.5814 79.7021 60.3104 73.4037 66.607 64.7252C66.9952 64.1899 66.8761 63.441 66.3408 63.0526Z" fill="white"/>
<path d="M55.9659 12.4237L41.4215 6.96313C41.1502 6.86125 40.8511 6.86125 40.5798 6.96313L12.2767 17.5891C11.8095 17.7646 11.5 18.2112 11.5 18.7102V35.507C11.5 44.954 14.4499 53.9765 20.0305 61.599C25.2312 68.7023 32.3417 74.036 40.593 77.0238C40.7248 77.0715 40.8628 77.0953 41.0009 77.0953C41.139 77.0953 41.277 77.0715 41.4087 77.0238C49.6601 74.036 56.7704 68.7023 61.9712 61.599C67.5519 53.9765 70.5018 44.954 70.5018 35.507V18.7106C70.5018 18.2115 70.1923 17.7647 69.725 17.5894L60.7442 14.2177C60.1251 13.9854 59.4346 14.2989 59.2021 14.918C58.9696 15.5372 59.2832 16.2277 59.9025 16.4602L68.1061 19.5401V35.5072C68.1061 44.4419 65.3162 52.9751 60.0382 60.1842C55.2054 66.7849 48.63 71.7699 41.0007 74.6219C33.3716 71.77 26.796 66.785 21.9632 60.1842C16.6851 52.9751 13.8953 44.4419 13.8953 35.5072V19.5401L41.0007 9.36372L55.1242 14.6661C55.7433 14.8988 56.4338 14.5852 56.6663 13.9659C56.8988 13.3466 56.5851 12.6562 55.9659 12.4237Z" fill="white"/>
<path d="M61.6765 35.7871C61.6765 34.4289 61.1476 33.1522 60.1874 32.1919C59.227 31.2315 57.9502 30.7028 56.5922 30.7028C55.2342 30.7028 53.9573 31.2317 52.997 32.1919L51.7482 33.4406L48.2709 29.9633L49.5196 28.7145C50.4798 27.7541 51.0087 26.4774 51.0087 25.1195C51.0087 23.7613 50.4798 22.4846 49.5196 21.5242C48.5592 20.5639 47.2824 20.0352 45.9244 20.0352C44.5663 20.0352 43.2894 20.564 42.329 21.5242L41.0804 22.7728L39.8318 21.5242C38.8715 20.5639 37.5946 20.0352 36.2365 20.0352C34.8785 20.0352 33.6016 20.564 32.6412 21.5242C31.681 22.4846 31.1522 23.7613 31.1522 25.1195C31.1522 26.4774 31.681 27.7543 32.6412 28.7145L33.89 29.9633L30.4126 33.4406L29.1639 32.1919C28.2035 31.2315 26.9267 30.7028 25.5687 30.7028C24.2107 30.7028 22.9338 31.2317 21.9735 32.1919C21.0133 33.1522 20.4844 34.4289 20.4844 35.7871C20.4844 37.1451 21.0133 38.4219 21.9735 39.3821L23.2222 40.6309L21.9767 41.8765C21.0165 42.8368 20.4876 44.1135 20.4876 45.4715C20.4876 46.8296 21.0165 48.1064 21.9767 49.0667C22.937 50.0271 24.2139 50.5558 25.5719 50.5558C26.9299 50.5558 28.2067 50.0269 29.1671 49.0667L30.4125 47.8213L33.8898 51.2987L32.6443 52.5442C31.6841 53.5046 31.1552 54.7813 31.1552 56.1393C31.1552 57.4973 31.6841 58.7741 32.6443 59.7343C33.6046 60.6947 34.8815 61.2234 36.2397 61.2234C37.5976 61.2234 38.8745 60.6945 39.8349 59.7343L41.0803 58.4889L42.3257 59.7343C43.286 60.6947 44.5629 61.2234 45.9209 61.2234C47.279 61.2234 48.5559 60.6945 49.5163 59.7343C50.4765 58.774 51.0053 57.4973 51.0053 56.1393C51.0053 54.7813 50.4765 53.5044 49.5163 52.5442L48.2707 51.2987L51.7481 47.8213L52.9935 49.0667C53.9538 50.0271 55.2307 50.5558 56.5887 50.5558C57.9467 50.5558 59.2235 50.0269 60.1839 49.0667C61.1441 48.1064 61.673 46.8296 61.673 45.4715C61.673 44.1135 61.1441 42.8367 60.1839 41.8765L58.9383 40.6309L60.1871 39.3821C61.1474 38.4219 61.6765 37.1452 61.6765 35.7871ZM50.0544 35.1344L46.2518 38.9371L42.7744 35.4597L46.577 31.6571L50.0544 35.1344ZM51.7482 36.8282L55.5509 40.6309L51.7482 44.4335L47.9456 40.6309L51.7482 36.8282ZM44.5579 40.631L41.0806 44.1084L37.6032 40.631L41.0806 37.1537L44.5579 40.631ZM41.0806 33.7661L37.2779 29.9634L41.0806 26.1606L44.8832 29.9634L41.0806 33.7661ZM44.0232 23.2181C44.531 22.7102 45.2063 22.4305 45.9246 22.4305C46.6427 22.4305 47.3182 22.7101 47.8258 23.2181C48.3338 23.726 48.6135 24.4012 48.6135 25.1195C48.6135 25.8377 48.3338 26.5129 47.8258 27.0209L46.577 28.2696L42.7744 24.4668L44.0232 23.2181ZM34.3354 27.0209C33.8274 26.5129 33.5476 25.8377 33.5476 25.1195C33.5476 24.4012 33.8274 23.7259 34.3354 23.2181C34.8432 22.7102 35.5185 22.4305 36.2366 22.4305C36.9549 22.4305 37.6304 22.7101 38.138 23.2181L39.3868 24.4668L35.5841 28.2696L34.3354 27.0209ZM35.5841 31.6571L39.3868 35.4597L35.9094 38.9371L32.1068 35.1344L35.5841 31.6571ZM34.2156 40.631L30.413 44.4337L26.6103 40.631L30.413 36.8284L34.2156 40.631ZM23.6678 37.6885C23.1598 37.1805 22.88 36.5054 22.88 35.7871C22.88 35.0688 23.1598 34.3935 23.6678 33.8857C24.1756 33.3779 24.8507 33.0981 25.569 33.0981C26.2873 33.0981 26.9626 33.3777 27.4702 33.8857L28.719 35.1344L24.9163 38.9371L23.6678 37.6885ZM27.4736 47.3731C26.9658 47.8809 26.2906 48.1606 25.5723 48.1606C24.8541 48.1606 24.1788 47.881 23.6711 47.3731C23.1631 46.8651 22.8834 46.1899 22.8834 45.4717C22.8834 44.7534 23.1631 44.0782 23.6711 43.5703L24.9165 42.3249L28.7192 46.1275L27.4736 47.3731ZM32.1068 46.1275L35.9094 42.3249L39.3868 45.8022L35.5841 49.6049L32.1068 46.1275ZM41.0806 47.496L44.8832 51.2987L41.0806 55.1013L37.2779 51.2987L41.0806 47.496ZM38.1414 58.0407C37.6336 58.5485 36.9582 58.8283 36.2401 58.8283C35.5219 58.8283 34.8464 58.5487 34.3387 58.0407C33.8308 57.5327 33.551 56.8576 33.551 56.1393C33.551 55.421 33.8308 54.7458 34.3387 54.2379L35.5841 52.9925L39.3868 56.7951L38.1414 58.0407ZM47.8226 54.2379C48.3306 54.7458 48.6103 55.421 48.6103 56.1393C48.6103 56.8576 48.3306 57.5327 47.8226 58.0407C47.3148 58.5485 46.6395 58.8283 45.9212 58.8283C45.2031 58.8283 44.5276 58.5487 44.02 58.0407L42.7746 56.7953L46.5772 52.9926L47.8226 54.2379ZM46.577 49.6049L42.7744 45.8022L46.2518 42.3249L50.0544 46.1275L46.577 49.6049ZM58.4901 43.5703C58.998 44.0782 59.2778 44.7534 59.2778 45.4717C59.2778 46.1899 58.998 46.8653 58.4901 47.3731C57.9823 47.8809 57.3071 48.1606 56.5888 48.1606C55.8706 48.1606 55.1952 47.881 54.6876 47.3731L53.442 46.1275L57.2447 42.3249L58.4901 43.5703ZM58.4934 37.6885L57.2447 38.9372L53.442 35.1346L54.6908 33.8858C55.1986 33.378 55.8737 33.0983 56.592 33.0983C57.3103 33.0983 57.9856 33.3779 58.4933 33.8858C59.0012 34.3938 59.281 35.069 59.281 35.7872C59.2812 36.5054 59.0014 37.1805 58.4934 37.6885Z" fill="white"/>
</g>
<defs>
<clipPath id="clip0">
<rect width="82" height="82" fill="white" transform="translate(0 0.996094)"/>
</clipPath>
</defs>
</svg>
