<svg width="82" height="83" viewBox="0 0 82 83" fill="none" xmlns="http://www.w3.org/2000/svg">
<path d="M3.10594 80.4885L5.57011 79.2508L3.08627 74.3126L6.54657 67.4305H11.7681H13.1009L16.5888 74.3667L14.132 79.2478L16.5968 80.4885L16.6095 80.4625L16.6603 80.4885L18.9526 75.9291H25.5615L27.8539 80.4885L30.3188 79.2508L27.895 74.4315L31.5099 67.2446H38.0034L41.6183 74.4315L39.1953 79.2508L41.6594 80.4899L43.9511 75.9319H50.5614L52.8538 80.4899L55.3186 79.2508L52.8938 74.4343L56.4147 67.4333H57.8023H61.6043H62.9919L66.5107 74.4315L63.0818 81.2495H66.2466L66.6282 80.4899L67.7744 78.2096L68.9204 75.9292H75.4527L77.7437 80.4886L80.2084 79.2509L77.7865 74.4317L81.9995 66.0541L77.7978 57.7006L81.9995 49.3456L77.8463 41.0854L81.9995 32.8259L77.8463 24.566L81.9995 16.3058L77.7999 7.95194L79.4192 4.73831L76.9545 3.49832L75.4555 6.479H68.8466L67.3485 3.49832L67.3296 3.50833L67.3274 3.49832L64.8626 4.73831L66.4327 7.8583L62.9717 14.7394H56.3613L52.9305 7.91347L54.5266 4.73831L55.4764 2.74023H52.3877L52.0068 3.49955L50.9493 5.60496L50.5078 6.47917H49.1203H43.9539L42.4544 3.49832L42.4142 3.51922L42.4042 3.49955L39.9402 4.74006L41.5105 7.85971L38.0489 14.7408H31.441L27.9788 7.85971L29.55 4.74006L27.0854 3.49955L27.0812 3.50833L27.063 3.49832L25.564 6.479H20.3428H19.0129L17.5137 3.49832L17.0754 2.74023H13.9872L14.9941 4.74006L15.3386 5.42366L16.565 7.85971L15.4122 10.1531L13.1051 14.7406H11.717H6.54657L3.0875 7.85813L4.6576 4.73813L2.19133 3.49832L0 7.85813L4.20064 16.212L0 24.566L4.15356 32.8259L0 41.0854L4.15356 49.3456L0 57.6061L4.20064 65.9596L0 74.3124L3.10594 80.4885ZM25.5628 72.9312H20.343H19.0102L15.5223 65.9942L18.9538 59.1699H25.5628L29.025 66.0511L25.5628 72.9312ZM52.9558 41.0841L56.4177 34.2036H57.8048H62.9717L66.4327 41.0841L62.9717 47.9649H57.7484H56.4179L55.5906 46.3222L52.9558 41.0841ZM53.9957 49.4011L50.5642 56.224H43.9539L40.4943 49.3442L43.9539 42.4634H49.1203H50.5078L53.9957 49.4011ZM52.8151 35.1182L50.508 39.705H49.1204H43.9541L40.4931 32.8244L43.9541 25.9434H49.1204H50.508L52.8151 30.5305L53.9678 32.8244L52.8151 35.1182ZM41.5106 41.0841L38.0491 47.9649H31.4412L27.979 41.0841L31.4412 34.2036H38.0491L41.5106 41.0841ZM25.5628 39.705H20.3416H19.0102L18.184 38.0625L15.5487 32.8244L19.0102 25.9434H20.3974H25.5626L29.0248 32.8244L25.5628 39.705ZM19.0116 42.4634H20.3996H25.564L29.0262 49.3442L25.564 56.224H20.3428H19.0115L18.1852 54.5822L15.5499 49.3442L19.0116 42.4634ZM31.4412 64.4861L27.979 57.6033L31.4412 50.7235H38.0491L41.5106 57.6033L38.0491 64.4861H31.4412ZM50.5614 72.9312H43.9539L40.4929 66.0511L43.9539 59.1699H49.1746H50.508L53.9959 66.1047L50.5614 72.9312ZM62.9689 64.6718H61.6057H57.7482H56.4177L52.9291 57.7358L56.3613 50.9093H62.9689L66.4313 57.7908L62.9689 64.6718ZM78.9169 66.0511L75.4559 72.9312H69.0435L65.4852 65.8556L68.8478 59.1713H75.4573L78.9169 66.0511ZM78.9169 49.3442L75.4559 56.224H68.8469L65.3852 49.3442L68.8469 42.4634H75.4559L78.9169 49.3442ZM78.9169 32.8259L75.4559 39.7066H68.8469L65.3852 32.8259L68.8469 25.9451H75.4559L78.9169 32.8259ZM68.8468 9.42472H75.4557L78.9167 16.3058L75.4557 23.1869H68.8468L65.3851 16.3058L68.8468 9.42472ZM56.4177 17.6849H57.8048H62.9717L66.4327 24.566L62.9717 31.4467H57.7484H56.4179L55.5906 29.8042L52.956 24.5662L56.4177 17.6849ZM43.9539 9.42472H50.5614L53.9957 16.249L50.5078 23.1849H49.1203H43.9539L40.4943 16.3058L43.9539 9.42472ZM38.0491 17.6849L41.5106 24.566L38.0491 31.4467H31.4412L27.979 24.566L31.4412 17.6849H38.0491ZM17.7623 11.7195L19.0104 9.23744H20.3997H25.5629L29.0252 16.1185L25.5629 22.9978H18.954L15.5225 16.173L17.7623 11.7195ZM3.0875 24.566L6.54762 17.6849H13.1569L16.5902 24.5096L13.1023 31.4453H11.7142H6.54657L3.0875 24.566ZM3.0875 41.0841L6.54762 34.2036H11.7142H13.1023L15.4094 38.7904L16.5622 41.0841L15.4094 43.3781L13.1023 47.9649H11.7142H6.54657L3.0875 41.0841ZM3.0875 57.6033L6.54762 50.7235H11.7142H13.1023L16.5902 57.6604L13.1569 64.4833H6.54657L3.0875 57.6033Z" fill="white"/>
</svg>
