<svg width="72" height="72" viewBox="0 0 72 72" fill="none" xmlns="http://www.w3.org/2000/svg">
<g clip-path="url(#clip0)">
<path d="M40.1166 53.4062H37.9646C37.1742 53.4062 36.5312 54.0495 36.5312 54.8399V61.324C36.5312 62.1146 37.1742 62.7576 37.9646 62.7576H40.1166C42.0959 62.7576 43.706 61.1485 43.706 59.1705V56.9932C43.706 55.0155 42.0959 53.4062 40.1166 53.4062ZM41.5806 59.1707C41.5806 59.9766 40.9238 60.6323 40.1166 60.6323H38.6566V55.5319H40.1166C40.9238 55.5319 41.5806 56.1876 41.5806 56.9935V59.1707Z" fill="white"/>
<path d="M32.9145 53.4062H29.3596C28.7726 53.4062 28.2969 53.882 28.2969 54.469C28.2969 55.056 28.7726 55.5317 29.3596 55.5317H32.6647V57.0192H29.3596C28.7726 57.0192 28.2969 57.495 28.2969 58.0819C28.2969 58.6689 28.7726 59.1447 29.3596 59.1447H32.6647V60.6321H29.3596C28.7726 60.6321 28.2969 61.1079 28.2969 61.6949C28.2969 62.2819 28.7726 62.7576 29.3596 62.7576H32.9145C33.9487 62.7576 34.7903 61.9159 34.7903 60.8813V55.2825C34.7901 54.248 33.9487 53.4062 32.9145 53.4062Z" fill="white"/>
<path d="M71.936 60.4472L70.1465 54.1664C69.9857 53.6019 69.3979 53.2746 68.8333 53.4356C68.2688 53.5964 67.9416 54.1843 68.1025 54.7488L69.3646 59.1786L56.6698 52.1068C56.6744 51.9527 56.673 44.0415 56.673 44.0415C56.673 43.4545 56.1973 42.9787 55.6103 42.9787C55.0233 42.9787 54.5475 43.4545 54.5475 44.0415C54.5475 44.0415 54.5515 52.1684 54.5357 52.3021C54.4937 52.3332 49.3241 55.2198 49.3241 55.2198C48.0782 49.4072 43.1189 44.9571 37.0614 44.4874V41.5953L54.5475 31.8579V39.1684C54.5475 39.7554 55.0233 40.2311 55.6103 40.2311C56.1973 40.2311 56.673 39.7554 56.673 39.1684V29.8329C56.6573 29.3016 56.3785 28.8658 55.8365 28.5255L37.0615 18.0704V3.64366L40.3162 6.90062C40.5239 7.10827 40.7958 7.21217 41.068 7.21217C41.3399 7.21217 41.6116 7.10841 41.8193 6.90118C42.2343 6.48629 42.2346 5.81342 41.8197 5.39825L37.2094 0.784852C36.8955 0.464723 36.455 0.28125 35.9988 0.28125C35.5424 0.28125 35.114 0.458537 34.7928 0.780212L30.1778 5.39811C29.7629 5.81328 29.7631 6.48615 30.1782 6.90104C30.5936 7.31607 31.2663 7.31579 31.6812 6.90062L34.936 3.64366V18.0703L27.6309 22.137C27.1181 22.4224 26.9338 23.0697 27.2192 23.5825C27.5047 24.0953 28.152 24.2795 28.6646 23.9941L35.9988 19.9113L53.8155 29.8328L35.9989 39.7542L18.1825 29.8309L24.9454 26.0382C25.4573 25.7511 25.6396 25.1034 25.3524 24.5915C25.0653 24.0795 24.4178 23.8972 23.9057 24.1843L16.1648 28.5255C15.6317 28.8225 15.3268 29.3005 15.3279 29.8367C15.3279 29.839 15.3283 29.8411 15.3283 29.8432C15.3283 29.8432 15.3266 51.9561 15.331 52.107L2.63621 59.1769L3.89521 54.7481C4.05577 54.1835 3.72819 53.5958 3.16357 53.4353C2.59923 53.2747 2.01127 53.6023 1.85072 54.1669L0.063789 60.4531C-0.0578233 60.8896 -0.00439822 61.347 0.214223 61.7408C0.43439 62.1372 0.809772 62.4343 1.23844 62.5539L7.51532 64.3444C7.61275 64.3722 7.71089 64.3854 7.80747 64.3854C8.27016 64.3854 8.69574 64.0809 8.82888 63.614C8.98986 63.0495 8.66284 62.4614 8.0985 62.3005L3.66647 61.0363L16.2416 54.0329C16.3766 54.1318 22.3839 57.4911 22.3839 57.4911C22.3755 57.6872 22.3706 57.8843 22.3706 58.0826C22.3706 65.6016 28.4843 71.7189 35.9991 71.7189C43.5139 71.7189 49.6274 65.6017 49.6274 58.0826C49.6274 57.8845 49.6224 57.6873 49.614 57.4912C49.614 57.4912 55.6257 54.1311 55.7597 54.0326L68.3332 61.037L63.9035 62.3006C63.3391 62.4616 63.012 63.0497 63.1732 63.6142C63.3063 64.0812 63.7319 64.3856 64.1946 64.3856C64.2912 64.3856 64.3893 64.3724 64.4866 64.3445L70.764 62.5539C71.1931 62.4312 71.5646 62.1351 71.7839 61.7406C72.0036 61.3437 72.0585 60.8865 71.936 60.4472ZM17.7424 52.4731C17.5888 52.3872 17.5072 52.3336 17.4646 52.3024C17.4494 52.1695 17.4538 31.8581 17.4538 31.8581L34.936 41.5953V44.4874C28.8786 44.9571 23.9195 49.4069 22.6733 55.2194L17.7424 52.4731ZM35.9988 69.5933C29.6561 69.5933 24.4959 64.4295 24.4959 58.0824C24.4959 51.7354 29.6561 46.5716 35.9988 46.5716C42.3416 46.5716 47.5018 51.7354 47.5018 58.0824C47.5018 64.4295 42.3416 69.5933 35.9988 69.5933Z" fill="white"/>
</g>
<defs>
<clipPath id="clip0">
<rect width="72" height="72" fill="white"/>
</clipPath>
</defs>
</svg>
