<svg width="72" height="72" viewBox="0 0 72 72" fill="none" xmlns="http://www.w3.org/2000/svg">
<path d="M66.9597 32.5345L65.0952 25.0765C65.6049 24.9682 65.9874 24.5159 65.9874 23.9741V22.7716C65.9874 20.1608 63.8633 18.0368 61.2526 18.0368H52.76V15.5564C52.76 14.2717 51.7148 13.2266 50.4301 13.2266H7.13981C5.85506 13.2266 4.80994 14.2717 4.80994 15.5564V35.9991C4.80994 36.6216 5.31464 37.1265 5.93733 37.1265C6.55988 37.1265 7.06472 36.6218 7.06472 35.9991V15.5564C7.06472 15.515 7.09833 15.4813 7.13981 15.4813H50.43C50.4714 15.4813 50.505 15.515 50.505 15.5564V35.9994C50.505 36.6219 51.0098 37.1268 51.6324 37.1268C52.255 37.1268 52.7598 36.6221 52.7598 35.9994V34.7214H66.0586C66.0597 34.7214 66.0606 34.7217 66.0615 34.7217C66.0627 34.7217 66.0637 34.7215 66.0646 34.7215C67.7011 34.7226 69.0906 35.7967 69.5679 37.2768H66.0624C65.4398 37.2768 64.935 37.7815 64.935 38.4042V40.8092C64.935 42.757 66.5196 44.3415 68.4674 44.3415H69.7451V49.3018H66.7973C65.8289 46.5057 63.171 44.4917 60.0498 44.4917C56.9287 44.4917 54.2706 46.5057 53.3024 49.3018H52.7595V40.809C52.7595 40.1865 52.2548 39.6816 51.6322 39.6816C51.0096 39.6816 50.5048 40.1863 50.5048 40.809V49.3015H27.1149C26.1465 46.5055 23.4886 44.4914 20.3674 44.4914C17.2463 44.4914 14.5882 46.5055 13.62 49.3015H7.13981C7.09833 49.3015 7.06472 49.2679 7.06472 49.2264V46.7462H11.9499C12.5724 46.7462 13.0773 46.2415 13.0773 45.6188C13.0773 44.9961 12.5726 44.4914 11.9499 44.4914H1.12739C0.504844 44.4914 0 44.9961 0 45.6188C0 46.2415 0.504703 46.7462 1.12739 46.7462H4.81008V49.2264C4.81008 50.5112 5.8552 51.5563 7.13995 51.5563H13.2296C13.2293 51.5813 13.2276 51.6062 13.2276 51.6314C13.2276 55.5683 16.4306 58.7712 20.3674 58.7712C24.3042 58.7712 27.5072 55.5683 27.5072 51.6314C27.5072 51.6061 27.5055 51.5813 27.5053 51.5563H52.912C52.9117 51.5813 52.91 51.6062 52.91 51.6314C52.91 55.5683 56.113 58.7712 60.0498 58.7712C63.9866 58.7712 67.1896 55.5683 67.1896 51.6314C67.1896 51.6061 67.188 51.5813 67.1877 51.5563H70.8725C71.495 51.5563 71.9999 51.0516 71.9999 50.4289V38.4039C72 35.435 69.8095 32.9683 66.9597 32.5345ZM52.76 20.2914H61.2526C62.6202 20.2914 63.7328 21.404 63.7328 22.7716V22.8467H52.76V20.2914ZM52.76 32.4667V25.1014H62.7774L64.6187 32.4667H52.76ZM20.3674 56.5168C17.6737 56.5168 15.4823 54.3255 15.4823 51.6317C15.4823 48.9379 17.6737 46.7465 20.3674 46.7465C23.0611 46.7465 25.2526 48.9379 25.2526 51.6317C25.2526 54.3255 23.0611 56.5168 20.3674 56.5168ZM60.0501 56.5168C57.3564 56.5168 55.1649 54.3255 55.1649 51.6317C55.1649 48.9379 57.3564 46.7465 60.0501 46.7465C62.7438 46.7465 64.9353 48.9379 64.9353 51.6317C64.9353 54.3255 62.7438 56.5168 60.0501 56.5168ZM69.7454 42.0868H68.4676C67.7631 42.0868 67.1899 41.5136 67.1899 40.809V39.5313H69.7452V42.0868H69.7454Z" fill="white"/>
<path d="M20.3689 49.3027C19.0842 49.3027 18.0391 50.3479 18.0391 51.6326C18.0391 52.9174 19.0842 53.9625 20.3689 53.9625C21.6537 53.9625 22.6988 52.9174 22.6988 51.6326C22.6988 50.3479 21.6537 49.3027 20.3689 49.3027Z" fill="white"/>
<path d="M60.0525 49.3027C58.7678 49.3027 57.7227 50.3479 57.7227 51.6326C57.7227 52.9174 58.7678 53.9625 60.0525 53.9625C61.3373 53.9625 62.3824 52.9174 62.3824 51.6326C62.3824 50.3479 61.3373 49.3027 60.0525 49.3027Z" fill="white"/>
<path d="M46.8218 44.4922H29.9868C29.3642 44.4922 28.8594 44.9969 28.8594 45.6196C28.8594 46.2423 29.3641 46.747 29.9868 46.747H46.8218C47.4444 46.747 47.9492 46.2423 47.9492 45.6196C47.9492 44.9969 47.4445 44.4922 46.8218 44.4922Z" fill="white"/>
<path d="M17.9637 39.6836H3.53364C2.91109 39.6836 2.40625 40.1883 2.40625 40.811C2.40625 41.4337 2.91095 41.9384 3.53364 41.9384H17.9637C18.5863 41.9384 19.0911 41.4337 19.0911 40.811C19.0911 40.1883 18.5863 39.6836 17.9637 39.6836Z" fill="white"/>
<path d="M39.201 24.3789C38.7608 23.9388 38.0469 23.9388 37.6067 24.3791L27.5813 34.4044L22.3659 29.189C21.9256 28.7487 21.2118 28.7487 20.7716 29.189C20.3313 29.6293 20.3313 30.343 20.7716 30.7833L26.7842 36.7958C27.0043 37.016 27.2928 37.126 27.5813 37.126C27.8697 37.126 28.1584 37.016 28.3783 36.7958L39.2008 25.9733C39.6411 25.5329 39.6411 24.8192 39.201 24.3789Z" fill="white"/>
</svg>
