<svg width="72" height="73" viewBox="0 0 72 73" fill="none" xmlns="http://www.w3.org/2000/svg">
<g clip-path="url(#clip0)">
<path d="M48.9403 21.8613C48.1625 21.8613 47.5312 22.491 47.5312 23.2698C47.5312 24.048 48.1625 24.6788 48.9403 24.6788C49.7196 24.6788 50.3493 24.048 50.3493 23.2698C50.3493 22.491 49.7196 21.8613 48.9403 21.8613Z" fill="white"/>
<path d="M23.3387 47.4609C22.5593 47.4609 21.9297 48.0922 21.9297 48.8699C21.9297 49.6493 22.5593 50.2789 23.3387 50.2789C24.1164 50.2789 24.7477 49.6493 24.7477 48.8699C24.7477 48.0922 24.1164 47.4609 23.3387 47.4609Z" fill="white"/>
<path d="M70.4582 8.66825C69.9827 8.55762 69.4829 8.70127 69.1395 9.04802L63.2982 14.9356H60.4978L57.415 11.7416V8.90216L63.1727 3.05866C63.5134 2.71301 63.6521 2.21601 63.5393 1.74322C63.427 1.27099 63.0791 0.890117 62.619 0.734906C61.1726 0.247259 59.659 0.000133674 58.1195 0.000133674C53.5304 0.000133674 49.3612 2.14006 46.6808 5.87116C44.1721 9.36394 43.3988 13.6443 44.5067 17.7409L34.128 28.1196L16.8369 10.7889V7.38749C16.8369 6.89268 16.5771 6.43366 16.1528 6.17938L6.19011 0.201026C5.63532 -0.13196 4.92587 -0.044448 4.46904 0.412927L0.484207 4.39721C0.0273819 4.85459 -0.0601302 5.56404 0.272306 6.11883L6.24956 16.0815C6.50384 16.5058 6.96231 16.7651 7.45712 16.7656L10.8574 16.7667L28.1502 34.0974L17.8111 44.4365C13.7145 43.3291 9.43192 44.1035 5.93749 46.6139C2.20858 49.2926 0.0703125 53.4608 0.0703125 58.0499C0.0703125 59.5888 0.317438 61.1029 0.805085 62.5488C0.960846 63.0117 1.34557 63.3612 1.82111 63.4713C2.2972 63.5819 2.7964 63.4382 3.1404 63.0915L8.98115 57.2045H11.797L15.0052 60.4127V63.2285L9.1182 69.0693C8.77145 69.4133 8.6278 69.9125 8.73843 70.3886C8.84851 70.8641 9.198 71.2488 9.66088 71.4046C11.1068 71.8923 12.6209 72.1394 14.1598 72.1394C18.7489 72.1394 22.9165 70.0006 25.5958 66.2717C28.1062 62.7772 28.8806 58.4952 27.7732 54.3986L36.0769 46.0949L37.9791 48.161L37.1062 49.0334C36.5558 49.5838 36.5558 50.476 37.1062 51.0264C37.6565 51.5762 38.5482 51.5762 39.0991 51.0264L39.8895 50.236L57.7365 69.6219C57.7497 69.6362 57.7634 69.65 57.7772 69.6637C61.0796 72.9661 66.4299 72.9672 69.7339 69.6632C73.0285 66.3669 73.0285 61.0033 69.7339 57.707C69.7196 57.6927 69.7047 57.6789 69.6899 57.6652L50.2737 39.8523L51.0553 39.0708C51.6057 38.5209 51.6057 37.6287 51.0553 37.0784C50.5049 36.528 49.6132 36.528 49.0623 37.0784L48.1954 37.9458L46.1254 36.0458L54.4694 27.7019C55.6554 28.0189 56.8795 28.1796 58.1195 28.1796C65.8889 28.1796 72.209 21.8589 72.209 14.0902C72.209 12.5507 71.9619 11.0371 71.4742 9.5907C71.3185 9.12782 70.9338 8.77833 70.4582 8.66825ZM12.4393 14.3626C12.1751 14.0979 11.8168 13.963 11.4425 13.963L8.25573 13.9619L3.25488 5.61247L5.68375 3.1836L14.0189 8.18555V11.3723C14.0189 11.7455 14.1669 12.1032 14.4306 12.3674L32.1356 30.1126L30.1426 32.105L12.4393 14.3626ZM48.2791 41.8469L67.7613 59.7198C69.9376 61.9192 69.9309 65.4802 67.7409 67.6713C65.546 69.8663 61.9927 69.8729 59.7889 67.6906L41.8835 48.2414L48.2791 41.8469ZM46.2008 39.9398L39.9731 46.1664L38.071 44.1002L44.1308 38.0399L46.2008 39.9398ZM58.1195 25.3616C56.8872 25.3616 55.6753 25.164 54.5183 24.7744C54.0114 24.6043 53.4511 24.7353 53.0725 25.1134C46.0087 32.1771 30.7882 47.3971 25.1836 53.0023C24.8049 53.3809 24.6734 53.9412 24.8445 54.4487C26.0158 57.9266 25.4555 61.6363 23.3067 64.6276C21.1641 67.6102 17.8298 69.3214 14.1598 69.3214C13.7475 69.3214 13.3375 69.2988 12.9313 69.2553L17.4065 64.8148C17.6729 64.5506 17.8232 64.1906 17.8232 63.8147V59.8288C17.8232 59.4551 17.6746 59.0968 17.4104 58.8326L13.3766 54.7988C13.1124 54.5346 12.7541 54.386 12.3804 54.386H8.39443C8.01852 54.386 7.65856 54.5362 7.39382 54.8026L2.95381 59.2778C2.90978 58.8716 2.88777 58.4616 2.88777 58.0494C2.88777 54.3788 4.59838 51.0451 7.5815 48.9024C10.5723 46.7537 14.2825 46.1928 17.761 47.3646C18.2679 47.5358 18.8282 47.4042 19.2069 47.0256C19.2845 46.9485 47.0759 19.1565 47.0958 19.1367C47.4744 18.758 47.6054 18.1983 47.4348 17.6908C46.263 14.2129 46.8222 10.5044 48.9693 7.51518C51.1136 4.52985 54.4484 2.81814 58.119 2.81814C58.5439 2.81814 58.966 2.8418 59.3843 2.88804L55.0021 7.33575C54.7423 7.59939 54.597 7.95439 54.597 8.32425V12.3102C54.597 12.6756 54.7385 13.0262 54.9922 13.2888L58.8851 17.3226C59.1504 17.5978 59.5164 17.753 59.899 17.753H63.8849C64.2603 17.753 64.6202 17.6033 64.885 17.3364L69.325 12.8617C69.369 13.2679 69.391 13.6779 69.391 14.0902C69.391 20.3052 64.3346 25.3616 58.1195 25.3616Z" fill="white"/>
<path d="M43.9582 26.2565L26.3264 43.8883C25.7766 44.4382 25.7766 45.3304 26.3264 45.8807C26.8768 46.4311 27.769 46.4311 28.3194 45.8807L45.9512 28.249C46.5016 27.6991 46.5016 26.8069 45.9512 26.2565C45.4008 25.7062 44.5086 25.7062 43.9582 26.2565Z" fill="white"/>
<path d="M61.7629 63.6873C62.3133 64.236 63.2055 64.236 63.7559 63.684C64.3052 63.133 64.3035 62.2409 63.7526 61.6916L51.0523 49.032C50.5013 48.4827 49.6086 48.4844 49.0599 49.0353C48.51 49.5868 48.5117 50.4785 49.0626 51.0277L61.7629 63.6873Z" fill="white"/>
</g>
<defs>
<clipPath id="clip0">
<rect width="72" height="72.1409" fill="white"/>
</clipPath>
</defs>
</svg>
