<svg width="100" height="100" viewBox="0 0 100 100" fill="none" xmlns="http://www.w3.org/2000/svg">
<path d="M67.7419 0H32.2581C14.4424 0 0 14.4424 0 32.2581V67.7419C0 85.5576 14.4424 100 32.2581 100H67.7419C85.5576 100 100 85.5576 100 67.7419V32.2581C100 14.4424 85.5576 0 67.7419 0Z" fill="#CFCFCF"/>
<path d="M36.7268 40.7078C37.4174 40.7078 37.977 40.2488 37.977 39.6824V39.3301C37.977 38.7637 37.4174 38.3047 36.7268 38.3047C36.0361 38.3047 35.4766 38.7637 35.4766 39.3301V39.6824C35.4766 40.2487 36.0361 40.7078 36.7268 40.7078Z" fill="#E31E24"/>
<path d="M52.801 40.7078C53.4916 40.7078 54.0512 40.2488 54.0512 39.6824V39.3301C54.0512 38.7637 53.4916 38.3047 52.801 38.3047C52.1104 38.3047 51.5508 38.7637 51.5508 39.3301V39.6824C51.5508 40.2487 52.1105 40.7078 52.801 40.7078Z" fill="#E31E24"/>
<path d="M44.762 48.5073C47.05 48.5073 49.1091 47.4665 50.1363 45.791C50.4465 45.2851 50.198 44.6687 49.5811 44.4144C48.9643 44.1598 48.2125 44.3638 47.9026 44.8698C47.3024 45.8486 46.0992 46.4566 44.762 46.4566C43.4248 46.4566 42.2214 45.8486 41.6211 44.8698C41.3109 44.3637 40.5595 44.1597 39.9427 44.4144C39.3258 44.6687 39.0773 45.2851 39.3875 45.791C40.4146 47.4664 42.4741 48.5073 44.762 48.5073V48.5073Z" fill="#E31E24"/>
<path d="M77.78 64.8888H75.5139V56.4047C75.5139 54.6728 73.7962 53.2639 71.6848 53.2639C69.5733 53.2639 67.8556 54.6728 67.8556 56.4047V64.8888H64.5649C64.273 64.2846 63.903 63.7846 63.4571 63.4004C61.242 61.4886 57.5683 60.4391 54.6052 59.8749C54.6024 59.8743 54.5998 59.8734 54.597 59.8727C54.5833 59.8698 54.5697 59.8682 54.5558 59.8656C54.2921 59.8157 54.0338 59.7693 53.7832 59.7269C53.2948 59.6444 52.9298 59.3224 52.8747 58.9258L52.4295 55.7064C55.3056 56.3425 57.8499 57.3498 59.8192 58.6369C60.2692 58.9303 60.8093 59.0729 61.3466 59.0727C62.0627 59.0727 62.7733 58.8193 63.256 58.3316C72.2421 49.2592 71.6368 37.3576 68.0743 29.2447C62.5961 16.7705 50.2057 15.1341 45.1329 15.0097C38.3855 14.8449 32.1265 16.7991 30.1759 19.6144C26.8149 20.6998 23.7129 23.7555 21.6024 28.0866C21.3462 28.6124 21.6582 29.2091 22.2995 29.4193C22.9409 29.6292 23.668 29.3737 23.9244 28.8476C25.8347 24.927 28.647 22.15 31.4473 21.4187C31.7928 21.3284 32.0737 21.1195 32.2167 20.8461C33.2407 18.8902 38.6445 16.9008 45.058 17.0594C48.0293 17.1322 52.4615 17.7044 56.7022 20.0159C60.769 22.2328 63.8038 25.5716 65.7219 29.9395C67.0818 33.036 67.9846 36.7183 68.0113 40.5641C67.7942 40.2319 67.5164 39.924 67.1821 39.6499C66.2892 38.9176 65.102 38.5143 63.8395 38.5143H62.2289C62.2115 38.3394 62.1934 38.1633 62.1742 37.9852C63.0867 38.0138 64.012 38.0291 64.951 38.0291C65.6416 38.0291 66.2012 37.5701 66.2012 37.0037C66.2012 36.4372 65.6416 35.9783 64.951 35.9783C57.885 35.9783 49.8076 35.0947 43.5738 32.4198C41.7372 31.6264 40.1866 30.7224 38.9829 29.7578C38.9031 29.6934 38.8232 29.6291 38.7462 29.5637C38.7169 29.5391 38.6877 29.5143 38.6587 29.4896C38.3967 29.2636 38.1501 29.0331 37.9218 28.7977C37.9131 28.7886 37.9026 28.7813 37.8936 28.7725C37.069 27.9183 36.5124 27.0325 36.263 26.1464C36.1076 25.5947 35.4375 25.2505 34.7636 25.378C34.091 25.5055 33.6714 26.056 33.8268 26.6078C34.1205 27.6513 34.7036 28.6686 35.5504 29.6388C34.5502 31.8438 31.991 33.2942 29.1082 33.267C29.1036 33.267 29.0987 33.267 29.0941 33.267C28.465 33.267 27.9325 33.6512 27.8539 34.1643C27.6163 35.7115 27.4305 37.161 27.2953 38.5141H25.6855C24.4207 38.5141 23.2331 38.9177 22.3415 39.6507C22.0078 39.9252 21.7302 40.2333 21.5134 40.5655C21.4049 37.929 21.7211 35.2427 22.4894 32.5877C22.6489 32.0367 22.2337 31.4839 21.5619 31.3532C20.8893 31.222 20.2162 31.5631 20.0568 32.1139C18.8241 36.373 18.6666 40.8887 19.6011 45.1728C20.6863 50.1484 23.1561 54.5841 26.9431 58.3577C27.4188 58.8309 28.1167 59.0764 28.8222 59.0764C29.3613 59.0764 29.905 58.933 30.3573 58.6382C32.1642 57.4559 34.4712 56.5056 37.0716 55.8652L36.6484 58.9252C36.5934 59.3221 36.2288 59.6442 35.7409 59.7267C35.4899 59.7692 35.2308 59.8157 34.9666 59.8656C34.954 59.868 34.9413 59.8694 34.9286 59.8721C34.926 59.8727 34.9236 59.8735 34.9211 59.8742C31.9572 60.4381 28.2813 61.4879 26.0666 63.3995C25.233 64.1179 24.6804 65.1905 24.3772 66.6784C24.2633 67.237 24.7232 67.7655 25.4042 67.8588C25.474 67.8684 25.5433 67.8731 25.6117 67.8731C26.2116 67.8731 26.7412 67.5179 26.8434 67.0165C27.1112 65.7014 27.5538 65.0925 27.8784 64.8126C29.1659 63.7014 31.4494 62.7577 34.4057 62.0964C36.4379 66.8255 41.764 70.738 44.2841 71.592C44.4369 71.6438 44.5993 71.6696 44.7615 71.6696C44.924 71.6696 45.0864 71.6436 45.2396 71.5917C45.7545 71.417 46.3382 71.1413 46.9618 70.783V82.9493H28.8027C28.2504 80.9472 26.8425 75.4649 26.633 70.8783C26.6072 70.3123 26.0307 69.8765 25.3368 69.892C24.6469 69.9132 24.1085 70.3892 24.1343 70.9551C24.4043 76.8614 26.5073 83.9222 26.5967 84.2199C26.7342 84.678 27.2353 85 27.8105 85H77.7798C79.142 85 80.25 84.0911 80.25 82.9738V66.9149C80.2502 65.7977 79.142 64.8888 77.78 64.8888V64.8888ZM73.0135 74.417H70.3561V60.8197H73.0135V74.417ZM72.6275 76.4678C72.4306 76.8708 72.1336 77.4181 71.6847 78.1528C71.2358 77.4181 70.9387 76.8708 70.7419 76.4678H72.6275ZM71.6848 55.3149C72.4176 55.3149 73.0135 55.8038 73.0135 56.4048V58.7691H70.3561V56.4048C70.356 55.8038 70.9522 55.3149 71.6848 55.3149ZM61.7245 64.8888H53.4953C53.7651 64.518 54.0139 64.1454 54.2413 63.773C54.2678 63.7346 54.2921 63.6951 54.3125 63.6542C54.6242 63.1329 54.8941 62.6121 55.1171 62.0964C58.0734 62.7577 60.3571 63.7016 61.6454 64.8137C61.6723 64.8369 61.6983 64.8632 61.7245 64.8888V64.8888ZM36.8423 61.59C38.0861 61.1924 38.9789 60.267 39.1328 59.157L39.5375 56.2297C41.455 56.6744 43.2928 56.9276 44.7613 56.9276C46.2301 56.9276 48.0678 56.6744 49.9855 56.2297L50.3902 59.1571C50.5439 60.2667 51.4369 61.1919 52.6807 61.5896C52.5554 61.8651 52.415 62.1428 52.2593 62.4217C49.9856 62.9717 47.4064 63.2618 44.7613 63.2618C42.1156 63.2618 39.5348 62.9717 37.26 62.4213C37.1083 62.148 36.9688 61.8707 36.8423 61.59V61.59ZM50.4247 64.8888C50.4604 64.8833 50.4954 64.8771 50.5309 64.8715C50.5259 64.8773 50.5211 64.883 50.5162 64.8888H50.4247ZM67.7021 44.623C67.0043 48.919 65.0713 53.235 61.3431 57.0105C59.7258 55.9587 57.7842 55.0763 55.6225 54.4012C57.72 53.4951 60.2427 52.0898 61.2572 50.2725C61.8015 49.2979 62.1665 47.9599 62.3522 46.2691H63.8395C65.4339 46.2691 66.8453 45.6178 67.7021 44.623V44.623ZM63.8395 40.5653C64.4342 40.5653 64.9935 40.7554 65.414 41.1003C65.8348 41.4453 66.0665 41.904 66.0665 42.3918C66.0665 43.399 65.0675 44.2183 63.8395 44.2183H62.4856C62.5144 43.1127 62.4851 41.8936 62.3987 40.5652H63.8395V40.5653ZM37.3547 31.3287C42.8725 35.6569 51.9924 37.4011 59.6513 37.8703C60.4459 44.9713 59.7378 48.0692 58.9839 49.4187C58.9839 49.4189 58.9837 49.4189 58.9837 49.419C57.4126 52.2334 48.9651 54.877 44.7615 54.877C40.5587 54.877 32.1115 52.2332 30.5393 49.4189C30.1167 48.6623 29.7247 47.3928 29.5793 45.2731C29.5796 45.2633 29.5811 45.2537 29.5811 45.2437C29.5811 45.1944 29.5755 45.1464 29.5673 45.0989C29.4816 43.6866 29.5038 41.9071 29.694 39.6674C29.699 39.634 29.702 39.6001 29.703 39.5657C29.8135 38.2883 29.9774 36.8649 30.2076 35.273C33.2492 35.0009 35.9091 33.524 37.3547 31.3287V31.3287ZM24.1118 41.0994C24.5308 40.755 25.0896 40.5653 25.6854 40.5653H27.1246C27.0379 41.8937 27.0079 43.1131 27.0366 44.2185H25.6855C24.4577 44.2185 23.4587 43.3991 23.4587 42.3919C23.4585 41.9049 23.6906 41.4458 24.1118 41.0994ZM28.8318 57.0132C25.3821 53.5609 23.0953 49.3766 22.0841 44.8995C22.9519 45.7366 24.244 46.2691 25.6854 46.2691H27.1704C27.3561 47.9582 27.7207 49.2965 28.2659 50.2728C29.3271 52.1724 32.0355 53.6219 34.1833 54.5215C32.1672 55.1816 30.3514 56.0236 28.8318 57.0132V57.0132ZM44.7632 69.5033C43.3368 68.8427 40.9121 67.1197 38.9871 64.8707C40.8279 65.1614 42.7807 65.3126 44.7615 65.3126C45.9245 65.3126 47.078 65.2606 48.2049 65.1589C47.4634 65.5091 46.962 66.1642 46.962 66.9148V68.1643C46.1647 68.7437 45.3899 69.2154 44.7632 69.5033ZM49.4624 66.9395H53.9612V82.9493H49.4624V66.9395ZM77.7498 82.9493H61.7141H56.4616V66.9395H67.8557V75.4424C67.8557 75.7537 67.8557 76.5807 69.8556 79.7222C70.2128 80.2831 70.9139 80.6314 71.6852 80.6313C72.4565 80.6311 73.1574 80.2828 73.5145 79.7221C75.5141 76.5807 75.5141 75.7538 75.5141 75.4424V66.9395H77.7499V82.9493H77.7498Z" fill="#E31E24"/>
<path d="M51.7111 72.6347C52.4017 72.6347 52.9613 72.1758 52.9613 71.6093V70.2129C52.9613 69.6465 52.4017 69.1875 51.7111 69.1875C51.0205 69.1875 50.4609 69.6465 50.4609 70.2129V71.6093C50.4609 72.1758 51.0205 72.6347 51.7111 72.6347Z" fill="#E31E24"/>
<path d="M51.7111 77.2539C51.0205 77.2539 50.4609 77.7129 50.4609 78.2793V79.6758C50.4609 80.2422 51.0205 80.7011 51.7111 80.7011C52.4017 80.7011 52.9613 80.2422 52.9613 79.6758V78.2793C52.9613 77.713 52.4016 77.2539 51.7111 77.2539Z" fill="#E31E24"/>
<path d="M51.6369 75.9688H51.7823C52.4729 75.9688 53.0325 75.5098 53.0325 74.9434C53.0325 74.3769 52.4729 73.918 51.7823 73.918H51.6369C50.9463 73.918 50.3867 74.3769 50.3867 74.9434C50.3867 75.5098 50.9465 75.9688 51.6369 75.9688Z" fill="#E31E24"/>
</svg>
