<svg width="100" height="100" viewBox="0 0 100 100" fill="none" xmlns="http://www.w3.org/2000/svg">
<path d="M67.7419 0H32.2581C14.4424 0 0 14.4424 0 32.2581V67.7419C0 85.5576 14.4424 100 32.2581 100H67.7419C85.5576 100 100 85.5576 100 67.7419V32.2581C100 14.4424 85.5576 0 67.7419 0Z" fill="#CFCFCF"/>
<path d="M85 54.1379V25.1724C85 22.3203 82.3832 20 79.1667 20H33.6667C27.2337 20 22 24.6407 22 30.3448C22 33.7597 23.883 36.7834 26.7682 38.6683C20.1893 39.1514 15 44.0445 15 50V50.9931V78.9655V79.0648H15.0222C15.0817 79.5872 15.5623 80 16.1667 80H43C43.644 80 44.1667 79.5365 44.1667 78.9655V64.3741C45.3917 65.4831 47.0192 66.2372 48.8333 66.469V66.5517H50H64.5833H82.6667V70.6897H78V72.7586H80.3333V80H82.6667V72.7586H83.8333C84.4773 72.7586 85 72.2952 85 71.7241V65.5172C85 64.9462 84.4773 64.4828 83.8333 64.4828H68.9443C69.5043 63.7421 69.8333 62.8534 69.8333 61.8965C69.8333 60.9397 69.5043 60.051 68.9443 59.3103H79.1667C82.3832 59.3103 85 56.99 85 54.1379ZM79.1667 22.069C81.0963 22.069 82.6667 23.4614 82.6667 25.1724V48.9655H77.286L78.7467 45.0821C79.8305 42.1979 79.5832 39.1131 78.0502 36.3945L76.9278 34.4041L76.9838 34.2541C78.4083 30.4669 77.0048 26.2462 73.4885 23.751L72.8958 23.331C72.47 23.029 71.8645 23.029 71.4375 23.331L70.8483 23.749C67.332 26.2431 65.9262 30.4628 67.3495 34.251L67.4067 34.4031L66.2843 36.3934C64.7513 39.1121 64.504 42.1979 65.5878 45.081L67.0485 48.9655H61.6667V39.6552H61.6573C61.6573 39.5259 61.6398 39.3955 61.5838 39.2703L56.9172 28.9255C56.7387 28.5334 56.3105 28.2759 55.8333 28.2759C55.3562 28.2759 54.928 28.5334 54.7495 28.9255L50.0828 39.2703C50.0268 39.3955 50.0093 39.5259 50.0093 39.6552H50V43.4776C47.8685 40.7879 44.463 38.9548 40.5652 38.6683C43.4503 36.7834 45.3333 33.7597 45.3333 30.3448C45.3333 26.959 43.4807 23.9569 40.6375 22.069H79.1667ZM71.8832 32.3828C71.9777 32.4034 72.0722 32.4138 72.1667 32.4138C72.4723 32.4138 72.7698 32.3072 72.9915 32.1107L73.5632 31.6038L75.1113 32.2907C75.0495 32.6797 74.9573 33.0666 74.8232 33.4493H69.509C69.3177 32.901 69.2232 32.3424 69.1777 31.7848L71.8832 32.3828ZM69.3387 29.6859C69.7237 28.0679 70.6838 26.5638 72.1667 25.4652C73.7323 26.6248 74.7252 28.2334 75.0612 29.9548L73.8548 29.42C73.4057 29.2224 72.8632 29.3 72.5085 29.6145L71.8085 30.2352L69.3387 29.6859ZM69.3877 35.5172H74.9457L75.9618 37.3193C76.0108 37.4072 76.0482 37.4972 76.0948 37.5862H68.2397C68.2852 37.4983 68.3225 37.4072 68.3715 37.3193L69.3877 35.5172ZM76.8602 39.6552C77.2183 41.2286 77.1203 42.8631 76.5323 44.4272L74.8255 48.9655H69.5067L67.8022 44.4272C67.2142 42.8631 67.115 41.2286 67.4743 39.6552H76.8602ZM54.0215 37.6959C53.8582 37.6224 53.6785 37.5862 53.5 37.5862C53.451 37.5862 53.402 37.5883 53.353 37.5945L55.8333 32.0952L58.3137 37.5934C58.0873 37.5666 57.8528 37.6028 57.6452 37.6948L55.8333 38.4986L54.0215 37.6959ZM54.6667 40.2945V48.9655H52.3333V40.2945L53.5 39.7772L54.6667 40.2945ZM57 40.2945L58.1667 39.7772L59.3333 40.2945V48.9655H57V40.2945ZM24.3333 30.3448C24.3333 25.7817 28.5205 22.069 33.6667 22.069C38.8128 22.069 43 25.7817 43 30.3448C43 32.2679 42.2498 34.0359 41.0038 35.4428C38.8268 35.0941 37.1667 33.409 37.1667 31.3793H34.8333C34.8333 33.9324 36.581 36.1276 39.0695 37.0803C37.5435 38.0466 35.6815 38.6207 33.6667 38.6207C28.5205 38.6207 24.3333 34.9079 24.3333 30.3448ZM37.1667 77.931H17.3333V52.069L33.7168 52.0679C34.7808 52.0286 35.762 52.3307 36.4305 52.8976C36.7665 53.1831 37.1667 53.6621 37.1667 54.3231V77.931ZM64.5833 64.4828H50C46.7835 64.4828 44.1667 62.1624 44.1667 59.3103V50H41.8333V77.931H39.5V54.3231C39.5 53.2379 38.9832 52.2003 38.044 51.4038C36.9182 50.4469 35.2977 49.939 33.6667 50H17.3333C17.3333 44.8669 22.0443 40.6897 27.8333 40.6897H39.5C45.289 40.6897 50 44.8669 50 50V58.2759C50 58.8469 50.5227 59.3103 51.1667 59.3103H64.5833C66.191 59.3103 67.5 60.471 67.5 61.8965C67.5 63.3221 66.191 64.4828 64.5833 64.4828ZM64.5833 57.2414H52.3333V51.0345H68.6667H75.6667H82.6667V54.1379C82.6667 55.849 81.0963 57.2414 79.1667 57.2414H64.5833Z" fill="#E31E24"/>
</svg>
