<svg width="100" height="100" viewBox="0 0 100 100" fill="none" xmlns="http://www.w3.org/2000/svg">
<path d="M67.7419 0H32.2581C14.4424 0 0 14.4424 0 32.2581V67.7419C0 85.5576 14.4424 100 32.2581 100H67.7419C85.5576 100 100 85.5576 100 67.7419V32.2581C100 14.4424 85.5576 0 67.7419 0Z" fill="#CFCFCF"/>
<path d="M82.7995 75.5748L83.3019 71.5577C83.679 68.5342 83.871 65.4598 83.871 62.4194C83.871 59.2694 82.5714 56.4197 80.4839 54.3705V40.9677H78.8773C78.2969 40.9677 77.7945 40.5545 77.6782 39.9663C77.5653 39.3995 77.8724 38.826 78.4076 38.6047L79.8911 37.9894L76.434 29.6447L74.9482 30.26C74.4085 30.4824 73.7921 30.2916 73.4602 29.7971C73.1384 29.315 73.2016 28.6681 73.6126 28.2571L74.7473 27.119L68.3637 20.7344L67.2245 21.8713C66.8147 22.2834 66.1655 22.3444 65.6777 22.0169C65.1923 21.6918 65.0015 21.0652 65.2261 20.5266L65.8403 19.0476L57.4911 15.5905L56.8826 17.0673C56.6602 17.6069 56.0776 17.9129 55.4984 17.8C54.9294 17.6894 54.5161 17.1869 54.5161 16.6066V15H45.4839V16.6066C45.4839 17.1869 45.0706 17.6894 44.4824 17.8056C43.9213 17.9174 43.3421 17.6115 43.1219 17.0774L42.5089 15.5916L34.1597 19.0487L34.7739 20.5266C34.9974 21.0674 34.8066 21.694 34.3223 22.0192C33.8345 22.3444 33.1842 22.2811 32.7676 21.8668L31.6363 20.7377L25.2527 27.1224L26.3818 28.2548C26.795 28.6692 26.8594 29.3218 26.5297 29.8152C26.2079 30.2961 25.5869 30.4869 25.0506 30.2634L23.5648 29.6481L20.1077 37.9927L21.5789 38.6035C22.1208 38.8282 22.4313 39.4085 22.3173 39.9844C22.2055 40.5523 21.7008 40.9677 21.1171 40.9677H19.5161V52.1102C18.1545 53.0732 17.2581 54.6527 17.2581 56.4445C17.2581 57.4234 17.5256 58.3526 18.0021 59.1553C17.5189 59.9502 17.2581 60.8669 17.2581 61.8097C17.2581 63.9932 18.64 65.9227 20.7005 66.634C20.9353 68.5523 21.974 70.221 23.47 71.2992L23.0997 72.7782L21.1035 73.2773C19.6855 73.6306 18.3916 74.3645 17.3597 75.3965C15.8377 76.9195 15 78.9439 15 81.0958V85H85V81.0958C85 79.024 84.2165 77.0753 82.7995 75.5748ZM31.0165 74.9268L32.6321 75.331L31.091 77.3124L29.3726 76.0231L31.0165 74.9268ZM27.4194 77.379L29.7056 79.094L27.4194 82.0329L25.1331 79.094L27.4194 77.379ZM34.8337 76.1777C35.2097 76.4115 35.5653 76.679 35.8815 76.9952C36.9777 78.0903 37.5806 79.5468 37.5806 81.0958V82.7419H29.7271L34.8337 76.1777ZM39.8387 81.0958C39.8387 79.5456 40.4416 78.0892 41.5379 76.994C41.854 76.6779 42.2097 76.4103 42.5856 76.1766L47.6923 82.7419H39.8387V81.0958ZM43.2258 63.6873V63.8419C42.921 63.3474 42.6681 62.8213 42.484 62.2692C42.2266 61.4992 42.0968 60.6964 42.0968 59.8813V59.0323C42.0968 55.9195 44.6292 53.3871 47.7419 53.3871H52.2581C55.3708 53.3871 57.9032 55.9195 57.9032 59.0323V59.8813C57.9032 60.6953 57.7734 61.4992 57.516 62.2692C57.3319 62.8213 57.079 63.3485 56.7742 63.8419V63.5484C56.7742 61.681 55.2545 60.1613 53.3871 60.1613H50C49.3768 60.1613 48.871 59.6544 48.871 59.0323C48.871 58.4102 49.3768 57.9032 50 57.9032H51.129V55.6452H50C48.3155 55.6452 46.9144 56.8815 46.6558 58.4937C44.5998 59.3698 43.2258 61.3965 43.2258 63.6873ZM46.6129 51.2194C45.8158 51.3345 45.0571 51.5671 44.3548 51.9024V48.871H46.6129V51.2194ZM55.6452 51.9024C54.9429 51.5671 54.1842 51.3345 53.3871 51.2194V48.871H55.6452V51.9024ZM45.4839 63.6873C45.4839 62.4815 46.1195 61.3965 47.1074 60.7935C47.7035 61.7679 48.7773 62.4194 50 62.4194H53.3871C54.0103 62.4194 54.5161 62.9263 54.5161 63.5484V65.8064C54.5161 68.2971 52.4906 70.3226 50 70.3226C47.5094 70.3226 45.4839 68.2971 45.4839 65.8064V63.6873ZM50 77.379L52.2863 79.094L50 82.0329L47.7137 79.094L50 77.379ZM53.6727 77.3113L51.9544 76.0219L53.5982 74.9256L55.2139 75.3298L53.6727 77.3113ZM50 72.5806C50.6503 72.5806 51.2781 72.4836 51.8742 72.3108L52.0989 73.2118L50 74.6106L47.9011 73.2118L48.1258 72.3108C48.7219 72.4836 49.3497 72.5806 50 72.5806ZM46.4029 74.9268L48.0468 76.0219L46.3284 77.3113L44.7873 75.3298L46.4029 74.9268ZM57.4144 76.1777C57.7903 76.4115 58.146 76.679 58.4621 76.9952C59.5584 78.0903 60.1613 79.5468 60.1613 81.0958V82.7419H52.3077L57.4144 76.1777ZM62.4194 81.0958C62.4194 79.5456 63.0223 78.0892 64.1185 76.994C64.4347 76.6779 64.7903 76.4103 65.1663 76.1766L70.2729 82.7419H62.4194V81.0958ZM70.4976 79.3548H74.6637L72.5806 82.0329L70.4976 79.3548ZM76.4205 77.0968H68.7419L67.3679 75.3298L67.4966 75.2971C69.0174 74.9177 70.2097 73.7819 70.6884 72.3052C71.289 72.4813 71.9224 72.5806 72.5806 72.5806C73.2389 72.5806 73.8734 72.4813 74.4752 72.3063C74.9527 73.7831 76.145 74.9177 77.6647 75.2982L77.7945 75.331L76.4205 77.0968ZM72.5806 70.3226C70.09 70.3226 68.0645 68.2971 68.0645 65.8064V63.6873C68.0645 62.1303 69.1202 60.7789 70.6308 60.4018L70.7234 60.3781C71.4652 61.1029 72.4327 61.6031 73.5155 61.7577L76.1269 62.1315C76.6802 62.2094 77.0968 62.6903 77.0968 63.2481V65.8064C77.0968 68.2971 75.0713 70.3226 72.5806 70.3226ZM81.6129 62.4194C81.6129 65.3661 81.4277 68.3468 81.0619 71.2766L80.7221 73.9919C80.1452 73.6848 79.5355 73.4376 78.8965 73.2773L78.2134 73.1068C77.4027 72.9035 76.7739 72.2747 76.5718 71.464L76.53 71.2992C78.2371 70.0686 79.3548 68.0679 79.3548 65.8064V63.2481C79.3548 61.5737 78.105 60.1319 76.4476 59.896L73.8361 59.5223C72.4756 59.3281 71.4516 58.1471 71.4516 56.7742V55.6452H69.1936V56.7742C69.1936 57.3398 69.2895 57.8885 69.4668 58.4023C67.2832 59.2197 65.8064 61.3095 65.8064 63.6873V65.8064C65.8064 68.0679 66.9242 70.0686 68.6324 71.3003L68.5918 71.4652C68.3885 72.2758 67.7597 72.9047 66.9479 73.1079L66.266 73.2784C65.6258 73.4387 65.0161 73.686 64.4392 73.9931L64.0994 71.2777C63.7335 68.3468 63.5484 65.3661 63.5484 62.4194C63.5484 57.4392 67.6005 53.3871 72.5806 53.3871C77.5608 53.3871 81.6129 57.4392 81.6129 62.4194ZM24.5335 40.4179C24.8102 39.0123 24.1926 37.5976 23.0331 36.8287L24.8102 32.5395C26.1695 32.8206 27.609 32.2573 28.4106 31.0616C29.2089 29.8682 29.1795 28.3215 28.3982 27.1676L31.6815 23.8844C32.8365 24.6656 34.3844 24.6927 35.5755 23.8956C36.7677 23.0997 37.3323 21.6613 37.0534 20.2952L41.3403 18.5192C42.1058 19.6798 43.5216 20.2952 44.9374 20.0174C46.3453 19.7397 47.4179 18.6265 47.6798 17.2581H52.319C52.581 18.6265 53.6558 19.7397 55.0716 20.0185C56.4773 20.2952 57.8885 19.6776 58.6563 18.5181L62.9455 20.294C62.6666 21.659 63.2323 23.0985 64.429 23.899C65.6213 24.6973 67.1669 24.6679 68.3185 23.8855L71.5984 27.1653C70.816 28.3181 70.7866 29.8648 71.5927 31.0695C72.3887 32.2573 73.8271 32.8218 75.1887 32.5384L76.9647 36.8253C75.8052 37.5897 75.1865 39.0032 75.4664 40.4213C75.7431 41.8281 76.8552 42.9006 78.2247 43.1637V44.8866L73.52 42.8284C72.1877 30.9713 62.0016 21.7742 50 21.7742C37.9984 21.7742 27.8123 30.9713 26.4789 42.8284L21.7742 44.8866V43.1626C23.1437 42.8984 24.2558 41.8247 24.5335 40.4179ZM37.5806 37.9713L28.8939 41.7716C30.6698 31.6815 39.5858 24.0323 50 24.0323C53.5418 24.0323 56.9063 24.9253 59.8802 26.489L37.5806 29.8344V37.9713ZM39.8387 31.7785L60.1613 28.7302V30.9634L39.8387 34.0118V31.7785ZM62.4194 28.0708C66.8858 31.2761 70.1137 36.1355 71.1061 41.7716L62.4194 37.9713V28.0708ZM21.7742 47.3513L37.5806 40.436V55.6452H39.8387V36.2947L60.1613 33.2463V55.6452H62.4194V40.436L78.2258 47.3513V52.6566C77.5168 52.2445 76.7637 51.9002 75.9677 51.6495V48.871H73.7097V51.1866C73.3382 51.1494 72.9623 51.129 72.5806 51.129C72.199 51.129 71.8231 51.1494 71.4516 51.1866V46.6129H69.1936V51.6495C68.3976 51.9002 67.6445 52.2445 66.9355 52.6566V44.3548H64.6774V54.3705C62.5898 56.4208 61.2903 59.2694 61.2903 62.4194C61.2903 65.4598 61.4823 68.5342 61.8594 71.5566L62.3618 75.5737C61.9486 76.0118 61.5918 76.4871 61.2903 76.994C60.9494 76.4205 60.5429 75.8808 60.0585 75.3976C59.0266 74.3645 57.7316 73.6318 56.3147 73.2784L54.3186 72.7794L53.9482 71.3003C55.2048 70.3948 56.1363 69.0716 56.5427 67.5327L57.1163 66.9863C58.2735 65.8844 59.1531 64.5002 59.6577 62.985C59.9919 61.9835 60.1613 60.9392 60.1613 59.8813V59.0323C60.1613 56.8848 59.2976 54.9373 57.9032 53.5124V46.6129H51.129V51.129H48.871V46.6129H42.0968V53.5124C40.7024 54.9384 39.8387 56.886 39.8387 59.0323V59.8813C39.8387 60.9392 40.0081 61.9835 40.3423 62.9827C40.8469 64.499 41.7264 65.8832 42.8826 66.984L43.4573 67.5316C43.8637 69.0694 44.7952 70.3926 46.0518 71.2992L45.6814 72.7782L43.6853 73.2773C42.2673 73.6306 40.9734 74.3645 39.9415 75.3965C39.4571 75.8808 39.0506 76.4194 38.7097 76.9929C38.3687 76.4194 37.9623 75.8797 37.4779 75.3965C36.446 74.3634 35.151 73.6306 33.734 73.2773L31.7379 72.7782L31.3676 71.2992C32.6242 70.3937 33.5556 69.0705 33.9621 67.5316L34.5356 66.9852C35.6929 65.8832 36.5724 64.499 37.0771 62.9839C37.4113 61.9835 37.5806 60.9392 37.5806 59.8813C37.5806 57.6323 36.7215 55.5865 35.3226 54.034V44.3548H33.0645V52.2276C32.3656 51.8392 31.6058 51.5479 30.8065 51.3627V46.6129H28.5484V51.129H26.2903V48.871H24.0323V51.129H22.5735C22.3003 51.129 22.0373 51.1697 21.7742 51.2103V47.3513ZM22.5735 53.3871H28.8284C32.4097 53.3871 35.3226 56.3011 35.3226 59.8813C35.3226 60.6953 35.1927 61.4992 34.9353 62.2692C34.7513 62.8213 34.4984 63.3485 34.1935 63.8419V63.5484C34.1935 61.681 32.6739 60.1613 30.8065 60.1613H27.4194C26.7961 60.1613 26.2903 59.6544 26.2903 59.0323C26.2903 58.4102 26.7961 57.9032 27.4194 57.9032H28.5484V55.6452H27.4194C25.7348 55.6452 24.3337 56.8815 24.0752 58.4937C23.3932 58.7839 22.796 59.2095 22.2902 59.721L21.2063 59.179C20.1631 58.6586 19.5161 57.6108 19.5161 56.4445C19.5161 54.7589 20.8879 53.3871 22.5735 53.3871ZM19.5161 61.8097C19.5161 61.4935 19.5748 61.1853 19.6753 60.8918C19.8435 61.0013 20.014 61.1074 20.1958 61.1989L21.0494 61.6256C20.7965 62.2703 20.6452 62.9624 20.6452 63.6873V64.079C19.9474 63.5518 19.5161 62.7208 19.5161 61.8097ZM22.9032 63.6873C22.9032 62.4815 23.5389 61.3965 24.5268 60.7935C25.1229 61.7679 26.1966 62.4194 27.4194 62.4194H30.8065C31.4297 62.4194 31.9355 62.9263 31.9355 63.5484V65.8064C31.9355 68.2971 29.91 70.3226 27.4194 70.3226C24.9287 70.3226 22.9032 68.2971 22.9032 65.8064V63.6873ZM27.4194 72.5806C28.0697 72.5806 28.6974 72.4836 29.2935 72.3108L29.5182 73.2118L27.4194 74.6106L25.3205 73.2118L25.5452 72.3108C26.1413 72.4836 26.769 72.5806 27.4194 72.5806ZM23.8223 74.9268L25.4661 76.0219L23.7466 77.3113L22.2055 75.3298L23.8223 74.9268ZM17.2581 81.0958C17.2581 79.5456 17.861 78.0892 18.9573 76.994C19.2734 76.6779 19.629 76.4103 20.005 76.1766L25.1116 82.7419H17.2581V81.0958ZM82.7419 82.7419H74.8884L79.995 76.1777C80.371 76.4115 80.7266 76.679 81.0427 76.9952C82.139 78.0903 82.7419 79.5468 82.7419 81.0958V82.7419Z" fill="#E31E24"/>
</svg>
