<svg width="70" height="70" viewBox="0 0 70 70" fill="none" xmlns="http://www.w3.org/2000/svg">
<path d="M47.4194 0H22.5806C10.1097 0 0 10.1097 0 22.5806V47.4194C0 59.8903 10.1097 70 22.5806 70H47.4194C59.8903 70 70 59.8903 70 47.4194V22.5806C70 10.1097 59.8903 0 47.4194 0Z" fill="#CFCFCF"/>
<path d="M35.0013 11.668C25.9713 11.668 18.668 18.9713 18.668 28.0013C18.668 40.2513 35.0013 58.3346 35.0013 58.3346C35.0013 58.3346 51.3346 40.2513 51.3346 28.0013C51.3346 18.9713 44.0313 11.668 35.0013 11.668ZM35.0013 33.8346C31.7813 33.8346 29.168 31.2213 29.168 28.0013C29.168 24.7813 31.7813 22.168 35.0013 22.168C38.2213 22.168 40.8346 24.7813 40.8346 28.0013C40.8346 31.2213 38.2213 33.8346 35.0013 33.8346Z" fill="#E31E24"/>
</svg>
