<svg width="70" height="70" viewBox="0 0 70 70" fill="none" xmlns="http://www.w3.org/2000/svg">
<path d="M47.4194 0H22.5806C10.1097 0 0 10.1097 0 22.5806V47.4194C0 59.8903 10.1097 70 22.5806 70H47.4194C59.8903 70 70 59.8903 70 47.4194V22.5806C70 10.1097 59.8903 0 47.4194 0Z" fill="#CFCFCF"/>
<path d="M21.05 33.3111C24.65 39.6 30.45 44.7333 37.525 47.9556L43.025 43.0667C43.7 42.4667 44.7 42.2667 45.575 42.5333C48.375 43.3556 51.4 43.8 54.5 43.8C55.875 43.8 57 44.8 57 46.0222V53.7778C57 55 55.875 56 54.5 56C31.025 56 12 39.0889 12 18.2222C12 17 13.125 16 14.5 16H23.25C24.625 16 25.75 17 25.75 18.2222C25.75 21 26.25 23.6667 27.175 26.1556C27.45 26.9333 27.25 27.8 26.55 28.4222L21.05 33.3111Z" fill="#E31E24"/>
</svg>
