<svg width="150" height="150" viewBox="0 0 150 150" fill="none" xmlns="http://www.w3.org/2000/svg">
<path d="M103.125 0H46.875C20.9867 0 0 20.9867 0 46.875V103.125C0 129.013 20.9867 150 46.875 150H103.125C129.013 150 150 129.013 150 103.125V46.875C150 20.9867 129.013 0 103.125 0Z" fill="#CFCFCF"/>
<path d="M50.3125 114.687C50.3125 118.995 53.8172 122.499 58.1249 122.499H111.25C115.557 122.499 119.062 118.995 119.062 114.687V36.5624C119.062 32.2547 115.557 28.75 111.25 28.75H58.1249C53.8172 28.75 50.3125 32.2547 50.3125 36.5624V88.1246H53.4375V36.5624C53.4375 33.9781 55.5406 31.875 58.1249 31.875H111.25C113.834 31.875 115.937 33.9781 115.937 36.5624V114.687C115.937 117.271 113.834 119.374 111.25 119.374H58.1249C55.5406 119.374 53.4375 117.271 53.4375 114.687V102.187H50.3125V114.687Z" fill="#E31E24"/>
<path d="M56.5625 108.437C56.5625 109.299 57.2625 109.999 58.125 109.999H111.25C112.112 109.999 112.812 109.299 112.812 108.437V36.5625C112.812 35.7 112.112 35 111.25 35H58.125C57.2625 35 56.5625 35.7 56.5625 36.5625V88.1246H59.6875V38.125H109.687V106.874H59.6875V102.187H56.5625V108.437Z" fill="#E31E24"/>
<path d="M76.875 113.125H92.4999V116.25H76.875V113.125Z" fill="#E31E24"/>
<path d="M30 55.3132V117.813C30 120.397 32.1031 122.5 34.6875 122.5C37.2718 122.5 39.3749 120.397 39.3749 117.813V45.9382C39.3749 45.696 39.3187 45.4554 39.2109 45.2398L36.0859 38.9898C35.5562 37.9305 33.8203 37.9305 33.2906 38.9898L30.1656 45.2398C30.0562 45.4554 30 45.696 30 45.9382V52.1882H33.125V46.307L34.6875 43.182L36.25 46.307V108.438H33.125V55.3132H30ZM36.25 111.563V117.813C36.25 118.674 35.5484 119.375 34.6875 119.375C33.8265 119.375 33.125 118.674 33.125 117.813V111.563H36.25Z" fill="#E31E24"/>
<path d="M36.25 28.75H34.6875C33.825 28.75 33.125 29.45 33.125 30.3125V31.875H36.25V28.75Z" fill="#E31E24"/>
<path d="M55.1765 99.0636V95.9387H53.4453C53.0875 95.9387 52.7328 95.9074 52.3906 95.8496L51.8672 98.9308C52.3797 99.0183 52.9094 99.0636 53.4422 99.0636H55.1765Z" fill="#E31E24"/>
<path d="M44.0625 82.3203H47.1875V85.375H44.0625V82.3203Z" fill="#E31E24"/>
<path d="M44.0625 39.5625H47.1875V42.6172H44.0625V39.5625Z" fill="#E31E24"/>
<path d="M42.9766 34.6086C43.4391 35.2883 43.7594 36.0383 43.9266 36.8398L46.9859 36.1992C46.7328 34.9945 46.2531 33.868 45.5578 32.8477L42.9766 34.6086Z" fill="#E31E24"/>
<path d="M44.0625 70.1016H47.1875V73.1562H44.0625V70.1016Z" fill="#E31E24"/>
<path d="M44.0625 51.7773H47.1875V54.832H44.0625V51.7773Z" fill="#E31E24"/>
<path d="M44.0625 45.668H47.1875V48.7226H44.0625V45.668Z" fill="#E31E24"/>
<path d="M44.0625 76.2109H47.1875V79.2656H44.0625V76.2109Z" fill="#E31E24"/>
<path d="M44.0625 63.9941H47.1875V67.0488H44.0625V63.9941Z" fill="#E31E24"/>
<path d="M44.0625 57.8867H47.1875V60.9414H44.0625V57.8867Z" fill="#E31E24"/>
<path d="M42.9695 30.2969C41.9398 29.6172 40.8039 29.1547 39.5945 28.9219L39.0039 31.989C39.807 32.1437 40.5633 32.4515 41.2476 32.9031L42.9695 30.2969Z" fill="#E31E24"/>
<path d="M58.2227 95.9375H61.2773V99.0625H58.2227V95.9375Z" fill="#E31E24"/>
<path d="M47.1875 88.4277H44.0625V89.6871C44.0625 90.4058 44.1437 91.123 44.3062 91.8183L47.35 91.1105C47.2422 90.648 47.1875 90.1683 47.1875 89.6871V88.4277Z" fill="#E31E24"/>
<path d="M48.4531 97.6312L50.1156 94.9859C49.4187 94.5484 48.8234 93.9875 48.3469 93.3203L45.8047 95.139C46.5203 96.1375 47.4109 96.9765 48.4531 97.6312Z" fill="#E31E24"/>
<path d="M106.562 49.0624V42.8125C106.562 41.95 105.862 41.25 105 41.25H98.75V44.375H103.437V49.0624H106.562Z" fill="#E31E24"/>
<path d="M62.8125 42.8125V49.0624H65.9375V44.375H70.6249V41.25H64.375C63.5125 41.25 62.8125 41.95 62.8125 42.8125Z" fill="#E31E24"/>
<path d="M70.625 50.625C69.7625 50.625 69.0625 51.325 69.0625 52.1875V55.3125H67.5C66.6375 55.3125 65.9375 56.0125 65.9375 56.875V67.8124C65.9375 68.6749 66.6375 69.3749 67.5 69.3749H73.7499H95.6248H101.875C102.737 69.3749 103.437 68.6749 103.437 67.8124V56.875C103.437 56.0125 102.737 55.3125 101.875 55.3125H100.312V52.1875C100.312 51.325 99.6123 50.625 98.7498 50.625H70.625ZM72.1875 66.2499H69.0625V58.4374H72.1875V66.2499ZM75.3124 63.1249H94.0623V66.2499H75.3124V63.1249ZM100.312 66.2499H97.1873V58.4374H100.312V66.2499ZM95.6248 55.3125C94.7623 55.3125 94.0623 56.0125 94.0623 56.875V59.9999H75.3124V56.875C75.3124 56.0125 74.6124 55.3125 73.7499 55.3125H72.1875V53.75H97.1873V55.3125H95.6248Z" fill="#E31E24"/>
<path d="M103.437 83.4374V77.1875C103.437 76.325 102.737 75.625 101.875 75.625H80C79.1375 75.625 78.4375 76.325 78.4375 77.1875V83.4374C78.4375 84.2999 79.1375 84.9999 80 84.9999H87.1656L83.5828 88.5827L85.7921 90.7921L90.9374 85.6468L96.0827 90.7921L98.292 88.5827L94.7093 84.9999H101.875C102.737 84.9999 103.437 84.2999 103.437 83.4374ZM100.312 81.875H81.5625V78.75H100.312V81.875Z" fill="#E31E24"/>
<path d="M57.4783 92.5643C57.4471 93.2236 57.8346 93.8315 58.4439 94.0815L64.1814 96.4486L65.7314 102.46C65.8954 103.099 66.4439 103.566 67.1001 103.625C67.1486 103.63 67.197 103.631 67.2454 103.631C67.847 103.631 68.4017 103.283 68.6611 102.73L75.1704 88.7846C75.4313 88.2252 75.3376 87.5643 74.9329 87.0987C74.5282 86.6331 73.886 86.4471 73.2954 86.6299L58.583 91.1424C57.9502 91.3377 57.5096 91.9065 57.4783 92.5643ZM70.8485 90.6502L67.6689 97.4627L67.0111 94.9127C66.8876 94.4361 66.5486 94.0455 66.0939 93.858L63.6595 92.8533L70.8485 90.6502Z" fill="#E31E24"/>
</svg>
