<svg width="150" height="150" viewBox="0 0 150 150" fill="none" xmlns="http://www.w3.org/2000/svg">
<path d="M101.613 0H48.3871C21.6636 0 0 21.6636 0 48.3871V101.613C0 128.336 21.6636 150 48.3871 150H101.613C128.336 150 150 128.336 150 101.613V48.3871C150 21.6636 128.336 0 101.613 0Z" fill="#CFCFCF"/>
<path d="M55.9688 100.08H58.9929V115.201H55.9688V100.08Z" fill="#E31E24" fill-opacity="0.9"/>
<path d="M62.0117 100.08H65.0359V115.201H62.0117V100.08Z" fill="#E31E24" fill-opacity="0.9"/>
<path d="M68.0625 100.08H71.0867V115.201H68.0625V100.08Z" fill="#E31E24" fill-opacity="0.9"/>
<path d="M119.476 60.7661V54.7177H116.452V46.5312L110.403 40.4829V33.5484H107.379V40.4829L101.331 46.5312V54.7177H98.3064V60.7661H95.2823V84.9597H89.2339V94.0323H86.2097V52.6613C86.2097 50.7954 84.9183 49.2379 83.1855 48.8024V33.5484H80.1613V27.5H77.1371V33.5484H74.1129V30.5242H71.0887V33.5484H68.0645V51.379C66.3044 51.8221 65.0403 53.4083 65.0403 55.2394V76.7641L62.0161 77.3689V49.1457C62.0161 47.2616 60.7308 45.6588 58.8921 45.249L34.1996 39.7571L32.9083 39.6058L32.7419 39.5968C30.5403 39.5968 28.75 41.3871 28.75 43.5887V121.25H122.5V60.7661H119.476ZM111.289 45.6452H106.493L108.891 43.247L111.289 45.6452ZM104.355 48.6694H113.427V54.7177H104.355V48.6694ZM101.331 57.7419H116.452V60.7661H101.331V57.7419ZM92.2581 97.0564V87.9839H107.379V106.129H86.2097V97.0564H92.2581ZM104.355 118.226H101.331V115.202H104.355V118.226ZM98.3064 112.177V118.226H95.2823V112.177H86.2097V118.226H83.1855V109.153H110.403V118.226H107.379V112.177H98.3064ZM92.2581 118.226H89.2339V115.202H92.2581V118.226ZM80.1613 48.9415L71.0887 50.756V42.621H80.1613V48.9415ZM80.1613 36.5726V39.5968H71.0887V36.5726H80.1613ZM68.0645 55.2379C68.0645 54.7782 68.3911 54.379 68.8417 54.2898L81.7263 51.7132C81.7898 51.6996 81.8548 51.6935 81.9199 51.6935H82.2193C82.753 51.6935 83.187 52.1275 83.187 52.6613V94.0323V95.5444V106.129H80.1628V118.226H77.1386V87.9839H74.1144V80.1512C74.1144 77.7999 72.2016 75.8871 69.8503 75.8871C69.5706 75.8871 69.2908 75.9143 69.0141 75.9703L68.0645 76.1593V55.2379ZM71.0887 87.9839H55.9677V82.6794C55.9677 82.0912 56.3866 81.5786 56.9642 81.4637L69.6038 78.9355C70.3599 78.7843 71.0887 79.3861 71.0887 80.1512V87.9839ZM74.1129 91.0081V94.0323H52.9435V91.0081H74.1129ZM52.9435 97.0564H74.1129V118.226H52.9435V97.0564ZM56.3715 78.4985C54.3861 78.8947 52.9435 80.6532 52.9435 82.6794V87.9839H49.9194V118.226H46.8952V56.9375C50.3185 59.1179 54.3256 61.3301 58.9919 63.4592V77.9738L56.3715 78.4985ZM58.9919 49.1457V60.125C45.8427 53.9224 38.3957 47.1331 34.7077 42.9687L58.2344 48.2021C58.6804 48.3004 58.9919 48.689 58.9919 49.1457ZM31.7742 115.202H40.8468V112.177H31.7742V109.153H40.8468V106.129H31.7742V103.105H40.8468V100.081H31.7742V97.0564H40.8468V94.0323H31.7742V91.0081H40.8468V87.9839H31.7742V84.9597H40.8468V81.9355H31.7742V78.9113H40.8468V75.8871H31.7742V72.8629H40.8468V69.8387H31.7742V66.8145H40.8468V63.7903H31.7742V60.7661H40.8468V57.7419H31.7742V44.1966C34.0151 46.8427 37.8725 50.7319 43.871 54.9249V118.226H31.7742V115.202ZM119.476 118.226H113.427V106.129H110.403V84.9597H98.3064V63.7903H119.476V118.226Z" fill="#E31E24" fill-opacity="0.9"/>
<path d="M89.2344 100.08H92.2586V103.104H89.2344V100.08Z" fill="#E31E24" fill-opacity="0.9"/>
<path d="M95.2812 91.0078H98.3054V103.105H95.2812V91.0078Z" fill="#E31E24" fill-opacity="0.9"/>
<path d="M101.332 91.0078H104.356V103.105H101.332V91.0078Z" fill="#E31E24" fill-opacity="0.9"/>
<path d="M101.332 66.8145H104.356V81.9354H101.332V66.8145Z" fill="#E31E24" fill-opacity="0.9"/>
<path d="M107.379 66.8145H110.403V81.9354H107.379V66.8145Z" fill="#E31E24" fill-opacity="0.9"/>
<path d="M113.43 66.8145H116.454V103.105H113.43V66.8145Z" fill="#E31E24" fill-opacity="0.9"/>
<path d="M71.0898 56.2305H80.1624V59.2547H71.0898V56.2305Z" fill="#E31E24" fill-opacity="0.9"/>
<path d="M71.0898 62.2773H80.1624V65.3015H71.0898V62.2773Z" fill="#E31E24" fill-opacity="0.9"/>
<path d="M71.0898 68.3281H80.1624V71.3523H71.0898V68.3281Z" fill="#E31E24" fill-opacity="0.9"/>
</svg>
