<svg width="150" height="150" viewBox="0 0 150 150" fill="none" xmlns="http://www.w3.org/2000/svg">
<path d="M103.125 0H46.875C20.9867 0 0 20.9867 0 46.875V103.125C0 129.013 20.9867 150 46.875 150H103.125C129.013 150 150 129.013 150 103.125V46.875C150 20.9867 129.013 0 103.125 0Z" fill="#CFCFCF"/>
<path d="M121.124 40.7094H99.0169V30.2519H102.753L100.813 34.1314C100.363 35.0308 101.04 36.1226 102.044 36.1226H113.786C114.789 36.1226 115.466 35.0306 115.016 34.1314L112.081 28.2606C111.848 27.7944 111.371 27.5 110.85 27.5H97.6408C96.8807 27.5 96.2648 28.1162 96.2648 28.876V40.7094H77.0011V36.1228H81.496C82.4996 36.1228 83.1767 35.0308 82.7267 34.1315L79.7911 28.2606C79.5582 27.7944 79.0818 27.5 78.5605 27.5H72.6895C72.1682 27.5 71.6918 27.7944 71.4589 28.2606L68.5235 34.1315C68.0734 35.031 68.7506 36.1228 69.7542 36.1228H74.2491V40.7094H54.9854V28.876C54.9854 28.1162 54.3694 27.5 53.6094 27.5H40.3999C39.8786 27.5 39.4022 27.7944 39.1693 28.2606L36.2339 34.1315C35.7838 35.031 36.461 36.1228 37.4646 36.1228H49.2062C50.2098 36.1228 50.8869 35.0308 50.4369 34.1315L48.497 30.2521H52.2333V40.7096H30.126C29.366 40.7094 28.75 41.3254 28.75 42.0855V93.4554C28.75 94.2153 29.366 94.8315 30.126 94.8315H65.9685L69.8459 102.587V118.498H69.0203C68.2602 118.498 67.6442 119.115 67.6442 119.875C67.6442 120.634 68.2602 121.251 69.0203 121.251H82.9636C83.7237 121.251 84.3396 120.634 84.3396 119.875C84.3396 119.115 83.7237 118.498 82.9636 118.498H81.4041V102.587L85.2815 94.8315H121.124C121.884 94.8315 122.5 94.2153 122.5 93.4554V42.0855C122.5 41.3254 121.884 40.7094 121.124 40.7094ZM105.83 30.2519H110L111.559 33.3707H104.27L105.83 30.2519ZM39.6911 33.3709L41.2506 30.2521H45.4205L46.9798 33.3709H39.6911ZM71.9807 33.3709L73.5402 30.2521H77.7101L79.2696 33.3709H71.9807ZM78.7976 101.646C78.702 101.837 78.6522 102.048 78.6522 102.262V118.498H72.5978V102.262C72.5978 102.048 72.548 101.837 72.4524 101.646L69.0452 94.8313H82.2048L78.7976 101.646ZM119.748 92.0794H31.5019V43.4613H119.748V92.0794H119.748Z" fill="#E31E24"/>
<path d="M103.512 50.9844H93.2382C92.4781 50.9844 91.8621 51.6005 91.8621 52.3604C91.8621 53.1203 92.4781 53.7365 93.2382 53.7365H102.136V68.5971H49.1152V53.7365H86.5726C87.3327 53.7365 87.9486 53.1203 87.9486 52.3604C87.9486 51.6005 87.3327 50.9844 86.5726 50.9844H47.7393C46.9792 50.9844 46.3633 51.6005 46.3633 52.3604V69.973C46.3633 70.7329 46.9792 71.349 47.7393 71.349H103.512C104.273 71.349 104.888 70.7329 104.888 69.973V52.3604C104.888 51.6005 104.273 50.9844 103.512 50.9844Z" fill="#E31E24"/>
<path d="M77.0936 74.4688H47.7393C46.9792 74.4688 46.3633 75.0849 46.3633 75.8448C46.3633 76.6047 46.9792 77.2208 47.7393 77.2208H77.0936C77.8536 77.2208 78.4696 76.6047 78.4696 75.8448C78.4694 75.0849 77.8536 74.4688 77.0936 74.4688Z" fill="#E31E24"/>
<path d="M103.506 74.4688H82.9581C82.198 74.4688 81.582 75.0849 81.582 75.8448C81.582 76.6047 82.198 77.2208 82.9581 77.2208H103.506C104.266 77.2208 104.882 76.6047 104.882 75.8448C104.882 75.0849 104.266 74.4688 103.506 74.4688Z" fill="#E31E24"/>
<path d="M60.9488 80.3359H47.7393C46.9793 80.3359 46.3633 80.9521 46.3633 81.712C46.3633 82.4719 46.9793 83.088 47.7393 83.088H60.9488C61.7088 83.088 62.3248 82.4719 62.3248 81.712C62.3248 80.9519 61.709 80.3359 60.9488 80.3359Z" fill="#E31E24"/>
<path d="M82.9662 80.3398H66.8214C66.0613 80.3398 65.4453 80.956 65.4453 81.7159C65.4453 82.4758 66.0613 83.0919 66.8214 83.0919H82.9662C83.7262 83.0919 84.3422 82.4758 84.3422 81.7159C84.3422 80.9558 83.7262 80.3398 82.9662 80.3398Z" fill="#E31E24"/>
<path d="M103.509 80.3398H90.2081C89.448 80.3398 88.832 80.956 88.832 81.7159C88.832 82.4758 89.448 83.0919 90.2081 83.0919H103.509C104.269 83.0919 104.885 82.4758 104.885 81.7159C104.885 80.9558 104.269 80.3398 103.509 80.3398Z" fill="#E31E24"/>
</svg>
