<svg width="177" height="68" viewBox="0 0 177 68" fill="none" xmlns="http://www.w3.org/2000/svg">
<path fill-rule="evenodd" clip-rule="evenodd" d="M0 0H176.098V67.9553H0V0Z" fill="#E31E24"/>
<path d="M19.1778 50.3072L10.6484 27.9687H16.988L21.8577 41.8778L26.0774 27.9687H31.837L24.2775 51.9171C23.2976 55.0468 22.2476 57.1467 21.1377 58.2266C20.0278 59.2965 18.4779 59.8365 16.508 59.8365H13.8782V53.9269H16.508C16.928 53.9269 17.348 53.7769 17.7579 53.477C18.1879 53.167 18.6579 52.107 19.1778 50.3072ZM33.5169 27.9687H39.7264V41.2478L46.606 27.9687H52.8755L45.796 39.6879L53.4755 59.8365H47.0559L42.0863 45.1475L39.7264 49.0073V59.8365H33.5169V27.9687ZM55.9053 27.9687H64.0447C66.5146 27.9687 68.4344 28.1987 69.7843 28.6687C71.1543 29.1286 72.2942 30.1886 73.2141 31.8284C74.144 33.4683 74.604 35.5082 74.604 37.938C74.604 40.2679 74.234 42.1977 73.4841 43.7276C72.7441 45.2475 71.7142 46.3474 70.3843 47.0274C69.0744 47.7074 67.0445 48.0373 64.3047 48.0373H62.1149V59.8365H55.9053V27.9687ZM62.1149 33.1184V42.5577H64.0447C65.7446 42.5577 66.8346 42.1077 67.3245 41.2278C67.8145 40.3379 68.0645 39.1879 68.0645 37.768C68.0645 36.5681 67.8745 35.5982 67.4945 34.8682C67.1045 34.1283 66.6746 33.6483 66.1646 33.4383C65.6546 33.2284 64.9547 33.1184 64.0447 33.1184H62.1149ZM77.5838 27.9687H83.8034V40.8278H90.5929V27.9687H96.8125V59.8365H90.5929V46.8074H83.8034V59.8365H77.5838V27.9687ZM102.152 27.9687H119.351V33.4283H108.372V40.8278H116.901V46.3174H108.372V54.1369H119.351V59.8365H102.152V27.9687ZM141.899 43.8876C141.899 54.8469 138.48 60.3265 131.65 60.3265C128.25 60.3265 125.69 58.9266 123.961 56.1368C122.231 53.337 121.371 49.2572 121.371 43.8876C121.371 32.9484 124.791 27.4688 131.63 27.4688C134.97 27.4688 137.52 28.8387 139.27 31.5785C141.019 34.3283 141.899 38.418 141.899 43.8876ZM135.35 43.8876C135.35 39.5879 135.06 36.7281 134.46 35.3082C133.87 33.8883 132.92 33.1684 131.63 33.1684C130.34 33.1684 129.4 33.8883 128.81 35.3182C128.21 36.7581 127.92 39.6079 127.92 43.8876C127.92 48.0873 128.21 50.9271 128.8 52.407C129.39 53.8869 130.33 54.6269 131.63 54.6269C132.91 54.6269 133.86 53.9169 134.45 52.497C135.05 51.0871 135.35 48.2173 135.35 43.8876ZM146.229 27.9687H152.439V40.8278H159.238V27.9687H165.448V59.8365H159.238V46.8074H152.439V59.8365H146.229V27.9687Z" fill="#FEFEFE"/>
<path d="M11.3711 16.3192H16.5007V23.8287H14.8409V17.7291H13.031V23.8287H11.3711V16.3192ZM18.0906 16.3192H20.2605C20.9204 16.3192 21.4304 16.3792 21.8004 16.4892C22.1603 16.5892 22.4603 16.8392 22.7103 17.2291C22.9603 17.6191 23.0803 18.0991 23.0803 18.669C23.0803 19.219 22.9803 19.669 22.7803 20.029C22.5803 20.3889 22.3103 20.6489 21.9604 20.8089C21.6004 20.9689 21.0604 21.0489 20.3305 21.0489H19.7505V23.8287H18.0906V16.3192ZM19.7505 17.5391V19.759H20.2605C20.7204 19.759 21.0104 19.649 21.1404 19.439C21.2704 19.239 21.3404 18.959 21.3404 18.6291C21.3404 18.3491 21.2804 18.1191 21.1804 17.9491C21.0804 17.7691 20.9604 17.6591 20.8304 17.6091C20.6904 17.5591 20.5105 17.5391 20.2605 17.5391H19.7505ZM29.2499 20.069C29.2499 22.6488 28.3299 23.9387 26.51 23.9387C25.6101 23.9387 24.9202 23.6087 24.4602 22.9588C24.0002 22.2988 23.7702 21.3389 23.7702 20.069C23.7702 17.4891 24.6802 16.1992 26.51 16.1992C27.4 16.1992 28.0799 16.5292 28.5399 17.1692C29.0099 17.8191 29.2499 18.779 29.2499 20.069ZM27.5 20.069C27.5 19.059 27.42 18.3891 27.26 18.0491C27.1 17.7191 26.85 17.5491 26.51 17.5491C26.1601 17.5491 25.9101 17.7191 25.7501 18.0491C25.6001 18.3891 25.5201 19.059 25.5201 20.069C25.5201 21.0589 25.6001 21.7288 25.7501 22.0788C25.9101 22.4288 26.1601 22.5988 26.51 22.5988C26.85 22.5988 27.1 22.4388 27.26 22.0988C27.42 21.7688 27.5 21.0889 27.5 20.069ZM32.2297 23.0587V23.8287H30.5698V16.3192H32.2297V20.5289L32.4696 20.079L34.1595 17.1492V16.3192H35.8094V23.8287H34.1595V19.939V19.639L33.8995 20.1389L32.2297 23.0587ZM38.4692 18.5991L37.0293 18.3291C37.2393 17.4591 37.5493 16.8892 37.9793 16.6192C38.3992 16.3392 38.9392 16.1992 39.5691 16.1992C40.2591 16.1992 40.7991 16.3792 41.199 16.7292C41.599 17.0792 41.799 17.5791 41.799 18.2291C41.799 19.009 41.429 19.569 40.6791 19.889C41.529 20.1389 41.949 20.7389 41.949 21.6888C41.949 22.3888 41.729 22.9488 41.279 23.3487C40.8291 23.7487 40.1691 23.9487 39.2792 23.9487C38.4092 23.9487 37.8293 23.7187 37.5193 23.2687C37.1993 22.8188 36.9693 22.2288 36.8193 21.4889L38.2892 21.2489C38.3992 21.8588 38.5392 22.2388 38.7092 22.3788C38.8792 22.5288 39.0892 22.5988 39.3492 22.5988C39.6491 22.5988 39.8691 22.5088 40.0191 22.3188C40.1691 22.1288 40.2391 21.8788 40.2391 21.5788C40.2391 20.8889 39.8591 20.5389 39.0792 20.5389H38.8292V19.329H39.0792C39.3292 19.329 39.5191 19.309 39.6591 19.259C39.7991 19.219 39.9091 19.119 40.0091 18.979C40.1091 18.829 40.1491 18.6391 40.1491 18.3891C40.1491 17.7891 39.8991 17.4791 39.3792 17.4791C39.1992 17.4791 39.0292 17.5291 38.8592 17.6291C38.6892 17.7291 38.5592 18.0591 38.4692 18.5991ZM43.1689 16.3192H45.7487C46.3487 16.3192 46.7986 16.3692 47.1086 16.4592C47.4186 16.5592 47.6786 16.7692 47.8886 17.0892C48.0886 17.4091 48.1985 17.8191 48.1985 18.2991C48.1985 19.129 47.8386 19.669 47.1186 19.909C47.9786 20.2089 48.3985 20.8289 48.3985 21.7488C48.3985 22.2388 48.2885 22.6488 48.0486 22.9887C47.8186 23.3187 47.5386 23.5487 47.1986 23.6587C46.8586 23.7687 46.3687 23.8287 45.7487 23.8287H43.1689V16.3192ZM44.7588 19.349H45.2987C45.8287 19.349 46.1687 19.249 46.3087 19.069C46.4387 18.869 46.5087 18.659 46.5087 18.4091C46.5087 18.1791 46.4387 17.9791 46.3087 17.7991C46.1687 17.6291 45.8687 17.5391 45.4187 17.5391H44.7588V19.349ZM44.7588 22.5388H45.5687C46.3387 22.5388 46.7187 22.2088 46.7187 21.5588C46.7187 21.1889 46.6187 20.9389 46.4287 20.7889C46.2387 20.6389 45.9587 20.5689 45.5687 20.5689H44.7588V22.5388ZM54.8981 20.069C54.8981 22.6488 53.9881 23.9387 52.1683 23.9387C51.2583 23.9387 50.5784 23.6087 50.1184 22.9588C49.6584 22.2988 49.4285 21.3389 49.4285 20.069C49.4285 17.4891 50.3384 16.1992 52.1583 16.1992C53.0482 16.1992 53.7282 16.5292 54.1981 17.1692C54.6681 17.8191 54.8981 18.779 54.8981 20.069ZM53.1482 20.069C53.1482 19.059 53.0782 18.3891 52.9182 18.0491C52.7582 17.7191 52.5083 17.5491 52.1583 17.5491C51.8183 17.5491 51.5683 17.7191 51.4083 18.0491C51.2483 18.3891 51.1683 19.059 51.1683 20.069C51.1683 21.0589 51.2483 21.7288 51.4083 22.0788C51.5583 22.4288 51.8083 22.5988 52.1583 22.5988C52.4982 22.5988 52.7582 22.4388 52.9082 22.0988C53.0682 21.7688 53.1482 21.0889 53.1482 20.069ZM55.918 22.4588L57.5579 16.3192H59.6878L61.1677 22.4588H61.6376V25.3486H60.4177L60.2677 23.8287H56.808L56.668 25.3486H55.438V22.4588H55.918ZM57.4279 22.4588H59.4878L58.5878 17.9091H58.3778L57.4279 22.4588ZM66.0173 21.0889L67.5472 21.1889C67.4872 21.9988 67.2272 22.6588 66.7673 23.1787C66.3073 23.6887 65.6873 23.9387 64.9274 23.9387C63.9975 23.9387 63.2875 23.5987 62.8075 22.9188C62.3176 22.2288 62.0776 21.2789 62.0776 20.079C62.0776 18.869 62.3176 17.9191 62.7975 17.2291C63.2875 16.5492 63.9975 16.1992 64.9474 16.1992C66.5173 16.1992 67.3772 17.1692 67.5172 19.109L66.0073 19.219C65.9673 18.0991 65.6173 17.5491 64.9574 17.5491C64.6074 17.5491 64.3374 17.7291 64.1274 18.0891C63.9275 18.4491 63.8175 19.139 63.8175 20.1789C63.8175 21.0989 63.9175 21.7288 64.1074 22.0788C64.2874 22.4288 64.5774 22.5988 64.9474 22.5988C65.5573 22.5988 65.9073 22.0988 66.0173 21.0889ZM68.0272 16.3192H72.7269V17.7291H71.177V23.8287H69.5271V17.7291H68.0272V16.3192ZM73.4668 16.3192H76.0366C76.6466 16.3192 77.0965 16.3692 77.4065 16.4592C77.7165 16.5592 77.9665 16.7692 78.1765 17.0892C78.3865 17.4091 78.4965 17.8191 78.4965 18.2991C78.4965 19.129 78.1365 19.669 77.4165 19.909C78.2665 20.2089 78.6964 20.8289 78.6964 21.7488C78.6964 22.2388 78.5764 22.6488 78.3465 22.9887C78.1165 23.3187 77.8265 23.5487 77.4865 23.6587C77.1465 23.7687 76.6666 23.8287 76.0366 23.8287H73.4668V16.3192ZM75.0567 19.349H75.5967C76.1266 19.349 76.4566 19.249 76.5966 19.069C76.7366 18.869 76.8066 18.659 76.8066 18.4091C76.8066 18.1791 76.7366 17.9791 76.5966 17.7991C76.4566 17.6291 76.1666 17.5391 75.7166 17.5391H75.0567V19.349ZM75.0567 22.5388H75.8666C76.6266 22.5388 77.0166 22.2088 77.0166 21.5588C77.0166 21.1889 76.9166 20.9389 76.7266 20.7889C76.5366 20.6389 76.2466 20.5689 75.8666 20.5689H75.0567V22.5388ZM79.9864 16.3192H84.576V17.6091H81.6462V19.349H83.9261V20.6389H81.6462V22.4888H84.576V23.8287H79.9864V16.3192ZM85.556 16.3192H87.2159V19.349H89.0257V16.3192H90.6756V23.8287H89.0257V20.7589H87.2159V23.8287H85.556V16.3192ZM92.2755 16.3192H93.9254V19.349H95.7453V16.3192H97.3951V23.8287H95.7453V20.7589H93.9254V23.8287H92.2755V16.3192ZM100.325 16.3192H101.995L104.145 23.8287H102.445L102.075 22.2788H99.955L99.585 23.8287H98.0551L100.325 16.3192ZM101.755 20.9889L101.005 17.9291L100.265 20.9889H101.755ZM109.684 23.8287H108.024V20.8589H107.194L106.195 23.8287H104.385L105.775 20.5389C105.065 20.1589 104.715 19.499 104.715 18.5591C104.715 18.1591 104.785 17.8091 104.925 17.4791C105.065 17.1592 105.265 16.9092 105.515 16.7192C105.765 16.5392 106.005 16.4292 106.255 16.3792C106.505 16.3392 106.854 16.3192 107.314 16.3192H109.684V23.8287ZM107.364 17.5391C107.114 17.5391 106.924 17.5691 106.804 17.6191C106.675 17.6791 106.565 17.7891 106.465 17.9491C106.375 18.1091 106.325 18.3091 106.325 18.5591C106.325 19.279 106.645 19.639 107.294 19.639H108.024V17.5391H107.364ZM113.384 16.3192H115.044V19.449L116.874 16.3192H118.544L116.664 19.079L118.704 23.8287H116.994L115.674 20.3689L115.044 21.2789V23.8287H113.384V16.3192ZM124.503 20.069C124.503 22.6488 123.583 23.9387 121.763 23.9387C120.864 23.9387 120.174 23.6087 119.714 22.9588C119.254 22.2988 119.024 21.3389 119.024 20.069C119.024 17.4891 119.934 16.1992 121.763 16.1992C122.653 16.1992 123.333 16.5292 123.793 17.1692C124.263 17.8191 124.503 18.779 124.503 20.069ZM122.753 20.069C122.753 19.059 122.673 18.3891 122.513 18.0491C122.353 17.7191 122.103 17.5491 121.763 17.5491C121.413 17.5491 121.164 17.7191 121.004 18.0491C120.854 18.3891 120.774 19.059 120.774 20.069C120.774 21.0589 120.854 21.7288 121.004 22.0788C121.164 22.4288 121.413 22.5988 121.763 22.5988C122.103 22.5988 122.353 22.4388 122.513 22.0988C122.673 21.7688 122.753 21.0889 122.753 20.069ZM125.823 16.3192H128.253L129.313 20.9589L130.513 16.3192H132.873V23.8287H131.323V17.5391L129.783 23.8287H128.573L127.173 17.5391V23.8287H125.823V16.3192ZM134.463 16.3192H139.592V23.8287H137.932V17.7291H136.122V23.8287H134.463V16.3192ZM142.512 16.3192H144.182L146.342 23.8287H144.642L144.272 22.2788H142.152L141.772 23.8287H140.252L142.512 16.3192ZM143.952 20.9889L143.192 17.9291L142.462 20.9889H143.952ZM147.132 16.3192H148.792V19.349H150.601V16.3192H152.261V23.8287H150.601V20.7589H148.792V23.8287H147.132V16.3192ZM155.511 23.0587V23.8287H153.851V16.3192H155.511V20.5289L155.761 20.079L157.441 17.1492V16.3192H159.101V23.8287H157.441V19.939L157.451 19.639L157.181 20.1389L155.511 23.0587ZM165.43 23.8287H163.781V20.8589H162.951L161.941 23.8287H160.141L161.521 20.5389C160.811 20.1589 160.461 19.499 160.461 18.5591C160.461 18.1591 160.531 17.8091 160.681 17.4791C160.821 17.1592 161.011 16.9092 161.261 16.7192C161.511 16.5392 161.761 16.4292 162.011 16.3792C162.251 16.3392 162.601 16.3192 163.061 16.3192H165.43V23.8287ZM163.111 17.5391C162.871 17.5391 162.681 17.5691 162.551 17.6191C162.421 17.6791 162.311 17.7891 162.221 17.9491C162.121 18.1091 162.071 18.3091 162.071 18.5591C162.071 19.279 162.401 19.639 163.051 19.639H163.781V17.5391H163.111Z" fill="#FEFEFE"/>
</svg>
