<svg width="74" height="72" viewBox="0 0 74 72" fill="none" xmlns="http://www.w3.org/2000/svg">
<g clip-path="url(#clip0)">
<path d="M50.4105 49.3535H23.5117V52.3428H50.4105V49.3535Z" fill="black"/>
<path d="M38.4835 52.3438V67.9712H35.4414V52.3438" fill="black"/>
<path d="M12.4282 28.0078H7.14453V67.9696H12.4282V28.0078Z" fill="black"/>
<path d="M23.8754 28.0059L12.4258 39.2566V33.5833L18.1018 28.0059" fill="black"/>
<path d="M66.7876 28.0078H61.5039V67.9696H66.7876V28.0078Z" fill="black"/>
<path d="M12.4282 28.0078H7.14453V33.0959H12.4282V28.0078Z" fill="black"/>
<path d="M66.7915 28.0059H61.5078V33.094H66.7915V28.0059Z" fill="black"/>
<path d="M61.5043 39.2566L50.0547 28.0059H55.8283L61.5043 33.5833" fill="black"/>
<path d="M1.57422 28.0081L36.9645 3.88477L72.3549 28.0081H1.57422Z" fill="black"/>
<path d="M72.9022 27.2313L37.5118 3.10794C37.1825 2.88329 36.746 2.88329 36.4166 3.10794L1.02643 27.2313C0.681237 27.4665 0.531714 27.8949 0.657239 28.2889C0.782622 28.6828 1.15409 28.951 1.57397 28.951H6.18219V67.0248H2.62049C2.08985 67.0248 1.65988 67.4476 1.65988 67.9687C1.65988 68.4898 2.08999 68.9126 2.62049 68.9126H71.3082C71.8388 68.9126 72.2688 68.4898 72.2688 67.9687C72.2688 67.4476 71.8387 67.0248 71.3082 67.0248H67.7465V28.9508H72.3547C72.7749 28.9508 73.1462 28.6828 73.2714 28.2888C73.3969 27.8949 73.2474 27.4667 72.9022 27.2313ZM8.10341 67.0246V28.9508H11.4658V67.0246H8.10341ZM29.9272 14.4246H44.0013L48.5022 17.4926H25.4265L29.9272 14.4246ZM32.6968 12.5367L36.9641 9.62789L41.2314 12.5367H32.6968ZM22.6567 19.3805H51.2719L55.7727 22.4485H18.1558L22.6567 19.3805ZM15.386 24.3364H58.5425L62.5426 27.063H11.3861L15.386 24.3364ZM24.4756 51.3972V50.2958H49.453V51.3972H24.4756ZM50.4136 53.285C50.9441 53.285 51.3742 52.8622 51.3742 52.3411V49.3518C51.3742 48.8305 50.944 48.4079 50.4136 48.4079H23.515C22.9845 48.4079 22.5544 48.8306 22.5544 49.3518V52.3411C22.5544 52.8624 22.9847 53.285 23.515 53.285H34.4827V67.0246H13.3871V39.6486L24.2739 28.9508H49.6547L60.5414 39.6486V67.0246H39.4461V53.285H50.4136ZM15.7832 28.9508L13.3871 31.3053V28.9508H15.7832ZM13.3871 33.9752L18.5003 28.9508H21.5568L13.3871 36.9787V33.9752ZM55.4284 28.9508L60.5415 33.9752V36.9787L52.3719 28.9508H55.4284ZM60.5415 31.3053L58.1455 28.9508H60.5415V31.3053ZM36.4039 67.0246V53.285H37.5247V67.0246H36.4039ZM65.8252 67.0246H62.4629V28.9508H65.8252V67.0246ZM65.9134 27.0629L37.5118 7.70335C37.1825 7.47871 36.746 7.47871 36.4166 7.70335L8.01509 27.0629H4.64423L36.9643 5.03247L69.2843 27.0629H65.9134Z" fill="white"/>
</g>
<defs>
<clipPath id="clip0">
<rect width="72.7022" height="71.4392" fill="white" transform="translate(0.613281 0.207031)"/>
</clipPath>
</defs>
</svg>
