<svg width="72" height="73" viewBox="0 0 72 73" fill="none" xmlns="http://www.w3.org/2000/svg">
<path d="M64.125 17.2266C63.8266 17.2266 63.5405 17.3451 63.3295 17.5561C63.1185 17.767 63 18.0532 63 18.3516V67.5017C63 67.8001 63.1185 68.0862 63.3295 68.2972C63.5405 68.5082 63.8266 68.6267 64.125 68.6267C64.4234 68.6267 64.7095 68.5082 64.9205 68.2972C65.1315 68.0862 65.25 67.8001 65.25 67.5017V18.3516C65.25 18.0532 65.1315 17.767 64.9205 17.5561C64.7095 17.3451 64.4234 17.2266 64.125 17.2266Z" fill="white"/>
<path d="M68.8162 7.89382L36.1912 2.26883C36.0647 2.24633 35.9353 2.24633 35.8088 2.26883L3.18375 7.89382C2.92249 7.9389 2.68554 8.07479 2.5147 8.27753C2.34386 8.48027 2.25012 8.73683 2.25 9.00195V14.627C2.25 14.9253 2.36853 15.2115 2.5795 15.4224C2.79048 15.6334 3.07663 15.752 3.375 15.752C3.43912 15.7519 3.50312 15.7463 3.56625 15.7351L6.75 15.1895V67.5019C6.75 67.8003 6.86853 68.0865 7.0795 68.2974C7.29048 68.5084 7.57663 68.6269 7.875 68.6269C8.17337 68.6269 8.45952 68.5084 8.6705 68.2974C8.88147 68.0865 9 67.8003 9 67.5019V39.3769H59.625C59.9234 39.3769 60.2095 39.2584 60.4205 39.0474C60.6315 38.8365 60.75 38.5503 60.75 38.2519V18.002C60.75 17.7036 60.6315 17.4174 60.4205 17.2065C60.2095 16.9955 59.9234 16.877 59.625 16.877H46.125C45.8266 16.877 45.5405 16.9955 45.3295 17.2065C45.1185 17.4174 45 17.7036 45 18.002V33.752C45 34.0503 45.1185 34.3365 45.3295 34.5474C45.5405 34.7584 45.8266 34.8769 46.125 34.8769C46.4234 34.8769 46.7095 34.7584 46.9205 34.5474C47.1315 34.3365 47.25 34.0503 47.25 33.752V19.1269H51.75V27.002H50.625C50.3266 27.002 50.0405 27.1205 49.8295 27.3315C49.6185 27.5424 49.5 27.8286 49.5 28.127C49.5 28.4253 49.6185 28.7115 49.8295 28.9224C50.0405 29.1334 50.3266 29.252 50.625 29.252H51.75V37.1269H39.375V27.002C39.375 26.7036 39.2565 26.4174 39.0455 26.2065C38.8345 25.9955 38.5484 25.877 38.25 25.877H27C27.0041 24.9608 26.7272 24.0653 26.2066 23.3114C25.6861 22.5574 24.947 21.9811 24.0888 21.6601C23.2307 21.3392 22.2948 21.289 21.4072 21.5164C20.5197 21.7437 19.7232 22.2377 19.125 22.9317V20.2519C19.125 19.3568 18.7694 18.4984 18.1365 17.8655C17.5036 17.2325 16.6451 16.877 15.75 16.877C14.8549 16.877 13.9964 17.2325 13.3635 17.8655C12.7306 18.4984 12.375 19.3568 12.375 20.2519V27.002C12.375 27.3003 12.4935 27.5865 12.7045 27.7974C12.9155 28.0084 13.2016 28.127 13.5 28.127C13.7984 28.127 14.0845 28.0084 14.2955 27.7974C14.5065 27.5865 14.625 27.3003 14.625 27.002V20.2519C14.625 19.9536 14.7435 19.6674 14.9545 19.4565C15.1655 19.2455 15.4516 19.1269 15.75 19.1269C16.0484 19.1269 16.3345 19.2455 16.5455 19.4565C16.7565 19.6674 16.875 19.9536 16.875 20.2519V37.1269H14.625V31.502C14.625 31.2036 14.5065 30.9174 14.2955 30.7065C14.0845 30.4955 13.7984 30.377 13.5 30.377C13.2016 30.377 12.9155 30.4955 12.7045 30.7065C12.4935 30.9174 12.375 31.2036 12.375 31.502V37.1269H9V14.7991L36 10.1438L43.7985 11.4938C43.9446 11.5201 44.0945 11.5172 44.2395 11.4853C44.3845 11.4534 44.5217 11.3931 44.6433 11.3079C44.7649 11.2227 44.8684 11.1143 44.9479 10.9889C45.0274 10.8635 45.0813 10.7236 45.1065 10.5773C45.1316 10.431 45.1276 10.2811 45.0946 10.1364C45.0615 9.99163 45.0002 9.85485 44.9141 9.73393C44.8279 9.613 44.7187 9.51032 44.5927 9.4318C44.4667 9.35329 44.3264 9.30049 44.1799 9.27645L36.1924 7.89945C36.0662 7.87695 35.9371 7.87695 35.811 7.89945L4.5 13.2916V9.95033L36 4.51883L67.5 9.95033V13.2916L48.6157 10.0358C48.3217 9.9851 48.0196 10.0533 47.7758 10.2253C47.532 10.3974 47.3665 10.6592 47.3158 10.9533C47.2651 11.2473 47.3333 11.5495 47.5053 11.7932C47.6774 12.037 47.9392 12.2025 48.2332 12.2532L68.4338 15.7351C68.5953 15.7629 68.7609 15.7552 68.9191 15.7123C69.0773 15.6695 69.2242 15.5926 69.3495 15.4871C69.4749 15.3815 69.5757 15.2499 69.6449 15.1013C69.7141 14.9527 69.7499 14.7908 69.75 14.627V9.00195C69.7499 8.73683 69.6561 8.48027 69.4853 8.27753C69.3145 8.07479 69.0775 7.9389 68.8162 7.89382ZM54 29.252H55.125C55.4234 29.252 55.7095 29.1334 55.9205 28.9224C56.1315 28.7115 56.25 28.4253 56.25 28.127C56.25 27.8286 56.1315 27.5424 55.9205 27.3315C55.7095 27.1205 55.4234 27.002 55.125 27.002H54V19.1269H58.5V37.1269H54V29.252ZM34.875 37.1269V34.8769H37.125V37.1269H34.875ZM37.125 28.127V32.627H19.125V28.127H37.125ZM22.5 23.627C23.0967 23.627 23.669 23.864 24.091 24.286C24.5129 24.7079 24.75 25.2802 24.75 25.877H20.25C20.25 25.2802 20.4871 24.7079 20.909 24.286C21.331 23.864 21.9033 23.627 22.5 23.627ZM19.125 34.8769H32.625V37.1269H19.125V34.8769Z" fill="white"/>
<path d="M30.375 13.502C30.0766 13.502 29.7905 13.6205 29.5795 13.8315C29.3685 14.0424 29.25 14.3286 29.25 14.627V21.377C29.25 21.6753 29.3685 21.9615 29.5795 22.1725C29.7905 22.3834 30.0766 22.502 30.375 22.502H41.625C41.9234 22.502 42.2095 22.3834 42.4205 22.1725C42.6315 21.9615 42.75 21.6753 42.75 21.377V14.627C42.75 14.3286 42.6315 14.0424 42.4205 13.8315C42.2095 13.6205 41.9234 13.502 41.625 13.502H30.375ZM31.5 15.752H34.875V20.252H31.5V15.752ZM40.5 20.252H37.125V15.752H40.5V20.252Z" fill="white"/>
<path d="M33.7507 46.1268H27.0007C26.1056 46.1268 25.2472 46.4824 24.6143 47.1153C23.9813 47.7483 23.6257 48.6067 23.6257 49.5018V50.7393C22.5457 50.962 21.5546 51.4962 20.7748 52.2759C19.9951 53.0557 19.4609 54.0468 19.2382 55.1268H19.1257V51.7518C19.1247 51.5262 19.0557 51.3061 18.9279 51.1201C18.8001 50.9341 18.6194 50.7909 18.4091 50.709L19.0684 48.7323C19.115 48.592 19.1336 48.4438 19.1231 48.2963C19.1125 48.1487 19.0729 48.0047 19.0067 47.8725C18.9405 47.7402 18.8488 47.6223 18.737 47.5255C18.6252 47.4286 18.4955 47.3548 18.3551 47.3081C18.2148 47.2614 18.0666 47.2428 17.9191 47.2534C17.7715 47.264 17.6275 47.3035 17.4953 47.3697C17.2282 47.5035 17.0252 47.7379 16.9309 48.0213L16.0646 50.6268H15.5021L14.5897 46.9796C14.5568 46.8333 14.495 46.6951 14.4079 46.5731C14.3208 46.451 14.2102 46.3476 14.0826 46.2689C13.955 46.1902 13.8129 46.1379 13.6647 46.1149C13.5166 46.0919 13.3653 46.0987 13.2199 46.135C13.0744 46.1713 12.9376 46.2363 12.8177 46.3262C12.6977 46.4161 12.5969 46.5291 12.5211 46.6585C12.4454 46.7879 12.3964 46.9311 12.3768 47.0798C12.3572 47.2284 12.3676 47.3795 12.4072 47.5241L13.1947 50.6876C12.9607 50.751 12.7538 50.8895 12.6059 51.0817C12.458 51.2739 12.3771 51.5093 12.3757 51.7518V56.2518C12.3757 56.5502 12.4943 56.8363 12.7052 57.0473C12.9162 57.2583 13.2024 57.3768 13.5007 57.3768H34.8757V59.6268H13.5007C13.2024 59.6268 12.9162 59.7454 12.7052 59.9563C12.4943 60.1673 12.3757 60.4535 12.3757 60.7518C12.3757 61.0502 12.4943 61.3363 12.7052 61.5473C12.9162 61.7583 13.2024 61.8768 13.5007 61.8768H14.7979L15.7665 67.6863C15.8102 67.949 15.9456 68.1877 16.1487 68.3599C16.3518 68.5321 16.6094 68.6267 16.8757 68.6268H19.1257C19.392 68.6267 19.6497 68.5321 19.8528 68.3599C20.0559 68.1877 20.1913 67.949 20.235 67.6863L21.2036 61.8768H28.2979L29.2665 67.6863C29.3102 67.949 29.4456 68.1877 29.6487 68.3599C29.8518 68.5321 30.1094 68.6267 30.3757 68.6268H32.6257C32.892 68.6267 33.1496 68.5321 33.3528 68.3599C33.5559 68.1877 33.6913 67.949 33.735 67.6863L34.7036 61.8768H36.0007C36.2991 61.8768 36.5853 61.7583 36.7962 61.5473C37.0072 61.3363 37.1257 61.0502 37.1257 60.7518V56.2518C37.1259 56.1024 37.0962 55.9544 37.0382 55.8166C36.9802 55.6788 36.8952 55.5541 36.7882 55.4497C37.0078 54.9985 37.1231 54.5036 37.1257 54.0018V49.5018C37.1257 48.6067 36.7702 47.7483 36.1372 47.1153C35.5043 46.4824 34.6458 46.1268 33.7507 46.1268ZM18.1729 66.3768H17.8286L17.0794 61.8768H18.9221L18.1729 66.3768ZM31.6729 66.3768H31.3286L30.5794 61.8768H32.4221L31.6729 66.3768ZM23.6257 53.0692V55.1268H21.5737C21.742 54.6533 22.0133 54.223 22.3682 53.8671C22.7231 53.5113 23.1526 53.2387 23.6257 53.0692ZM14.6257 52.8768H16.8757V55.1268H14.6257V52.8768ZM25.8757 55.1268V49.5018C25.8757 49.2035 25.9943 48.9173 26.2052 48.7063C26.4162 48.4954 26.7024 48.3768 27.0007 48.3768H33.7507C34.0491 48.3768 34.3353 48.4954 34.5462 48.7063C34.7572 48.9173 34.8757 49.2035 34.8757 49.5018V54.0018C34.8757 54.3002 34.7572 54.5863 34.5462 54.7973C34.3353 55.0083 34.0491 55.1268 33.7507 55.1268H25.8757Z" fill="white"/>
<path d="M30.375 52.8769C30.9963 52.8769 31.5 52.3733 31.5 51.7519C31.5 51.1306 30.9963 50.627 30.375 50.627C29.7537 50.627 29.25 51.1306 29.25 51.7519C29.25 52.3733 29.7537 52.8769 30.375 52.8769Z" fill="white"/>
<path d="M58.5 46.127H43.875C43.5766 46.127 43.2905 46.2455 43.0795 46.4565C42.8685 46.6674 42.75 46.9536 42.75 47.252V67.5019C42.75 67.8003 42.8685 68.0865 43.0795 68.2974C43.2905 68.5084 43.5766 68.6269 43.875 68.6269C44.1734 68.6269 44.4595 68.5084 44.6705 68.2974C44.8815 68.0865 45 67.8003 45 67.5019V48.377H57.375V67.5019C57.375 67.8003 57.4935 68.0865 57.7045 68.2974C57.9155 68.5084 58.2016 68.6269 58.5 68.6269C58.7984 68.6269 59.0845 68.5084 59.2955 68.2974C59.5065 68.0865 59.625 67.8003 59.625 67.5019V47.252C59.625 46.9536 59.5065 46.6674 59.2955 46.4565C59.0845 46.2455 58.7984 46.127 58.5 46.127Z" fill="white"/>
<path d="M54 57.3769C54.6213 57.3769 55.125 56.8733 55.125 56.252C55.125 55.6306 54.6213 55.127 54 55.127C53.3787 55.127 52.875 55.6306 52.875 56.252C52.875 56.8733 53.3787 57.3769 54 57.3769Z" fill="white"/>
</svg>
