<svg width="72" height="73" viewBox="0 0 72 73" fill="none" xmlns="http://www.w3.org/2000/svg">
<path d="M70.875 14.7095V5.70384L5.625 1.04297V10.0486L7.875 10.2095V28.1262H3.375V35.0832C2.06887 35.549 1.125 36.7865 1.125 38.2512V40.5012C1.125 41.966 2.06887 43.2035 3.375 43.6692V55.3343C2.06887 55.799 1.125 57.0365 1.125 58.5012V63.0012C1.125 64.862 2.63925 66.3762 4.5 66.3762H5.73862C5.90962 67.2121 6.28088 67.9692 6.77813 68.6262H1.125V70.8762H68.625V43.6692C69.9311 43.2035 70.875 41.966 70.875 40.5012V38.2512C70.875 36.7865 69.9311 35.549 68.625 35.0832V14.5486L70.875 14.7095ZM7.875 3.45947L68.625 7.79747V12.2918L7.875 7.95384V3.45947ZM10.125 10.3692L37.125 12.2986V34.8762H32.625V28.1262H10.125V10.3692ZM12.375 30.3762V34.8762H10.125V30.3762H12.375ZM14.625 30.3762H16.875V34.8762H14.625V30.3762ZM19.125 30.3762H21.375V34.8762H19.125V30.3762ZM23.625 30.3762H25.875V34.8762H23.625V30.3762ZM28.125 30.3762H30.375V34.8762H28.125V30.3762ZM5.625 30.3762H7.875V34.8762H5.625V30.3762ZM16.7614 66.3762H21.375V68.6262H15.7207C16.2191 67.9692 16.5904 67.2121 16.7614 66.3762ZM21.375 55.1341L16.1381 55.1285C17.6333 53.9247 19.4557 53.1653 21.375 52.9482V55.1341ZM23.625 43.8762H39.375V68.6262H23.625V43.8762ZM21.375 46.3152C15.66 47.0971 10.4794 50.3236 7.263 55.1262H5.625V43.8762H21.375V46.3152ZM3.375 63.0012V58.5012C3.375 57.8802 3.88013 57.3762 4.5 57.3762H8.49825L8.829 56.8475C11.6033 52.4082 16.2337 49.4123 21.375 48.6158V50.6926C17.9201 51.0132 14.6993 52.7783 12.6 55.5751L11.2511 57.374L21.375 57.3841V64.1262H16.7614C16.2382 61.5623 13.9669 59.6262 11.25 59.6262C8.53312 59.6262 6.26175 61.5623 5.73862 64.1262H4.5C3.88013 64.1262 3.375 63.6222 3.375 63.0012ZM7.875 65.2512C7.875 63.3905 9.38925 61.8762 11.25 61.8762C13.1108 61.8762 14.625 63.3905 14.625 65.2512C14.625 67.112 13.1108 68.6262 11.25 68.6262C9.38925 68.6262 7.875 67.112 7.875 65.2512ZM61.875 68.6262H55.125V50.6262H61.875V68.6262ZM52.875 68.6262H46.125V50.6262H52.875V68.6262ZM64.125 68.6262V48.3762H43.875V68.6262H41.625V43.8762H66.375V68.6262H64.125ZM68.625 40.5012C68.625 41.1222 68.1199 41.6262 67.5 41.6262H4.5C3.88013 41.6262 3.375 41.1222 3.375 40.5012V38.2512C3.375 37.6302 3.88013 37.1262 4.5 37.1262H32.625H67.5C68.1199 37.1262 68.625 37.6302 68.625 38.2512V40.5012ZM66.375 34.8762H39.375V12.4595L66.375 14.3888V34.8762Z" fill="white"/>
<path d="M50.625 32.627V16.877H41.625V32.627H50.625ZM43.875 19.127H48.375V30.377H43.875V19.127Z" fill="white"/>
<path d="M64.125 16.877H55.125V32.627H64.125V16.877ZM61.875 30.377H57.375V19.127H61.875V30.377Z" fill="white"/>
<path d="M12.375 21.377H21.375V14.627H12.375V21.377ZM14.625 16.877H19.125V19.127H14.625V16.877Z" fill="white"/>
<path d="M34.875 14.627H25.875V21.377H34.875V14.627ZM32.625 19.127H28.125V16.877H32.625V19.127Z" fill="white"/>
<path d="M25.875 46.127V55.127H37.125V46.127H25.875ZM34.875 52.877H28.125V48.377H34.875V52.877Z" fill="white"/>
</svg>
