<svg width="82" height="82" viewBox="0 0 82 82" fill="none" xmlns="http://www.w3.org/2000/svg">
<g clip-path="url(#clip0)">
<path d="M1.34302 40.9818H1.39086C2.12781 40.9823 2.73238 40.3983 2.75749 39.6616C3.49684 18.541 21.2178 2.0187 42.3385 2.75787C50.4625 3.04231 58.2847 5.90626 64.6715 10.935H57.3983C56.6436 10.935 56.0317 11.5469 56.0317 12.3016C56.0317 13.0563 56.6436 13.6682 57.3983 13.6682H68.3314H68.3505C68.4575 13.6595 68.5629 13.6385 68.6649 13.6054C68.7347 13.5953 68.8036 13.5803 68.8712 13.5603C68.9095 13.5439 68.9382 13.5097 68.9751 13.4892C69.0977 13.4292 69.2103 13.3503 69.3085 13.2555L69.3222 13.2459C69.3569 13.1985 69.3885 13.1487 69.4165 13.097C69.4881 13.0099 69.5484 12.9139 69.5955 12.8114C69.6331 12.7024 69.6562 12.5889 69.6639 12.4738C69.6796 12.4174 69.691 12.3599 69.698 12.3016V1.36852C69.698 0.613795 69.0861 0.00188408 68.3314 0.00188408C67.5767 0.00188408 66.9648 0.613795 66.9648 1.36852V9.28407C49.4546 -5.06252 23.6293 -2.49803 9.28266 15.0123C3.58841 21.9623 0.335472 30.5908 0.0242204 39.5701C-0.00106239 40.3239 0.589153 40.9558 1.34302 40.9818Z" fill="white"/>
<path d="M12.4061 66.4301C11.9046 65.8639 11.0392 65.8117 10.473 66.3132C9.9069 66.8148 9.85463 67.6802 10.3562 68.2463C11.2969 69.302 12.2908 70.3092 13.3341 71.2638C13.9014 71.7618 14.7648 71.7054 15.2627 71.1383C15.7465 70.587 15.709 69.7523 15.1777 69.2467C14.2063 68.3558 13.2813 67.4157 12.4061 66.4301Z" fill="white"/>
<path d="M28.7188 77.2517C27.4693 76.8287 26.2428 76.341 25.0439 75.7907C24.3676 75.4557 23.5476 75.7325 23.2126 76.4088C22.8776 77.0851 23.1543 77.9051 23.8307 78.2401C23.8539 78.2515 23.8775 78.2625 23.9014 78.2725C25.1867 78.8643 26.5024 79.3879 27.8428 79.8414C28.5579 80.0833 29.3338 79.6996 29.5757 78.9846C29.8177 78.2695 29.434 77.4936 28.7188 77.2517Z" fill="white"/>
<path d="M21.5396 73.9583V73.957C20.4038 73.2841 19.3028 72.5543 18.2406 71.7703C17.648 71.3028 16.7887 71.4043 16.3211 71.9969C15.8536 72.5895 15.955 73.4487 16.5476 73.9163C16.5699 73.9337 16.5924 73.9506 16.6156 73.9667C17.7516 74.8077 18.9299 75.5899 20.1457 76.3105C20.7951 76.6954 21.6337 76.481 22.0186 75.8315C22.4037 75.1818 22.1891 74.3432 21.5396 73.9583Z" fill="white"/>
<path d="M9.93142 63.3462C9.16098 62.2751 8.44589 61.1653 7.78854 60.0212C7.41117 59.3664 6.57445 59.1416 5.91966 59.519C5.26487 59.8963 5.04006 60.7331 5.41742 61.3879C6.12158 62.6112 6.88792 63.7976 7.71337 64.9425C8.16658 65.546 9.02329 65.6678 9.62683 65.2146C10.2131 64.7744 10.3476 63.95 9.93142 63.3462Z" fill="white"/>
<path d="M6.12218 57.0613C6.12218 56.8708 6.0822 56.6824 6.00516 56.5083L6.00243 56.4988C5.46756 55.2941 4.99539 54.0624 4.58796 52.8089C4.3898 52.0806 3.63866 51.6508 2.91042 51.8491C2.18217 52.0473 1.75236 52.7984 1.9507 53.5267C1.96231 53.569 1.97581 53.6109 1.99135 53.6521C2.42748 54.9984 2.93296 56.3213 3.50558 57.6153C3.72476 58.11 4.21504 58.4288 4.75606 58.4285C5.51078 58.4281 6.12235 57.816 6.12218 57.0613Z" fill="white"/>
<path d="M2.51081 50.6018C2.51098 50.6018 2.51132 50.6016 2.51149 50.6016C3.24897 50.4444 3.71977 49.7198 3.5638 48.9821C3.2915 47.6912 3.08531 46.3871 2.94608 45.0749C2.86648 44.3239 2.19307 43.7797 1.4421 43.8593C0.691136 43.9389 0.146874 44.6123 0.22648 45.3633C0.376127 46.7687 0.597693 48.1654 0.890665 49.5479C1.04714 50.2864 1.77249 50.7581 2.51081 50.6018Z" fill="white"/>
<path d="M79.8102 49.2048C79.8097 49.2046 79.8092 49.2046 79.8087 49.2045C79.0762 49.023 78.3353 49.4696 78.1537 50.2021C77.837 51.4833 77.4543 52.7473 77.0071 53.9891C76.7512 54.6994 77.1195 55.4825 77.8298 55.7384C78.5401 55.9943 79.3232 55.626 79.5791 54.9156C80.0586 53.5857 80.4691 52.2317 80.8091 50.8595C80.9901 50.1268 80.5429 49.3861 79.8102 49.2048Z" fill="white"/>
<path d="M36.4215 78.9926C35.1116 78.8367 33.8107 78.6132 32.5239 78.323C31.7876 78.1566 31.0558 78.6185 30.8894 79.3548C30.723 80.0911 31.1849 80.8229 31.9212 80.9893C33.3005 81.3002 34.695 81.5397 36.099 81.7068C36.1535 81.7134 36.2082 81.7165 36.263 81.7163C37.0177 81.7148 37.6283 81.1015 37.6267 80.3468C37.6254 79.6556 37.1081 79.0743 36.4215 78.9926Z" fill="white"/>
<path d="M77.2937 57.0034C76.6143 56.6755 75.7977 56.9599 75.469 57.6389C74.8945 58.8269 74.2587 59.9843 73.5639 61.1061C73.1775 61.7546 73.39 62.5933 74.0385 62.9796C74.6711 63.3566 75.4888 63.1644 75.8872 62.5452C76.631 61.3427 77.3121 60.1023 77.9276 58.8293C78.2568 58.1501 77.9729 57.3326 77.2937 57.0034Z" fill="white"/>
<path d="M73.2564 64.1095C72.6656 63.6398 71.8058 63.7378 71.3361 64.3287C71.3279 64.339 71.3198 64.3494 71.312 64.3598V64.3571C70.5057 65.4031 69.6459 66.4065 68.7359 67.3637C68.2155 67.9108 68.2372 68.7764 68.7844 69.2968C69.3316 69.8171 70.1971 69.7954 70.7175 69.2482C71.6905 68.2228 72.6111 67.1486 73.4754 66.0298C73.9452 65.4391 73.8471 64.5793 73.2564 64.1095Z" fill="white"/>
<path d="M80.6533 41.0682C79.9109 41.0303 79.2781 41.6015 79.2404 42.3439C79.2397 42.3578 79.2392 42.3718 79.2388 42.3856C79.1925 43.7044 79.0779 45.02 78.8958 46.327C78.7928 47.0737 79.3138 47.7627 80.0602 47.8672C80.1235 47.8764 80.1874 47.881 80.2515 47.8809C80.9326 47.8798 81.5091 47.3774 81.6031 46.7028C81.7977 45.3029 81.9203 43.8939 81.9707 42.4813C81.9969 41.7274 81.4073 41.0948 80.6533 41.0682Z" fill="white"/>
<path d="M65.8709 70.082V70.0861C64.8651 70.9447 63.816 71.7512 62.7277 72.5023C62.1053 72.9325 61.9497 73.7858 62.3799 74.4081C62.81 75.0304 63.6633 75.186 64.2856 74.7559C65.4495 73.9477 66.5715 73.0811 67.6476 72.1593C68.2212 71.6687 68.2885 70.806 67.7979 70.2323C67.3074 69.6587 66.4446 69.5914 65.8709 70.082Z" fill="white"/>
<path d="M52.0857 77.639C50.8228 78.0196 49.5411 78.3342 48.2455 78.5819C47.5043 78.7246 47.019 79.4409 47.1616 80.1821C47.2851 80.8246 47.8468 81.2894 48.5011 81.2906C48.5877 81.2909 48.6741 81.2831 48.7594 81.2674C50.1482 81.0019 51.5222 80.664 52.8757 80.2547C53.5925 80.0184 53.9821 79.2458 53.7459 78.529C53.518 77.8375 52.7879 77.4461 52.0857 77.639Z" fill="white"/>
<path d="M44.3977 79.1195C44.3726 79.1209 44.3476 79.1231 44.3227 79.1258L44.3295 79.1313C43.2362 79.2242 42.1169 79.268 41.0018 79.268H40.3772C39.6319 79.2785 39.0227 79.8655 38.9846 80.61C38.9709 81.3647 39.5716 81.9876 40.3261 82.0012C40.3263 82.0012 40.3265 82.0012 40.3266 82.0012H41.0018C42.1962 82.0012 43.3934 81.9479 44.555 81.8482C45.3086 81.8048 45.8842 81.1587 45.8407 80.4052C45.7971 79.6516 45.151 79.0759 44.3977 79.1195Z" fill="white"/>
<path d="M59.3627 74.5785H59.364C58.207 75.2121 57.0184 75.786 55.8026 76.2978C55.1032 76.5815 54.7661 77.3784 55.0497 78.0778C55.3333 78.7772 56.1304 79.1142 56.8298 78.8306C56.84 78.8266 56.8501 78.8223 56.8602 78.8178C58.1629 78.2696 59.4365 77.6548 60.6758 76.9756C61.3378 76.6129 61.5804 75.7824 61.2177 75.1204C60.8554 74.4584 60.0246 74.2159 59.3627 74.5785Z" fill="white"/>
<path d="M41.0001 12.3008C25.1499 12.3008 12.3008 25.1499 12.3008 41.0001C12.3008 56.8504 25.1499 69.6995 41.0001 69.6995C56.8504 69.6995 69.6995 56.8504 69.6995 41.0001C69.6815 25.1574 56.8428 12.3189 41.0001 12.3008ZM62.8663 42.3668H66.8965C66.1865 55.6089 55.6089 66.1865 42.3668 66.8965V62.8663C42.3668 62.1116 41.7548 61.4997 41.0001 61.4997C40.2454 61.4997 39.6335 62.1116 39.6335 62.8663V66.8965C26.3913 66.1865 15.8137 55.6089 15.1037 42.3668H19.134C19.8887 42.3668 20.5006 41.7548 20.5006 41.0001C20.5006 40.2454 19.8887 39.6335 19.134 39.6335H15.1037C15.8137 26.3913 26.3913 15.8137 39.6335 15.1037V19.134C39.6335 19.8887 40.2454 20.5006 41.0001 20.5006C41.7548 20.5006 42.3668 19.8887 42.3668 19.134V15.1037C55.6089 15.8137 66.1865 26.3913 66.8965 39.6335H62.8663C62.1116 39.6335 61.4997 40.2454 61.4997 41.0001C61.4997 41.7548 62.1116 42.3668 62.8663 42.3668Z" fill="white"/>
<path d="M42.3656 37.1522V24.601C42.3656 23.8463 41.7537 23.2344 40.9989 23.2344C40.2442 23.2344 39.6323 23.8463 39.6323 24.601V37.1522C38.4749 37.5656 37.5639 38.4766 37.1505 39.634H30.0659C29.3111 39.634 28.6992 40.2459 28.6992 41.0006C28.6992 41.7554 29.3111 42.3673 30.0659 42.3673H37.1505C37.8994 44.4986 40.2343 45.6192 42.3656 44.8703C44.4968 44.1214 45.6175 41.7865 44.8686 39.6552C44.4572 38.4843 43.5364 37.5637 42.3656 37.1522ZM40.9989 42.3673C40.2442 42.3673 39.6323 41.7554 39.6323 41.0006C39.6323 40.2459 40.2442 39.634 40.9989 39.634C41.7537 39.634 42.3656 40.2459 42.3656 41.0006C42.3656 41.7554 41.7538 42.3673 40.9989 42.3673Z" fill="white"/>
</g>
<defs>
<clipPath id="clip0">
<rect width="82" height="82" fill="white"/>
</clipPath>
</defs>
</svg>
