<svg width="82" height="82" viewBox="0 0 82 82" fill="none" xmlns="http://www.w3.org/2000/svg">
<path d="M48.1568 45.1937V10.7575C48.1568 4.81621 43.3406 0 37.3994 0C31.4581 0 26.6419 4.81621 26.6419 10.7575V45.1784C17.3438 51.1107 14.615 63.4575 20.5473 72.7556C24.2083 78.4935 30.5395 81.9719 37.3458 81.9847L37.4529 82C48.4823 81.9794 57.4066 73.0215 57.3859 61.9922C57.3731 55.1858 53.8947 48.8546 48.1568 45.1937ZM28.9967 76.6843C20.9003 72.0099 18.1265 61.6571 22.8009 53.5609C24.2866 50.9876 26.4234 48.8508 28.9967 47.365C29.4717 47.0907 29.7634 46.5831 29.7613 46.0347V10.7575C29.7613 6.50533 33.2084 3.05827 37.4605 3.05827C41.7127 3.05827 45.1597 6.50533 45.1597 10.7575V46.0347C45.1576 46.5831 45.4493 47.0907 45.9243 47.365C54.0207 52.0394 56.7945 62.3923 52.1202 70.4885C47.4458 78.5849 37.093 81.3589 28.9967 76.6843Z" fill="white"/>
<path d="M38.9815 51.0347V27.8377C38.9815 26.9933 38.2968 26.3086 37.4524 26.3086C36.6079 26.3086 35.9232 26.9933 35.9232 27.8377V51.0347C30.1467 51.8632 26.1354 57.2174 26.9638 62.9939C27.7116 68.2079 32.1851 72.0749 37.4524 72.0604C43.2879 72.0764 48.0317 67.3589 48.048 61.5233C48.0625 56.256 44.1955 51.7825 38.9815 51.0347ZM37.4524 68.9868C33.3057 68.9868 29.9443 65.6254 29.9443 61.4788C29.9527 57.3357 33.3092 53.9791 37.4524 53.9707C41.599 53.9707 44.9604 57.3321 44.9604 61.4788C44.9604 65.6254 41.5988 68.9868 37.4524 68.9868Z" fill="white"/>
<path d="M63.0628 10.5117H53.5057C52.6612 10.5117 51.9766 11.1964 51.9766 12.0409C51.9766 12.8853 52.6612 13.57 53.5057 13.57H63.0628C63.9073 13.57 64.5919 12.8853 64.5919 12.0409C64.5919 11.1964 63.9073 10.5117 63.0628 10.5117Z" fill="white"/>
<path d="M61.0278 18.1602H55.4159C54.5714 18.1602 53.8867 18.8448 53.8867 19.6893C53.8867 20.5338 54.5714 21.2184 55.4159 21.2184H61.0278C61.8723 21.2184 62.5569 20.5338 62.5569 19.6893C62.5569 18.8448 61.8723 18.1602 61.0278 18.1602Z" fill="white"/>
<path d="M63.0628 25.8047H53.5057C52.6612 25.8047 51.9766 26.4894 51.9766 27.3338C51.9766 28.1783 52.6612 28.863 53.5057 28.863H63.0628C63.9073 28.863 64.5919 28.1783 64.5919 27.3338C64.5919 26.4894 63.9073 25.8047 63.0628 25.8047Z" fill="white"/>
<path d="M61.0278 33.4492H55.4159C54.5714 33.4492 53.8867 34.1339 53.8867 34.9784C53.8867 35.8228 54.5714 36.5075 55.4159 36.5075H61.0278C61.8723 36.5075 62.5569 35.8228 62.5569 34.9784C62.5569 34.1339 61.8723 33.4492 61.0278 33.4492Z" fill="white"/>
<path d="M63.0628 41.0938H53.5057C52.6612 41.0938 51.9766 41.7784 51.9766 42.6229C51.9766 43.4673 52.6612 44.152 53.5057 44.152H63.0628C63.9073 44.152 64.5919 43.4673 64.5919 42.6229C64.5919 41.7784 63.9073 41.0938 63.0628 41.0938Z" fill="white"/>
</svg>
