<svg width="82" height="82" viewBox="0 0 82 82" fill="none" xmlns="http://www.w3.org/2000/svg">
<g clip-path="url(#clip0)">
<path d="M68.389 50.6644C64.5144 50.6644 62.4903 48.9415 62.4903 47.2405C62.5262 46.3142 63.0173 45.4652 63.8025 44.9711C65.167 44.0997 66.7723 43.6819 68.389 43.7771H68.9584C71.0059 43.7771 72.6665 42.1175 72.6665 40.0685C72.6665 38.021 71.0059 36.3609 68.9584 36.3609H56.8214V30.1381C56.8169 26.5805 53.9339 23.6979 50.3768 23.6935C47.0555 23.6935 44.2961 22.9661 42.3907 21.5911C40.9345 20.6643 40.0211 19.085 39.9474 17.36C39.9474 14.3085 43.2123 11.0345 50.3768 11.0345H51.2866C53.3994 11.2753 55.4654 10.2832 56.5981 8.48153C57.7313 6.6813 57.7313 4.39001 56.5981 2.58829C55.4654 0.788067 53.3994 -0.205522 51.2866 0.0357709H14.8424C12.0466 0.354338 9.93478 2.72041 9.93478 5.53516C9.93478 8.34942 12.0466 10.716 14.8424 11.0345C22.0064 11.0345 25.2723 14.3164 25.2723 17.36C25.1961 19.087 24.2807 20.6668 22.821 21.5911C20.9151 22.9661 18.1557 23.6935 14.8344 23.6935C14.6445 23.6979 14.461 23.7588 14.305 23.868C11.4129 24.5714 9.37841 27.1623 9.37891 30.1381V67.9015C9.38339 71.459 12.2654 74.3416 15.823 74.3461H43.2686V77.7222C43.2726 80.0838 45.1855 81.9962 47.5461 81.9996H68.389C70.7496 81.9962 72.6625 80.0838 72.6665 77.7222V54.9499C72.6665 52.5863 70.7526 50.6689 68.389 50.6644ZM62.1264 50.6644H53.2389C54.2649 49.8219 54.8597 48.5646 54.8597 47.2365C54.8597 45.9094 54.2649 44.6516 53.2389 43.809H62.1264C61.1059 44.6546 60.5156 45.9109 60.5156 47.2365C60.5156 48.5626 61.1059 49.8189 62.1264 50.6644ZM70.6898 40.1004C70.6773 41.0476 69.9056 41.8089 68.9584 41.8089H46.9773C46.0206 41.8089 45.2453 41.0332 45.2453 40.0775C45.2453 39.1208 46.0206 38.3455 46.9773 38.3455H68.9584C69.4215 38.3455 69.8657 38.5315 70.1912 38.861C70.5168 39.1911 70.6968 39.6373 70.6898 40.1004ZM11.3247 5.52369C11.3282 3.58238 12.9016 2.00899 14.8424 2.005H51.2866C53.2314 2.005 54.8083 3.58238 54.8083 5.52718C54.8083 7.47248 53.2314 9.05036 51.2866 9.05036H14.8424C12.8981 9.04538 11.3247 7.4675 11.3247 5.52369ZM23.9756 23.1879C25.9449 21.8858 27.1618 19.7116 27.2416 17.3525C27.2416 15.0513 25.9603 12.6079 23.2393 11.0271H41.94C39.2285 12.6553 37.9387 15.0593 37.9387 17.3525C37.9387 19.6458 39.2285 22.0966 41.94 23.678H23.2243C23.4821 23.5304 23.7353 23.3694 23.9831 23.1954L23.9756 23.1879ZM15.7836 72.3694C13.3214 72.3604 11.3282 70.3642 11.3247 67.9015V30.1381C11.3282 27.6723 13.3263 25.6752 15.7916 25.6702H50.3449C52.8107 25.6752 54.8083 27.6723 54.8128 30.1381V36.4007H46.9773C44.9283 36.4007 43.2686 38.0604 43.2686 40.1089C43.2686 42.1569 44.9283 43.817 46.9773 43.817C50.8509 43.817 52.8755 45.541 52.8755 47.2405C52.8291 48.1568 52.3396 48.9918 51.5633 49.4789C50.1988 50.3499 48.593 50.7686 46.9773 50.6719C46.8127 50.6769 46.6517 50.7228 46.5106 50.8065C44.6092 51.2846 43.2746 52.9906 43.2686 54.9499V72.3454L15.7836 72.3694ZM70.6898 77.7222C70.6898 78.993 69.6598 80.0234 68.389 80.0234H47.5461C46.2753 80.0234 45.2453 78.993 45.2453 77.7222V54.9499C45.2453 53.6791 46.2753 52.6491 47.5461 52.6491H68.389C69.6598 52.6491 70.6898 53.6791 70.6898 54.9499V77.7222Z" fill="white"/>
</g>
<defs>
<clipPath id="clip0">
<rect width="82" height="82" fill="white"/>
</clipPath>
</defs>
</svg>
