<svg width="170" height="170" viewBox="0 0 170 170" fill="none" xmlns="http://www.w3.org/2000/svg">
<path d="M115.161 0H54.8387C24.5521 0 0 24.5521 0 54.8387V115.161C0 145.448 24.5521 170 54.8387 170H115.161C145.448 170 170 145.448 170 115.161V54.8387C170 24.5521 145.448 0 115.161 0Z" fill="#CFCFCF"/>
<g clip-path="url(#clip0)">
<path d="M90.9825 114.01H87.8184C86.6562 114.01 85.7109 115.082 85.7109 116.399V127.206C85.7109 128.524 86.6562 129.595 87.8184 129.595H90.9825C93.8926 129.595 96.2598 126.914 96.2598 123.617V119.988C96.2598 116.692 93.8926 114.01 90.9825 114.01ZM93.135 123.617C93.135 124.96 92.1692 126.053 90.9825 126.053H88.8358V117.552H90.9825C92.1692 117.552 93.135 118.645 93.135 119.988V123.617Z" fill="#E31E24"/>
<path d="M80.3947 114.01H75.168C74.305 114.01 73.6055 114.803 73.6055 115.781C73.6055 116.759 74.305 117.552 75.168 117.552H80.0273V120.031H75.168C74.305 120.031 73.6055 120.824 73.6055 121.803C73.6055 122.781 74.305 123.574 75.168 123.574H80.0273V126.053H75.168C74.305 126.053 73.6055 126.846 73.6055 127.824C73.6055 128.802 74.305 129.595 75.168 129.595H80.3947C81.9152 129.595 83.1526 128.193 83.1526 126.468V117.137C83.1524 115.413 81.9152 114.01 80.3947 114.01Z" fill="#E31E24"/>
<path d="M137.766 125.745L135.135 115.277C134.899 114.336 134.035 113.791 133.205 114.059C132.375 114.327 131.894 115.307 132.13 116.248L133.986 123.631L115.321 111.845C115.328 111.588 115.325 98.4024 115.325 98.4024C115.325 97.4241 114.626 96.6312 113.763 96.6312C112.9 96.6312 112.2 97.4241 112.2 98.4024C112.2 98.4024 112.206 111.947 112.183 112.17C112.121 112.222 104.52 117.033 104.52 117.033C102.689 107.345 95.3971 99.9285 86.4908 99.1457V94.3255L112.2 78.0964V90.2806C112.2 91.2589 112.9 92.0519 113.763 92.0519C114.626 92.0519 115.325 91.2589 115.325 90.2806V74.7215C115.302 73.836 114.892 73.1096 114.096 72.5426L86.491 55.1173V31.0728L91.2763 36.501C91.5816 36.8471 91.9814 37.0203 92.3816 37.0203C92.7814 37.0203 93.181 36.8474 93.4863 36.502C94.0965 35.8105 94.0969 34.689 93.4869 33.9971L86.7084 26.3081C86.2468 25.7745 85.5992 25.4688 84.9284 25.4688C84.2575 25.4688 83.6276 25.7642 83.1553 26.3004L76.37 33.9968C75.76 34.6888 75.7602 35.8103 76.3706 36.5017C76.9812 37.1934 77.9703 37.193 78.5804 36.501L83.3659 31.0728V55.1171L72.6252 61.895C71.8713 62.3707 71.6003 63.4495 72.02 64.3041C72.4398 65.1589 73.3915 65.4659 74.1452 64.9902L84.9284 58.1855L111.124 74.7213L84.9286 91.257L58.7334 74.7182L68.6768 68.397C69.4295 67.9185 69.6976 66.839 69.2753 65.9858C68.8532 65.1324 67.9011 64.8287 67.1482 65.3072L55.7669 72.5426C54.9831 73.0375 54.5347 73.8341 54.5364 74.7278C54.5364 74.7316 54.537 74.7351 54.537 74.7386C54.537 74.7386 54.5345 111.593 54.5409 111.845L35.876 123.628L37.7271 116.247C37.9631 115.306 37.4815 114.326 36.6513 114.059C35.8216 113.791 34.9571 114.337 34.7211 115.278L32.0938 125.755C31.915 126.483 31.9935 127.245 32.315 127.901C32.6387 128.562 33.1906 129.057 33.8209 129.257L43.0497 132.241C43.1929 132.287 43.3372 132.309 43.4792 132.309C44.1595 132.309 44.7852 131.802 44.981 131.023C45.2176 130.083 44.7368 129.102 43.9071 128.834L37.3908 126.727L55.8798 115.055C56.0782 115.22 64.9108 120.818 64.9108 120.818C64.8984 121.145 64.8911 121.474 64.8911 121.804C64.8911 134.336 73.88 144.531 84.9289 144.531C95.9778 144.531 104.966 134.336 104.966 121.804C104.966 121.474 104.959 121.146 104.947 120.819C104.947 120.819 113.786 115.218 113.983 115.054L132.469 126.728L125.956 128.834C125.126 129.103 124.646 130.083 124.883 131.024C125.078 131.802 125.704 132.309 126.384 132.309C126.526 132.309 126.671 132.287 126.814 132.241L136.043 129.257C136.674 129.052 137.22 128.559 137.543 127.901C137.866 127.24 137.946 126.478 137.766 125.745ZM58.0864 112.455C57.8605 112.312 57.7406 112.223 57.678 112.171C57.6556 111.949 57.6621 78.0969 57.6621 78.0969L83.3659 94.3255V99.1457C74.4598 99.9285 67.1685 107.345 65.3362 117.032L58.0864 112.455ZM84.9284 140.989C75.6029 140.989 68.016 132.382 68.016 121.804C68.016 111.226 75.6029 102.619 84.9284 102.619C94.2542 102.619 101.841 111.226 101.841 121.804C101.841 132.382 94.2542 140.989 84.9284 140.989Z" fill="#E31E24"/>
</g>
<defs>
<clipPath id="clip0">
<rect width="105.861" height="120" fill="white" transform="translate(32 25)"/>
</clipPath>
</defs>
</svg>
