<svg width="170" height="170" viewBox="0 0 170 170" fill="none" xmlns="http://www.w3.org/2000/svg">
<path d="M115.161 0H54.8387C24.5521 0 0 24.5521 0 54.8387V115.161C0 145.448 24.5521 170 54.8387 170H115.161C145.448 170 170 145.448 170 115.161V54.8387C170 24.5521 145.448 0 115.161 0Z" fill="#CFCFCF"/>
<path d="M136.6 79.2248L133.492 66.7948C134.342 66.6143 134.979 65.8605 134.979 64.9575V62.9534C134.979 58.602 131.439 55.062 127.088 55.062H112.933V50.928C112.933 48.7868 111.191 47.0449 109.05 47.0449H36.8997C34.7584 47.0449 33.0166 48.7868 33.0166 50.928V84.9991C33.0166 86.0367 33.8577 86.8781 34.8955 86.8781C35.9331 86.8781 36.7745 86.037 36.7745 84.9991V50.928C36.7745 50.8589 36.8305 50.8029 36.8997 50.8029H109.05C109.119 50.8029 109.175 50.8589 109.175 50.928V84.9996C109.175 86.0372 110.016 86.8786 111.054 86.8786C112.092 86.8786 112.933 86.0374 112.933 84.9996V82.8696H135.098C135.1 82.8696 135.101 82.8701 135.103 82.8701C135.104 82.8701 135.106 82.8698 135.108 82.8698C137.835 82.8717 140.151 84.6619 140.946 87.1287H135.104C134.066 87.1287 133.225 87.9698 133.225 89.0077V93.0159C133.225 96.2623 135.866 98.9032 139.112 98.9032H141.242V107.17H136.329C134.715 102.51 130.285 99.1535 125.083 99.1535C119.881 99.1535 115.451 102.51 113.837 107.17H112.933V93.0157C112.933 91.9781 112.091 91.1367 111.054 91.1367C110.016 91.1367 109.175 91.9779 109.175 93.0157V107.17H70.1915C68.5776 102.51 64.1477 99.1531 58.9457 99.1531C53.7437 99.1531 49.3136 102.51 47.6999 107.17H36.8997C36.8305 107.17 36.7745 107.114 36.7745 107.045V102.911H44.9165C45.9541 102.911 46.7955 102.07 46.7955 101.032C46.7955 99.9942 45.9543 99.1531 44.9165 99.1531H26.879C25.8414 99.1531 25 99.9942 25 101.032C25 102.07 25.8412 102.911 26.879 102.911H33.0168V107.045C33.0168 109.186 34.7587 110.928 36.8999 110.928H47.0493C47.0488 110.97 47.046 111.011 47.046 111.053C47.046 117.615 52.3844 122.953 58.9457 122.953C65.507 122.953 70.8454 117.615 70.8454 111.053C70.8454 111.011 70.8426 110.97 70.8421 110.928H113.187C113.186 110.97 113.183 111.011 113.183 111.053C113.183 117.615 118.522 122.953 125.083 122.953C131.644 122.953 136.983 117.615 136.983 111.053C136.983 111.011 136.98 110.97 136.979 110.928H143.121C144.158 110.928 145 110.087 145 109.049V89.0072C145 84.0591 141.349 79.9479 136.6 79.2248ZM112.933 58.8197H127.088C129.367 58.8197 131.221 60.6741 131.221 62.9534V63.0785H112.933V58.8197ZM112.933 79.1119V66.8363H129.629L132.698 79.1119H112.933ZM58.9457 119.195C54.4562 119.195 50.8037 115.543 50.8037 111.053C50.8037 106.564 54.4562 102.911 58.9457 102.911C63.4352 102.911 67.0877 106.564 67.0877 111.053C67.0877 115.543 63.4352 119.195 58.9457 119.195ZM125.084 119.195C120.594 119.195 116.942 115.543 116.942 111.053C116.942 106.564 120.594 102.911 125.084 102.911C129.573 102.911 133.225 106.564 133.225 111.053C133.225 115.543 129.573 119.195 125.084 119.195ZM141.242 95.1452H139.113C137.939 95.1452 136.983 94.1899 136.983 93.0157V90.8862H141.242V95.1452H141.242Z" fill="#E31E24"/>
<path d="M58.9495 107.17C56.8083 107.17 55.0664 108.912 55.0664 111.053C55.0664 113.194 56.8083 114.936 58.9495 114.936C61.0908 114.936 62.8327 113.194 62.8327 111.053C62.8327 108.912 61.0908 107.17 58.9495 107.17Z" fill="#E31E24"/>
<path d="M125.086 107.17C122.945 107.17 121.203 108.912 121.203 111.053C121.203 113.194 122.945 114.936 125.086 114.936C127.228 114.936 128.969 113.194 128.969 111.053C128.969 108.912 127.228 107.17 125.086 107.17Z" fill="#E31E24"/>
<path d="M103.035 99.1543H74.9766C73.9391 99.1543 73.0977 99.9955 73.0977 101.033C73.0977 102.071 73.9388 102.912 74.9766 102.912H103.035C104.073 102.912 104.914 102.071 104.914 101.033C104.914 99.9955 104.073 99.1543 103.035 99.1543Z" fill="#E31E24"/>
<path d="M54.9369 91.1387H30.8868C29.8492 91.1387 29.0078 91.9798 29.0078 93.0177C29.0078 94.0555 29.849 94.8966 30.8868 94.8966H54.9369C55.9745 94.8966 56.8159 94.0555 56.8159 93.0177C56.8159 91.9798 55.9745 91.1387 54.9369 91.1387Z" fill="#E31E24"/>
<path d="M90.3362 65.6322C89.6027 64.8986 88.4127 64.8986 87.6791 65.6324L70.9701 82.3413L62.2778 73.649C61.544 72.9152 60.3543 72.9152 59.6207 73.649C58.8869 74.3828 58.8869 75.5723 59.6207 76.3061L69.6416 86.327C70.0084 86.6941 70.4894 86.8773 70.9701 86.8773C71.4508 86.8773 71.9319 86.6941 72.2985 86.327L90.336 68.2895C91.0698 67.5555 91.0698 66.366 90.3362 65.6322Z" fill="#E31E24"/>
</svg>
