<svg width="170" height="170" viewBox="0 0 170 170" fill="none" xmlns="http://www.w3.org/2000/svg">
<path d="M115.161 0H54.8387C24.5521 0 0 24.5521 0 54.8387V115.161C0 145.448 24.5521 170 54.8387 170H115.161C145.448 170 170 145.448 170 115.161V54.8387C170 24.5521 145.448 0 115.161 0Z" fill="#CFCFCF"/>
<g clip-path="url(#clip0)">
<path d="M103.814 61.3633C102.672 61.3633 101.746 62.4106 101.746 63.7061C101.746 65.0007 102.672 66.0499 103.814 66.0499C104.957 66.0499 105.881 65.0007 105.881 63.7061C105.881 62.4106 104.957 61.3633 103.814 61.3633Z" fill="#E31E24"/>
<path d="M66.2473 103.947C65.1036 103.947 64.1797 104.997 64.1797 106.291C64.1797 107.587 65.1036 108.635 66.2473 108.635C67.3885 108.635 68.3149 107.587 68.3149 106.291C68.3149 104.997 67.3885 103.947 66.2473 103.947Z" fill="#E31E24"/>
<path d="M135.39 39.4189C134.692 39.2349 133.959 39.4738 133.455 40.0506L124.883 49.844H120.774L116.25 44.5312V39.808L124.699 30.0878C125.199 29.5129 125.402 28.6861 125.237 27.8997C125.072 27.1142 124.562 26.4806 123.886 26.2225C121.764 25.4113 119.543 25.0002 117.284 25.0002C110.55 25.0002 104.432 28.5598 100.498 34.7662C96.8171 40.5761 95.6824 47.6962 97.3082 54.5104L82.0783 71.7745L56.7051 42.9464V37.2884C56.7051 36.4654 56.3239 35.7018 55.7012 35.2789L41.0818 25.3344C40.2677 24.7805 39.2267 24.9261 38.5563 25.6869L32.7089 32.3144C32.0386 33.0752 31.9101 34.2553 32.398 35.1781L41.1691 51.7501C41.5422 52.456 42.215 52.8872 42.9411 52.8881L47.9307 52.8899L73.3064 81.7181L58.1346 98.9163C52.1233 97.0742 45.8389 98.3624 40.7111 102.538C35.2393 106.994 32.1016 113.927 32.1016 121.561C32.1016 124.121 32.4642 126.639 33.1798 129.044C33.4083 129.814 33.9729 130.396 34.6707 130.579C35.3693 130.763 36.1019 130.524 36.6066 129.947L45.1774 120.155H49.3094L54.0172 125.491V130.175L45.3786 139.891C44.8697 140.463 44.6589 141.293 44.8213 142.085C44.9828 142.876 45.4957 143.516 46.1749 143.775C48.2966 144.586 50.5185 144.998 52.7766 144.998C59.5109 144.998 65.6264 141.44 69.558 135.237C73.2417 129.424 74.3781 122.302 72.7531 115.487L84.9382 101.675L87.7294 105.112L86.4485 106.563C85.6408 107.478 85.6408 108.962 86.4485 109.878C87.2561 110.793 88.5645 110.793 89.373 109.878L90.5328 108.563L116.722 140.81C116.741 140.834 116.761 140.857 116.781 140.88C121.627 146.373 129.479 146.375 134.327 140.879C139.161 135.395 139.161 126.474 134.327 120.991C134.306 120.967 134.284 120.944 134.262 120.921L105.771 91.2909L106.918 89.9908C107.725 89.0762 107.725 87.5921 106.918 86.6766C106.11 85.7611 104.802 85.7611 103.993 86.6766L102.721 88.1195L99.6835 84.9591L111.927 71.0797C113.668 71.607 115.464 71.8743 117.284 71.8743C128.685 71.8743 137.959 61.3604 137.959 48.4377C137.959 45.877 137.596 43.3593 136.881 40.9533C136.652 40.1833 136.088 39.602 135.39 39.4189ZM50.2519 48.8909C49.8643 48.4506 49.3385 48.2262 48.7893 48.2262L44.113 48.2244L36.7746 34.3359L40.3388 30.2956L52.5699 38.616V43.9169C52.5699 44.5376 52.7871 45.1327 53.174 45.5721L79.1546 75.0897L76.2301 78.4039L50.2519 48.8909ZM102.844 94.6087L131.432 124.339C134.626 127.997 134.616 133.921 131.402 137.565C128.181 141.216 122.967 141.227 119.733 137.597L93.4589 105.245L102.844 94.6087ZM99.7941 91.4364L90.6555 101.794L87.8643 98.3569L96.7565 88.276L99.7941 91.4364ZM117.284 67.1868C115.475 67.1868 113.697 66.8582 111.999 66.21C111.256 65.9271 110.433 66.145 109.878 66.7739C99.5122 78.5238 77.1774 103.841 68.9531 113.165C68.3974 113.795 68.2044 114.727 68.4556 115.571C70.1743 121.356 69.3521 127.527 66.199 132.502C63.0548 137.464 58.1621 140.31 52.7766 140.31C52.1717 140.31 51.57 140.273 50.974 140.2L57.541 132.814C57.9319 132.374 58.1524 131.775 58.1524 131.15V124.52C58.1524 123.898 57.9343 123.302 57.5466 122.863L51.6274 116.153C51.2397 115.713 50.7139 115.466 50.1655 115.466H44.3165C43.7649 115.466 43.2367 115.716 42.8482 116.159L36.3329 123.603C36.2682 122.928 36.2359 122.246 36.2359 121.56C36.2359 115.454 38.7461 109.909 43.1236 106.345C47.5124 102.771 52.9568 101.838 58.0611 103.787C58.805 104.072 59.6272 103.853 60.1828 103.223C60.2967 103.095 101.078 56.8652 101.107 56.8322C101.663 56.2023 101.855 55.2712 101.605 54.4271C99.8854 48.6419 100.706 42.4731 103.857 37.5008C107.003 32.535 111.897 29.6877 117.283 29.6877C117.907 29.6877 118.526 29.7271 119.14 29.804L112.709 37.2024C112.328 37.6409 112.115 38.2314 112.115 38.8467V45.4769C112.115 46.0848 112.322 46.668 112.695 47.1047L118.407 53.8146C118.797 54.2724 119.334 54.5306 119.895 54.5306H125.744C126.295 54.5306 126.823 54.2816 127.211 53.8375L133.727 46.3943C133.791 47.0699 133.824 47.752 133.824 48.4377C133.824 58.7759 126.404 67.1868 117.284 67.1868Z" fill="#E31E24"/>
<path d="M96.5056 68.6769L70.6325 98.0058C69.8256 98.9204 69.8256 100.405 70.6325 101.32C71.4401 102.236 72.7493 102.236 73.557 101.32L99.4301 71.9911C100.238 71.0765 100.238 69.5924 99.4301 68.6769C98.6225 67.7614 97.3133 67.7614 96.5056 68.6769Z" fill="#E31E24"/>
<path d="M122.631 130.938C123.439 131.851 124.748 131.851 125.556 130.933C126.362 130.016 126.359 128.532 125.551 127.619L106.914 106.561C106.106 105.647 104.796 105.65 103.99 106.566C103.184 107.483 103.186 108.967 103.994 109.88L122.631 130.938Z" fill="#E31E24"/>
</g>
<defs>
<clipPath id="clip0">
<rect width="105.654" height="120" fill="white" transform="translate(32 25)"/>
</clipPath>
</defs>
</svg>
