<svg width="170" height="170" viewBox="0 0 170 170" fill="none" xmlns="http://www.w3.org/2000/svg">
<path d="M115.161 0H54.8387C24.5521 0 0 24.5521 0 54.8387V115.161C0 145.448 24.5521 170 54.8387 170H115.161C145.448 170 170 145.448 170 115.161V54.8387C170 24.5521 145.448 0 115.161 0Z" fill="#CFCFCF"/>
<path d="M145 75.3226H140.651L134.169 78.7333C133.439 78.3307 132.68 77.9895 131.862 77.7845L123.708 75.7441V74.817C127.315 72.2993 129.516 68.1401 129.516 63.7097V60.3264C129.516 52.8075 123.625 46.5152 116.384 46.296C116.016 46.2865 115.654 46.2998 115.29 46.3177L117.404 41.3684L107.155 31.1221L101.113 35.0545C98.8177 33.7617 96.3899 32.7552 93.8684 32.0492L92.3762 25H77.6257L76.1334 32.0511C73.612 32.7571 71.1823 33.7635 68.8886 35.0564L62.8468 31.124L52.6062 41.3647L54.6843 46.3177C54.605 46.3139 54.5294 46.2998 54.45 46.2979C50.7434 46.1901 47.2524 47.5425 44.6006 50.1169C41.9449 52.6893 40.4839 56.1416 40.4839 59.8387V63.7097C40.4839 68.1401 42.683 72.2974 46.2903 74.8151V75.7441L40.9715 77.0738L31.331 71.4516H25V111.557L44.0411 117.903H47.7495L48.2126 116.281L54.0493 119.785C54.1447 122.958 56.6898 125.512 59.8604 125.623C59.972 128.781 62.5094 131.318 65.6669 131.43C65.7784 134.587 68.3159 137.125 71.4733 137.236C71.5886 140.467 74.2348 143.065 77.4924 143.065C78.7021 143.065 79.8882 142.687 80.8852 142.015L82.5995 143.529C83.6741 144.475 85.0576 145 86.4941 145H86.8523C90.0731 145 92.6937 142.396 92.7344 139.186C95.9202 139.145 98.5002 136.565 98.5408 133.38C101.729 133.339 104.31 130.755 104.347 127.567C107.564 127.492 110.161 124.864 110.161 121.629C110.161 121.434 110.152 121.242 110.132 121.048L145 103.616V75.3226ZM125.645 60.3264V63.7097C125.645 67.145 123.789 70.3544 120.801 72.0848L119.833 72.6443L119.841 78.7692L129.51 81.1848L108.226 92.3875V87.1736C108.226 84.5719 107.175 82.1894 105.454 80.4287L112.097 78.7692V72.6396L111.131 72.081C108.145 70.3544 106.29 67.145 106.29 63.7097V59.8387C106.29 57.1992 107.334 54.7307 109.23 52.8925C111.125 51.0553 113.639 50.0649 116.267 50.167C121.438 50.3219 125.645 54.88 125.645 60.3264ZM87.9183 90.866L79.1567 88.0658C75.1638 86.7862 70.842 86.5953 66.7547 87.5006L65.6452 87.7463V87.1736C65.6452 84.5048 67.4549 82.1875 70.0425 81.5392L81.129 78.7692V72.6396L80.1632 72.081C77.1768 70.3544 75.3226 67.145 75.3226 63.7097V59.8387C75.3226 57.1992 76.3659 54.7307 78.2627 52.8925C80.1575 51.0553 82.6874 50.0649 85.2996 50.167C90.47 50.3219 94.6774 54.88 94.6774 60.3264V63.7097C94.6774 67.145 92.8213 70.3544 89.833 72.0848L88.8653 72.6443L88.8729 78.7692L99.9575 81.5392C102.545 82.1875 104.355 84.5048 104.355 87.1736V94.426L103.877 94.6774H102.691L90.7913 91.2771C89.8538 91.0115 88.888 90.9028 87.9183 90.866ZM66.0789 53.968C69.7136 46.9254 77.0294 42.4194 85 42.4194C92.895 42.4194 100.18 46.8649 103.842 53.8121C102.92 55.6596 102.419 57.7057 102.419 59.8387V63.7097C102.419 68.1401 104.619 72.2974 108.226 74.8151V75.7441L100.484 77.6824L92.74 75.7441V74.817C96.3473 72.2993 98.5484 68.1401 98.5484 63.7097V60.3264C98.5484 52.8075 92.6569 46.5152 85.4158 46.296C81.7112 46.1873 78.2182 47.5406 75.5664 50.115C72.9127 52.6893 71.4516 56.1416 71.4516 59.8387V63.7097C71.4516 68.1401 73.6508 72.2974 77.2581 74.8151V75.7441L69.5161 77.6824L61.7723 75.7441V74.817C65.3796 72.2993 67.5806 68.1401 67.5806 63.7097V60.3264C67.5806 58.0488 67.0325 55.8865 66.0789 53.968ZM57.1774 42.2625L63.3609 36.0789L68.8036 39.621L69.845 38.9822C72.4543 37.3831 75.2744 36.2122 78.2258 35.5062L79.4166 35.2208L80.7633 28.871H89.2386L90.5815 35.2189L91.7723 35.5034C94.7237 36.2103 97.5438 37.3812 100.153 38.9803L101.195 39.6191L106.637 36.0771L112.813 42.2549L110.618 47.3951C109.124 48.0377 107.738 48.9422 106.532 50.1112C106.453 50.1887 106.385 50.2719 106.307 50.3512C101.747 43.1026 93.6861 38.5484 85 38.5484C76.2516 38.5484 68.1675 43.1452 63.6189 50.4675C62.4017 49.1935 60.9539 48.1615 59.3492 47.4405L57.1774 42.2625ZM50.1613 78.7692V72.6396L49.1954 72.081C46.209 70.3544 44.3548 67.145 44.3548 63.7097V59.8387C44.3548 57.1992 45.3982 54.7307 47.2949 52.8925C49.1898 51.0553 51.7093 50.0649 54.3318 50.167C59.5023 50.3219 63.7097 54.88 63.7097 60.3264V63.7097C63.7097 67.145 61.8536 70.3544 58.8653 72.0848L57.8976 72.6443L57.9051 78.7692L64.5461 80.4287C62.8251 82.1894 61.7742 84.5719 61.7742 87.1736V88.6073L55.7371 89.9493L55.894 89.4011L55.9677 85.8241L45.7601 79.8693L50.1613 78.7692ZM28.871 75.3226H30.2819L44.2017 83.4416L37.178 111.535L28.871 108.765V75.3226ZM44.6686 114.032L40.8591 112.763L47.6824 85.4725L52.0968 88.0469V88.5997L44.8311 114.032H44.6686ZM57.9032 119.604C57.9032 119.034 58.1338 118.474 58.5383 118.07L61.9405 114.667C62.345 114.263 62.9045 114.032 63.4753 114.032C64.6717 114.032 65.6452 115.006 65.6452 116.202C65.6452 116.773 65.4146 117.332 65.0101 117.737L61.6079 121.139C61.2034 121.544 60.6439 121.774 60.0731 121.774C58.8766 121.774 57.9032 120.801 57.9032 119.604ZM63.7097 125.411C63.7097 124.84 63.9403 124.28 64.3448 123.876L67.747 120.474C68.1515 120.069 68.7109 119.839 69.2818 119.839C70.4782 119.839 71.4516 120.812 71.4516 122.009C71.4516 122.579 71.221 123.139 70.8165 123.543L67.4143 126.946C67.0098 127.35 66.4503 127.581 65.8795 127.581C64.6831 127.581 63.7097 126.607 63.7097 125.411ZM69.5161 131.217C69.5161 130.646 69.7467 130.087 70.1512 129.682L73.5534 126.28C73.9579 125.876 74.5174 125.645 75.0882 125.645C76.2846 125.645 77.2581 126.619 77.2581 127.815C77.2581 128.386 77.0275 128.945 76.623 129.35L73.2208 132.752C72.8163 133.156 72.2568 133.387 71.686 133.387C70.4895 133.387 69.5161 132.414 69.5161 131.217ZM77.4924 139.194C76.296 139.194 75.3226 138.22 75.3226 137.024C75.3226 136.453 75.5532 135.893 75.9577 135.489L79.3599 132.087C79.7644 131.682 80.3238 131.452 80.8947 131.452C82.0911 131.452 83.0645 132.425 83.0645 133.621C83.0645 134.192 82.8339 134.752 82.4294 135.156L79.0272 138.558C78.6227 138.963 78.0633 139.194 77.4924 139.194ZM86.8523 141.129H86.4941C86.0008 141.129 85.5283 140.949 85.1607 140.623L83.7128 139.347L85.1663 137.893C85.6852 137.374 86.0878 136.757 86.3855 136.095L88.1452 137.56C88.6054 137.943 88.871 138.508 88.871 139.11C88.871 140.224 87.9656 141.129 86.8523 141.129ZM104.209 123.71H103.875C103.389 123.71 102.915 123.538 102.543 123.226L92.0473 114.479L89.5675 117.454L99.76 125.947C100.218 126.33 100.484 126.895 100.484 127.497C100.484 128.611 99.5785 129.516 98.4652 129.516H98.0428C97.5731 129.516 97.1138 129.35 96.7518 129.047L86.239 120.288L83.7591 123.263L93.9516 131.756C94.4119 132.137 94.6774 132.702 94.6774 133.304C94.6774 134.417 93.772 135.323 92.6588 135.323C91.9159 135.323 91.192 135.059 90.6222 134.585L86.3023 130.985C85.3506 129.04 83.3953 127.684 81.1054 127.602C80.9939 124.445 78.4564 121.907 75.299 121.796C75.1874 118.638 72.6499 116.101 69.4925 115.989C69.3791 112.758 66.7329 110.161 63.4753 110.161C61.8848 110.161 60.3283 110.806 59.2036 111.93L55.8014 115.333C55.5982 115.536 55.43 115.766 55.2589 115.995L49.3136 112.428L54.5256 94.186L67.592 91.2809C71.0197 90.5144 74.6336 90.6808 77.9763 91.7506L80.8276 92.6625L71.1615 97.4956C68.9529 98.6022 67.5806 100.824 67.5806 103.294V103.677C67.5806 107.252 70.4895 110.161 74.0647 110.161C75.2394 110.161 76.3952 109.842 77.3998 109.236L84.6069 104.914C86.0547 104.047 87.9977 104.237 89.248 105.361L105.601 120.079C106.039 120.476 106.29 121.039 106.29 121.629C106.29 122.777 105.358 123.71 104.209 123.71ZM141.129 101.223L108.522 117.528C108.416 117.416 108.305 117.309 108.189 117.205L91.8385 102.487C90.4057 101.195 88.5534 100.484 86.6236 100.484C85.2126 100.484 83.8272 100.868 82.6137 101.595L75.4039 105.919C74.9994 106.163 74.5372 106.29 74.0647 106.29C72.6225 106.29 71.4516 105.119 71.4516 103.677V103.294C71.4516 102.297 72.0054 101.403 72.8957 100.958L83.692 95.5601C85.5396 94.6349 87.7331 94.4279 89.7244 95.0006L101.887 98.4747L104.833 98.5484L141.129 79.4449V101.223Z" fill="#E31E24"/>
</svg>
