<svg width="170" height="170" viewBox="0 0 170 170" fill="none" xmlns="http://www.w3.org/2000/svg">
<path d="M115.161 0H54.8387C24.5521 0 0 24.5521 0 54.8387V115.161C0 145.448 24.5521 170 54.8387 170H115.161C145.448 170 170 145.448 170 115.161V54.8387C170 24.5521 145.448 0 115.161 0Z" fill="#CFCFCF"/>
<path d="M77.0312 107.5C78.3257 107.5 79.375 106.451 79.375 105.156C79.375 103.862 78.3257 102.812 77.0312 102.812C75.7368 102.812 74.6875 103.862 74.6875 105.156C74.6875 106.451 75.7368 107.5 77.0312 107.5Z" fill="#E31E24"/>
<path d="M77.0312 116.875C78.3257 116.875 79.375 115.826 79.375 114.531C79.375 113.237 78.3257 112.188 77.0312 112.188C75.7368 112.188 74.6875 113.237 74.6875 114.531C74.6875 115.826 75.7368 116.875 77.0312 116.875Z" fill="#E31E24"/>
<path d="M77.0312 126.25C78.3257 126.25 79.375 125.201 79.375 123.906C79.375 122.612 78.3257 121.562 77.0312 121.562C75.7368 121.562 74.6875 122.612 74.6875 123.906C74.6875 125.201 75.7368 126.25 77.0312 126.25Z" fill="#E31E24"/>
<path d="M77.0312 135.625C78.3257 135.625 79.375 134.576 79.375 133.281C79.375 131.987 78.3257 130.938 77.0312 130.938C75.7368 130.938 74.6875 131.987 74.6875 133.281C74.6875 134.576 75.7368 135.625 77.0312 135.625Z" fill="#E31E24"/>
<path d="M135.625 105.156C135.625 103.862 134.575 102.812 133.281 102.812H123.906C122.612 102.812 121.562 103.862 121.562 105.156V114.531C121.562 115.825 122.612 116.875 123.906 116.875H133.281C134.575 116.875 135.625 115.825 135.625 114.531V105.156ZM130.938 112.188H126.25V107.5H130.938V112.188Z" fill="#E31E24"/>
<path d="M133.281 121.562H123.906C122.612 121.562 121.562 122.612 121.562 123.906V133.281C121.562 134.575 122.612 135.625 123.906 135.625H133.281C134.575 135.625 135.625 134.575 135.625 133.281V123.906C135.625 122.612 134.575 121.562 133.281 121.562ZM130.938 130.938H126.25V126.25H130.938V130.938Z" fill="#E31E24"/>
<path d="M116.875 105.156C116.875 103.862 115.825 102.812 114.531 102.812H105.156C103.862 102.812 102.812 103.862 102.812 105.156V114.531C102.812 115.825 103.862 116.875 105.156 116.875H114.531C115.825 116.875 116.875 115.825 116.875 114.531V105.156ZM112.188 112.188H107.5V107.5H112.188V112.188Z" fill="#E31E24"/>
<path d="M114.531 121.562H105.156C103.862 121.562 102.812 122.612 102.812 123.906V133.281C102.812 134.575 103.862 135.625 105.156 135.625H114.531C115.825 135.625 116.875 134.575 116.875 133.281V123.906C116.875 122.612 115.825 121.562 114.531 121.562ZM112.188 130.938H107.5V126.25H112.188V130.938Z" fill="#E31E24"/>
<path d="M98.125 105.156C98.125 103.862 97.0755 102.812 95.7812 102.812H86.4062C85.112 102.812 84.0625 103.862 84.0625 105.156V114.531C84.0625 115.825 85.112 116.875 86.4062 116.875H95.7812C97.0755 116.875 98.125 115.825 98.125 114.531V105.156ZM93.4375 112.188H88.75V107.5H93.4375V112.188Z" fill="#E31E24"/>
<path d="M95.7812 121.562H86.4062C85.112 121.562 84.0625 122.612 84.0625 123.906V133.281C84.0625 134.575 85.112 135.625 86.4062 135.625H95.7812C97.0755 135.625 98.125 134.575 98.125 133.281V123.906C98.125 122.612 97.0755 121.562 95.7812 121.562ZM93.4375 130.938H88.75V126.25H93.4375V130.938Z" fill="#E31E24"/>
<path d="M142.656 121.562C143.951 121.562 145 120.513 145 119.219C145 117.924 143.951 116.875 142.656 116.875C141.362 116.875 140.312 117.924 140.312 119.219C140.312 120.513 141.362 121.562 142.656 121.562Z" fill="#E31E24"/>
<path d="M144.062 93.9062L135.264 87.3077C134.5 79.1849 131.861 51.1169 130.927 41.1869C130.814 39.9829 129.803 39.0625 128.594 39.0625H126.25V36.7188C126.25 30.257 120.993 25 114.531 25C110.704 25 107.146 26.886 104.972 29.9411C104.267 29.7742 103.541 29.6875 102.812 29.6875C99.3827 29.6875 96.2826 31.5651 94.6476 34.4526C94.2482 34.4008 93.8444 34.375 93.4375 34.375C91.4383 34.375 89.5192 35.0088 87.9353 36.1581C86.0849 34.998 83.9392 34.375 81.7188 34.375C75.257 34.375 70 39.632 70 46.0938C70 52.5555 75.257 57.8125 81.7188 57.8125C82.8559 57.8125 83.98 57.6421 85.0591 57.3217C86.6195 60.4066 89.8387 62.5 93.4375 62.5C97.2449 62.5 100.56 60.2036 102.019 56.8945C103.736 57.4984 105.589 57.8125 107.5 57.8125C110.43 57.8125 113.194 57.0684 115.488 55.7547C115.492 55.7913 115.499 55.8273 115.505 55.8634C115.243 58.1838 112.999 82.2025 112.808 84.5277L106.562 79.8438C105.852 79.3115 104.902 79.2252 104.108 79.6225C103.314 80.0195 102.812 80.8309 102.812 81.7188V91.0938L87.8125 79.8438C87.1026 79.3115 86.1517 79.2257 85.3581 79.6225C84.5641 80.0195 84.0625 80.8309 84.0625 81.7188V91.0938L79.375 87.5781V70.9375C79.375 67.0605 76.2208 63.9062 72.3438 63.9062H52.1875C48.3105 63.9062 45.1562 67.0605 45.1562 70.9375V74.9233C39.8137 76.0122 35.7812 80.747 35.7812 86.4062V112.188H27.3438C26.0495 112.188 25 113.237 25 114.531V142.656C25 143.95 26.0495 145 27.3438 145H142.656C143.95 145 145 143.95 145 142.656V129.766C145 128.471 143.95 127.422 142.656 127.422C141.362 127.422 140.312 128.471 140.312 129.766V140.312H70V86.4062L85 97.6562C85.7104 98.1888 86.661 98.2745 87.4544 97.8775C88.2484 97.4805 88.75 96.6691 88.75 95.7812V86.4062L103.75 97.6562C104.46 98.1888 105.411 98.2745 106.204 97.8775C106.998 97.4805 107.5 96.6691 107.5 95.7812V86.4065L122.5 97.6562C123.21 98.1888 124.161 98.2745 124.955 97.8775C125.748 97.4805 126.25 96.6691 126.25 95.7812V86.4062L140.312 96.9531V108.672C140.312 109.966 141.362 111.016 142.656 111.016C143.95 111.016 145 109.966 145 108.672V95.7812C145 95.0437 144.653 94.349 144.062 93.9062V93.9062ZM40.4688 86.4062C40.4688 82.5292 43.623 79.375 47.5 79.375C51.377 79.375 54.5312 82.5292 54.5312 86.4062V112.188H40.4688V86.4062ZM54.5312 140.312H40.4688V126.25H54.5312V140.312ZM65.3125 140.312H59.2188V123.906C59.2188 122.612 58.1692 121.562 56.875 121.562H38.125C36.8308 121.562 35.7812 122.612 35.7812 123.906V140.312H29.6875V116.875H65.3125V140.312ZM74.6875 84.0625L69.0625 79.8438C67.5208 78.688 65.3125 79.7891 65.3125 81.7188V112.188H59.2188V86.4062C59.2188 80.747 55.1863 76.0122 49.8438 74.9233V70.9375C49.8438 69.6452 50.8952 68.5938 52.1875 68.5938H72.3438C73.6361 68.5938 74.6875 69.6452 74.6875 70.9375V84.0625ZM128.223 62.5H119.589L120.03 57.8125H127.783L128.223 62.5ZM126.46 43.75L127.342 53.125H120.471L121.353 43.75H126.46ZM116.176 48.7234C114.732 51.3648 111.291 53.125 107.5 53.125C105.805 53.125 104.192 52.7849 102.761 52.1437C102.269 47.4339 98.2755 43.75 93.4375 43.75C92.1433 43.75 91.0938 44.7995 91.0938 46.0938C91.0938 47.388 92.1433 48.4375 93.4375 48.4375C96.1991 48.4375 98.3195 50.8321 98.1156 53.402C98.1147 53.413 98.114 53.4241 98.1133 53.4351C97.9565 55.8897 95.9029 57.8125 93.4375 57.8125C91.1329 57.8125 89.14 56.0985 88.8013 53.8216C88.7671 53.5956 88.75 53.3613 88.75 53.125C88.75 51.8308 87.7005 50.7812 86.4062 50.7812C85.2543 50.7812 84.2985 51.613 84.1016 52.7083C83.3416 52.9813 82.5358 53.125 81.7188 53.125C77.8417 53.125 74.6875 49.9708 74.6875 46.0938C74.6875 42.2167 77.8417 39.0625 81.7188 39.0625C83.4911 39.0625 85.1838 39.7241 86.4855 40.9253C86.9552 41.3589 87.5842 41.582 88.2184 41.5424C88.8562 41.5033 89.4501 41.2056 89.8633 40.7184C90.7551 39.666 92.0577 39.0625 93.4375 39.0625C94.0328 39.0625 94.6145 39.1731 95.167 39.3909C96.4637 39.9032 97.9216 39.1743 98.2886 37.8266C98.8424 35.7946 100.702 34.375 102.812 34.375C105.363 34.375 107.5 36.4302 107.5 39.0625C107.5 40.3567 108.55 41.4062 109.844 41.4062C111.138 41.4062 112.188 40.3567 112.188 39.0625C112.188 36.3916 111.071 33.9159 109.173 32.1712C110.491 30.6243 112.444 29.6875 114.531 29.6875C118.408 29.6875 121.562 32.8417 121.562 36.7188V39.0625H119.219C118.009 39.0625 116.998 39.9829 116.885 41.1869L116.176 48.7234ZM125.312 79.8438C124.602 79.3115 123.652 79.2257 122.858 79.6225C122.064 80.0195 121.562 80.8309 121.562 81.7188V91.094L117.206 87.8263L119.148 67.1875H128.664L130.199 83.5087L125.312 79.8438Z" fill="#E31E24"/>
</svg>
