<svg width="170" height="170" viewBox="0 0 170 170" fill="none" xmlns="http://www.w3.org/2000/svg">
<path d="M115.161 0H54.8387C24.5521 0 0 24.5521 0 54.8387V115.161C0 145.448 24.5521 170 54.8387 170H115.161C145.448 170 170 145.448 170 115.161V54.8387C170 24.5521 145.448 0 115.161 0Z" fill="#CFCFCF"/>
<path d="M115.953 34.6837L98.1507 45.6434C97.8333 45.8388 97.5769 46.1189 97.4103 46.4523C97.2437 46.7856 97.1735 47.1589 97.2076 47.53C98.0537 56.7249 101.539 64.3282 107.566 70.1285C110.085 72.5462 112.957 74.568 116.082 76.1252C116.357 76.2615 116.66 76.3325 116.968 76.3328C117.275 76.333 117.578 76.2625 117.854 76.1268C120.993 74.5698 123.877 72.5461 126.41 70.1245C132.46 64.3217 135.958 56.7146 136.804 47.5145C136.838 47.1435 136.768 46.7703 136.602 46.437C136.435 46.1037 136.179 45.8235 135.861 45.6281C131.552 42.9743 124.363 38.5578 118.048 34.6822C117.733 34.4887 117.37 34.3865 117 34.3867C116.63 34.387 116.268 34.4898 115.953 34.6837V34.6837ZM132.689 48.372C131.749 56.0344 128.709 62.3766 123.641 67.2366C121.646 69.1441 119.402 70.7737 116.971 72.0813C114.553 70.7748 112.323 69.1482 110.339 67.2454C105.291 62.3871 102.261 56.0476 101.322 48.3875L117.003 38.7338C122.543 42.1355 128.585 45.8469 132.689 48.372Z" fill="#E31E24"/>
<path d="M109.59 58.4089L113.59 62.409C113.776 62.5948 113.996 62.7421 114.239 62.8426C114.481 62.9432 114.742 62.9949 115.004 62.9949C115.267 62.9949 115.527 62.9432 115.77 62.8426C116.012 62.7421 116.233 62.5948 116.419 62.409L126.419 52.4086C126.794 52.0335 127.005 51.5248 127.005 50.9943C127.005 50.4638 126.794 49.9551 126.419 49.58C126.044 49.2049 125.535 48.9941 125.005 48.9941C124.474 48.9941 123.965 49.2049 123.59 49.58L115.004 58.1664L112.418 55.5802C112.043 55.2051 111.535 54.9944 111.004 54.9944C110.474 54.9944 109.965 55.2051 109.59 55.5802C109.215 55.9553 109.004 56.4641 109.004 56.9945C109.004 57.525 109.215 58.0338 109.59 58.4089V58.4089Z" fill="#E31E24"/>
<path d="M144.054 41.2919L118.063 25.2912C117.745 25.1006 117.38 25 117.009 25C116.638 25 116.274 25.1006 115.956 25.2912L89.9649 41.2919C89.674 41.471 89.4338 41.7216 89.2673 42.0198C89.1007 42.318 89.0133 42.6539 89.0133 42.9955C89.0028 46.3499 89.3062 49.698 89.9194 52.9959H31.0003C30.4698 52.9959 29.9611 53.2066 29.586 53.5817C29.2109 53.9568 29.0002 54.4656 29.0002 54.996V82.525L25.2113 90.1031C25.0723 90.3808 25 90.6871 25 90.9976C25.0021 92.9427 25.5707 94.845 26.6363 96.4722C27.7018 98.0994 29.2182 99.381 31.0003 100.161V132.999H27.0001C26.4696 132.999 25.9609 133.21 25.5858 133.585C25.2107 133.96 25 134.469 25 135V143C25 143.53 25.2107 144.039 25.5858 144.414C25.9609 144.789 26.4696 145 27.0001 145H123.004C123.535 145 124.044 144.789 124.419 144.414C124.794 144.039 125.004 143.53 125.004 143V135C125.004 134.469 124.794 133.96 124.419 133.585C124.044 133.21 123.535 132.999 123.004 132.999H119.004V100.161C120.786 99.381 122.303 98.0993 123.368 96.4721C124.434 94.845 125.002 92.9426 125.004 90.9976C125.004 90.6871 124.932 90.3808 124.793 90.1031L121.408 83.333C125.045 81.5332 128.405 79.2202 131.384 76.465C137.597 70.7195 145.005 60.249 145.005 42.9955C145.005 42.6539 144.918 42.318 144.751 42.0198C144.585 41.7216 144.345 41.471 144.054 41.2919V41.2919ZM33.0004 56.9961H90.8529C91.2461 58.3962 91.6888 59.7296 92.181 60.9963H33.0004V56.9961ZM33.0004 64.9965H93.9648C95.4256 67.8635 97.2185 70.5487 99.3068 72.9968H33.0004V64.9965ZM33.0004 76.997H103.222C104.872 78.4646 106.633 79.802 108.489 80.9972H33.0004V76.997ZM43.0008 100.17V96.9909C43.8437 98.1165 44.9146 99.0516 46.1435 99.7352C47.3724 100.419 48.7317 100.836 50.1326 100.958L67.0019 117.827V124.171L43.0008 100.17ZM67.0019 129.828V132.999H43.0008V105.827L67.0019 129.828ZM56.6574 92.9977C56.2435 94.1671 55.4773 95.1794 54.4644 95.8954C53.4514 96.6114 52.2415 96.9958 51.001 96.9958C49.7606 96.9958 48.5506 96.6114 47.5377 95.8954C46.5247 95.1794 45.7586 94.1671 45.3446 92.9977H56.6574ZM45.5624 88.9975L46.5625 84.9973H58.44L57.4399 88.9975H45.5624ZM54.9948 100.163C56.5814 99.4679 57.9616 98.3747 59.0015 96.9894C59.9316 98.2335 61.139 99.2436 62.5278 99.9395C63.9166 100.635 65.4485 100.998 67.0019 100.998V112.17L54.9948 100.163ZM61.3451 92.9977H72.6579C72.2439 94.1671 71.4778 95.1794 70.4648 95.8954C69.4519 96.6114 68.2419 96.9958 67.0015 96.9958C65.761 96.9958 64.5511 96.6114 63.5381 95.8954C62.5252 95.1794 61.759 94.1671 61.3451 92.9977V92.9977ZM61.5629 88.9975L62.5629 84.9973H73.0021V88.9975H61.5629ZM71.002 100.161C72.5858 99.4655 73.9635 98.3738 75.0022 96.9909V120.999C75.0022 121.529 75.2129 122.038 75.588 122.413C75.9631 122.788 76.4718 122.999 77.0023 122.999H109.004C109.534 122.999 110.043 122.788 110.418 122.413C110.793 122.038 111.004 121.529 111.004 120.999V100.16C112.265 100.713 113.627 100.999 115.004 100.998V132.999H71.002V100.161ZM92.5645 88.9975L91.5644 84.9973H103.442L104.442 88.9975H92.5645ZM104.66 92.9977C104.246 94.167 103.479 95.1792 102.466 95.8951C101.454 96.611 100.244 96.9955 99.0033 96.9955C97.7629 96.9955 96.553 96.611 95.5401 95.8951C94.5271 95.1792 93.761 94.167 93.347 92.9977H104.66ZM99.0033 100.998C100.557 100.998 102.088 100.636 103.477 99.9401C104.866 99.2445 106.073 98.2347 107.004 96.9909V114.17L90.4714 97.6379C90.6574 97.4291 90.8359 97.2129 91.0042 96.9894C91.934 98.2334 93.1412 99.2435 94.5298 99.9394C95.9184 100.635 97.4501 100.998 99.0033 100.998ZM106.175 118.999H99.8318L81.7498 100.917C82.1653 100.97 82.5837 100.997 83.0026 100.998C84.4647 100.999 85.9091 100.678 87.2328 100.057L106.175 118.999ZM94.1746 118.999H79.0024V103.827L94.1746 118.999ZM83.0026 96.9979C81.7622 96.9963 80.5528 96.611 79.5401 95.8948C78.5274 95.1786 77.7611 94.1666 77.3463 92.9977H88.6591C88.2442 94.1666 87.4779 95.1786 86.4651 95.8948C85.4524 96.6109 84.2429 96.9963 83.0026 96.9979V96.9979ZM77.0023 88.9975V84.9973H87.4413L88.4413 88.9975H77.0023ZM108.565 88.9975L107.565 84.9973H117.768L119.768 88.9975H108.565ZM32.2368 84.9973H42.4398L41.4397 88.9975H30.2362L32.2368 84.9973ZM29.3447 92.9977H40.6567C40.2433 94.1675 39.4774 95.1803 38.4645 95.8967C37.4515 96.6131 36.2414 96.9978 35.0007 96.9978C33.76 96.9978 32.5499 96.6131 31.5369 95.8967C30.524 95.1803 29.7581 94.1675 29.3447 92.9977ZM39.0006 100.16V132.999H35.0004V100.998C36.3775 100.999 37.7397 100.713 39.0006 100.16ZM121.004 137V141H29.0002V137H121.004ZM115.004 96.9979C113.764 96.9963 112.554 96.611 111.541 95.8948C110.529 95.1786 109.763 94.1666 109.348 92.9977H120.66C120.245 94.1666 119.479 95.1786 118.466 95.8947C117.454 96.6109 116.244 96.9963 115.004 96.9979ZM128.798 73.4071C125.373 76.6211 121.373 79.16 117.007 80.8904C112.694 79.1881 108.741 76.6906 105.351 73.5278C97.4047 66.181 93.2605 56.2863 93.0243 44.1058L117.009 29.3396L140.994 44.1058C140.76 56.2171 136.659 66.07 128.798 73.4071V73.4071Z" fill="#E31E24"/>
</svg>
